<svg width="24" height="25" viewBox="0 0 24 25" fill="none" xmlns="http://www.w3.org/2000/svg">
<g clip-path="url(#clip0_215_817)">
<path d="M20.6211 8.95C19.5711 4.33 15.5411 2.25 12.0011 2.25C12.0011 2.25 12.0011 2.25 11.9911 2.25C8.46107 2.25 4.42107 4.32 3.37107 8.94C2.20107 14.1 5.36107 18.47 8.22107 21.22C9.28107 22.24 10.6411 22.75 12.0011 22.75C13.3611 22.75 14.7211 22.24 15.7711 21.22C18.6311 18.47 21.7911 14.11 20.6211 8.95ZM12.0011 13.96C10.2611 13.96 8.85107 12.55 8.85107 10.81C8.85107 9.07 10.2611 7.66 12.0011 7.66C13.7411 7.66 15.1511 9.07 15.1511 10.81C15.1511 12.55 13.7411 13.96 12.0011 13.96Z" fill="white"/>
</g>
<defs>
<clipPath id="clip0_215_817">
<rect width="24" height="24" fill="white" transform="translate(0 0.5)"/>
</clipPath>
</defs>
</svg>
