<svg width="283" height="50" viewBox="0 0 283 50" fill="none" xmlns="http://www.w3.org/2000/svg">
<path fill-rule="evenodd" clip-rule="evenodd" d="M283 30.9524H278.892V18.4623H267.062V30.9524H262.954V4.07023H267.062V14.7513H278.892V4.07023H283V30.9524ZM263.2 36.9912C266.777 36.9912 269.692 39.9175 269.692 43.4956C269.692 47.0737 266.777 50 263.2 50C259.624 50 256.708 47.0737 256.708 43.4956C256.708 39.9175 259.624 36.9912 263.2 36.9912ZM263.2 39.7978C264.95 39.7978 266.388 41.4472 266.388 43.4823C266.388 45.5174 264.963 47.1668 263.2 47.1668C261.438 47.1668 260.013 45.5041 260.013 43.4823C260.013 41.4605 261.438 39.7978 263.2 39.7978ZM227.657 36.9247C228.681 36.9247 229.756 37.2439 230.65 37.7228V41.4339C229.782 40.4629 228.732 39.9175 227.812 39.9042C225.946 39.8776 224.651 41.5137 224.651 43.469C224.651 45.4243 225.804 47.0604 227.812 47.0338C228.901 47.0338 229.976 46.2889 230.65 45.4908V49.1886C229.782 49.6408 228.771 49.9069 227.657 49.9069C224.106 50.1862 221.295 47.1801 221.333 43.4025C221.333 39.6781 224.171 36.6853 227.657 36.8981V36.9247ZM236.74 49.7074V40.1836H234.032V37.2306H242.779V40.1836H240.071V49.7074H236.753H236.74ZM252.821 45.1317C252.147 45.3977 251.409 45.5307 250.657 45.5839C250.009 45.6371 249.335 45.6504 248.752 45.5706V49.7074H245.617V37.2306H249.944C251.279 37.2306 252.86 37.4435 253.754 38.5608C254.376 39.3323 254.713 40.4363 254.739 41.5403C254.778 43.0832 254.169 44.5996 252.808 45.145L252.821 45.1317ZM248.752 42.8438C249.141 42.8438 249.465 42.8704 249.802 42.8438C250.709 42.8039 251.473 42.4581 251.512 41.4073C251.551 40.3166 250.774 39.9973 249.88 39.9042C249.517 39.8643 249.141 39.8776 248.765 39.8776V42.8305L248.752 42.8438ZM271.947 49.694V37.2173H275.251V45.145L279.683 37.2173H283V49.694H279.683V42.2852L275.251 49.694H271.947ZM280.706 33.8255C280.292 37.0976 274.551 37.0843 274.137 33.8255H280.706ZM113.381 0L128.438 22.0005L134.58 13.0221L146.813 30.8859H92.2471L96.3936 24.8337L100.242 19.2205C96.1345 16.8529 91.7418 14.9641 87.1288 13.6472V39.3589H217.42L213.002 43.6951H155.572L159.667 49.6675H79.4059L83.4876 43.6951H19.2295C18.1669 45.6637 17.1951 47.6323 16.3399 49.8936H8.40966C9.01868 47.6988 9.80911 45.6105 10.6255 43.6951H0V39.3589H12.7117C22.9873 20.125 44.1345 6.89012 68.4824 6.89012C80.909 6.89012 92.5063 10.3485 102.251 16.2809L113.394 0H113.381ZM84.6667 13.0088C80.4166 11.9979 75.9979 11.4658 71.4627 11.4658C69.0914 11.4658 66.759 11.6121 64.4525 11.8914V39.3589H84.6538V13.0088H84.6667ZM62.0164 12.2506C54.6563 13.4876 47.7239 16.1479 41.5041 19.9388V39.3589H62.0164V12.2506ZM39.055 21.5217C32.2133 26.1772 26.3174 32.2559 21.7563 39.3589H39.055V21.5217ZM174.387 30.9258H169.826L167.053 24.5677H155.987L153.214 30.9258H148.653L161.507 2.68687L174.387 30.9258ZM165.485 20.9231L161.494 11.7052L157.581 20.9231H165.485ZM180.775 24.4081V30.9258H176.668V4.04362H184.352C187.021 4.04362 189.457 5.20084 191.219 7.04973C192.969 8.89863 194.044 11.4259 194.057 14.2192C194.057 17.0125 192.969 19.5531 191.219 21.402C189.457 23.2509 187.034 24.4081 184.365 24.4081H180.788H180.775ZM180.775 20.2048V20.2447H184.313C185.868 20.2447 187.28 19.5664 188.304 18.489C189.34 17.3982 189.975 15.8952 189.975 14.2325C189.975 12.5698 189.34 11.0668 188.304 9.97606C187.28 8.89864 185.868 8.22026 184.313 8.22026H180.775V20.2048ZM217.291 30.9258H211.874L201.262 17.6643V30.9258H197.154V4.04362H201.262V15.9484L211.706 4.04362H216.928L205.343 16.7066L217.291 30.9258ZM233.864 7.7547H227.592V30.9258H223.523V7.7547H217.226V4.04362H233.864V7.7547ZM260.518 17.4781C260.518 21.3355 259.157 24.6342 256.436 27.4009C253.728 30.1543 250.45 31.5376 246.614 31.5376C242.779 31.5376 239.513 30.1676 236.805 27.4142C234.084 24.6608 232.723 21.3488 232.723 17.4781C232.723 13.6073 234.071 10.3219 236.792 7.56849C239.513 4.81509 242.779 3.43175 246.614 3.43175C250.45 3.43175 253.702 4.8018 256.436 7.55519C259.157 10.3086 260.518 13.6206 260.518 17.4781ZM256.385 17.4781C256.385 14.6582 255.439 12.2506 253.56 10.3086C251.681 8.35329 249.361 7.38227 246.614 7.38227C243.867 7.38227 241.587 8.35329 239.708 10.3086C237.829 12.2506 236.896 14.6582 236.896 17.4781C236.896 20.298 237.829 22.6922 239.695 24.6342C241.561 26.5629 243.867 27.5339 246.614 27.5339C249.361 27.5339 251.668 26.5629 253.56 24.6342C255.439 22.7055 256.385 20.3113 256.385 17.4781Z" fill="#661A21"/>
</svg>
