<svg width="252" height="44" viewBox="0 0 252 44" fill="none" xmlns="http://www.w3.org/2000/svg">
<path fill-rule="evenodd" clip-rule="evenodd" d="M252 27.2381H248.342V16.2469H237.808V27.2381H234.15V3.5818H237.808V12.9811H248.342V3.5818H252V27.2381ZM234.369 32.5523C237.554 32.5523 240.15 35.1274 240.15 38.2761C240.15 41.4248 237.554 44 234.369 44C231.185 44 228.588 41.4248 228.588 38.2761C228.588 35.1274 231.185 32.5523 234.369 32.5523ZM234.369 35.0221C235.927 35.0221 237.208 36.4735 237.208 38.2644C237.208 40.0553 235.938 41.5068 234.369 41.5068C232.8 41.5068 231.531 40.0436 231.531 38.2644C231.531 36.4852 232.8 35.0221 234.369 35.0221ZM202.719 32.4937C203.631 32.4937 204.588 32.7747 205.385 33.196V36.4618C204.612 35.6073 203.677 35.1274 202.858 35.1157C201.196 35.0923 200.042 36.5321 200.042 38.2527C200.042 39.9734 201.069 41.4131 202.858 41.3897C203.827 41.3897 204.785 40.7342 205.385 40.0319V43.286C204.612 43.6839 203.712 43.9181 202.719 43.9181C199.558 44.1639 197.054 41.5185 197.088 38.1942C197.088 34.9167 199.615 32.283 202.719 32.4703V32.4937ZM210.808 43.7425V35.3615H208.396V32.763H216.185V35.3615H213.773V43.7425H210.819H210.808ZM225.127 39.7159C224.527 39.95 223.869 40.067 223.2 40.1139C222.623 40.1607 222.023 40.1724 221.504 40.1021V43.7425H218.712V32.763H222.565C223.754 32.763 225.162 32.9502 225.958 33.9335C226.512 34.6124 226.812 35.5839 226.835 36.5555C226.869 37.9133 226.327 39.2477 225.115 39.7276L225.127 39.7159ZM221.504 37.7026C221.85 37.7026 222.138 37.726 222.438 37.7026C223.246 37.6675 223.927 37.3631 223.962 36.4384C223.996 35.4786 223.304 35.1977 222.508 35.1157C222.185 35.0806 221.85 35.0923 221.515 35.0923V37.6909L221.504 37.7026ZM242.158 43.7308V32.7512H245.1V39.7276L249.046 32.7512H252V43.7308H249.046V37.211L245.1 43.7308H242.158ZM249.958 29.7664C249.588 32.6459 244.477 32.6342 244.108 29.7664H249.958ZM100.962 0L114.369 19.3605L119.838 11.4594L130.731 27.1796H82.1423L85.8346 21.8537L89.2615 16.9141C85.6038 14.8305 81.6923 13.1684 77.5846 12.0096V34.6358H193.604L189.669 38.4517H138.531L142.177 43.7074H70.7077L74.3423 38.4517H17.1231C16.1769 40.1841 15.3115 41.9165 14.55 43.9063H7.48846C8.03077 41.975 8.73462 40.1373 9.46154 38.4517H0V34.6358H11.3192C20.4692 17.71 39.3 6.06331 60.9808 6.06331C72.0462 6.06331 82.3731 9.10667 91.05 14.3272L100.973 0H100.962ZM75.3923 11.4477C71.6077 10.5581 67.6731 10.0899 63.6346 10.0899C61.5231 10.0899 59.4462 10.2187 57.3923 10.4645V34.6358H75.3808V11.4477H75.3923ZM55.2231 10.7805C48.6692 11.8691 42.4962 14.2102 36.9577 17.5461V34.6358H55.2231V10.7805ZM34.7769 18.9391C28.6846 23.0359 23.4346 28.3852 19.3731 34.6358H34.7769V18.9391ZM155.285 27.2147H151.223L148.754 21.6196H138.9L136.431 27.2147H132.369L143.815 2.36445L155.285 27.2147ZM147.358 18.4123L143.804 10.3006L140.319 18.4123H147.358ZM160.973 21.4791V27.2147H157.315V3.55839H164.158C166.535 3.55839 168.704 4.57674 170.273 6.20376C171.831 7.83079 172.788 10.0548 172.8 12.5129C172.8 14.971 171.831 17.2067 170.273 18.8337C168.704 20.4608 166.546 21.4791 164.169 21.4791H160.985H160.973ZM160.973 17.7802V17.8154H164.123C165.508 17.8154 166.765 17.2184 167.677 16.2703C168.6 15.3104 169.165 13.9878 169.165 12.5246C169.165 11.0615 168.6 9.73876 167.677 8.77893C166.765 7.83081 165.508 7.23383 164.123 7.23383H160.973V17.7802ZM193.488 27.2147H188.665L179.215 15.5446V27.2147H175.558V3.55839H179.215V14.0346L188.515 3.55839H193.165L182.85 14.7018L193.488 27.2147ZM208.246 6.82414H202.662V27.2147H199.038V6.82414H193.431V3.55839H208.246V6.82414ZM231.981 15.3807C231.981 18.7752 230.769 21.6781 228.346 24.1128C225.935 26.5358 223.015 27.7531 219.6 27.7531C216.185 27.7531 213.277 26.5475 210.865 24.1245C208.442 21.7015 207.231 18.7869 207.231 15.3807C207.231 11.9745 208.431 9.08325 210.854 6.66027C213.277 4.23728 216.185 3.01994 219.6 3.01994C223.015 3.01994 225.912 4.22558 228.346 6.64857C230.769 9.07155 231.981 11.9862 231.981 15.3807ZM228.3 15.3807C228.3 12.8992 227.458 10.7805 225.785 9.07156C224.112 7.35089 222.046 6.4964 219.6 6.4964C217.154 6.4964 215.123 7.35089 213.45 9.07156C211.777 10.7805 210.946 12.8992 210.946 15.3807C210.946 17.8622 211.777 19.9691 213.438 21.6781C215.1 23.3754 217.154 24.2298 219.6 24.2298C222.046 24.2298 224.1 23.3754 225.785 21.6781C227.458 19.9808 228.3 17.8739 228.3 15.3807Z" fill="white"/>
</svg>
