<svg width="334" height="156" viewBox="0 0 334 156" fill="none" xmlns="http://www.w3.org/2000/svg">
<g filter="url(#filter0_d_30_1865)">
<rect x="18" y="18" width="286" height="76" rx="24" fill="#661A21" shape-rendering="crispEdges"/>
<path fill-rule="evenodd" clip-rule="evenodd" d="M245 59.5714H242.562V52.0774H235.538V59.5714H233.1V43.4421H235.538V49.8508H242.562V43.4421H245V59.5714ZM233.246 63.1947C235.369 63.1947 237.1 64.9505 237.1 67.0974C237.1 69.2442 235.369 71 233.246 71C231.123 71 229.392 69.2442 229.392 67.0974C229.392 64.9505 231.123 63.1947 233.246 63.1947ZM233.246 64.8787C234.285 64.8787 235.138 65.8683 235.138 67.0894C235.138 68.3105 234.292 69.3001 233.246 69.3001C232.2 69.3001 231.354 68.3025 231.354 67.0894C231.354 65.8763 232.2 64.8787 233.246 64.8787ZM212.146 63.1548C212.754 63.1548 213.392 63.3464 213.923 63.6337V65.8603C213.408 65.2777 212.785 64.9505 212.238 64.9425C211.131 64.9266 210.362 65.9082 210.362 67.0814C210.362 68.2546 211.046 69.2362 212.238 69.2203C212.885 69.2203 213.523 68.7733 213.923 68.2945V70.5132C213.408 70.7845 212.808 70.9441 212.146 70.9441C210.038 71.1117 208.369 69.3081 208.392 67.0415C208.392 64.8069 210.077 63.0112 212.146 63.1389V63.1548ZM217.538 70.8244V65.1101H215.931V63.3384H221.123V65.1101H219.515V70.8244H217.546H217.538ZM227.085 68.079C226.685 68.2386 226.246 68.3184 225.8 68.3504C225.415 68.3823 225.015 68.3902 224.669 68.3424V70.8244H222.808V63.3384H225.377C226.169 63.3384 227.108 63.4661 227.638 64.1365C228.008 64.5994 228.208 65.2618 228.223 65.9242C228.246 66.8499 227.885 67.7598 227.077 68.087L227.085 68.079ZM224.669 66.7063C224.9 66.7063 225.092 66.7223 225.292 66.7063C225.831 66.6824 226.285 66.4749 226.308 65.8444C226.331 65.19 225.869 64.9984 225.338 64.9425C225.123 64.9186 224.9 64.9266 224.677 64.9266V66.6983L224.669 66.7063ZM238.438 70.8164V63.3304H240.4V68.087L243.031 63.3304H245V70.8164H243.031V66.3711L240.4 70.8164H238.438ZM243.638 61.2953C243.392 63.2586 239.985 63.2506 239.738 61.2953H243.638ZM144.308 41L153.246 54.2003L156.892 48.8132L164.154 59.5315H131.762L134.223 55.9002L136.508 52.5323C134.069 51.1117 131.462 49.9784 128.723 49.1883V64.6153H206.069L203.446 67.2171H169.354L171.785 70.8005H124.138L126.562 67.2171H88.4154C87.7846 68.3983 87.2077 69.5794 86.7 70.9361H81.9923C82.3538 69.6193 82.8231 68.3663 83.3077 67.2171H77V64.6153H84.5462C90.6462 53.075 103.2 45.1341 117.654 45.1341C125.031 45.1341 131.915 47.2091 137.7 50.7685L144.315 41H144.308ZM127.262 48.8053C124.738 48.1987 122.115 47.8795 119.423 47.8795C118.015 47.8795 116.631 47.9673 115.262 48.1349V64.6153H127.254V48.8053H127.262ZM113.815 48.3504C109.446 49.0926 105.331 50.6887 101.638 52.9633V64.6153H113.815V48.3504ZM100.185 53.913C96.1231 56.7063 92.6231 60.3535 89.9154 64.6153H100.185V53.913ZM180.523 59.5555H177.815L176.169 55.7406H169.6L167.954 59.5555H165.246L172.877 42.6121L180.523 59.5555ZM175.238 53.5539L172.869 48.0231L170.546 53.5539H175.238ZM184.315 55.6448V59.5555H181.877V43.4262H186.438C188.023 43.4262 189.469 44.1205 190.515 45.2298C191.554 46.3392 192.192 47.8555 192.2 49.5315C192.2 51.2075 191.554 52.7318 190.515 53.8412C189.469 54.9505 188.031 55.6448 186.446 55.6448H184.323H184.315ZM184.315 53.1229V53.1468H186.415C187.338 53.1468 188.177 52.7398 188.785 52.0934C189.4 51.4389 189.777 50.5371 189.777 49.5395C189.777 48.5419 189.4 47.6401 188.785 46.9856C188.177 46.3392 187.338 45.9322 186.415 45.9322H184.315V53.1229ZM205.992 59.5555H202.777L196.477 51.5986V59.5555H194.038V43.4262H196.477V50.569L202.677 43.4262H205.777L198.9 51.0239L205.992 59.5555ZM215.831 45.6528H212.108V59.5555H209.692V45.6528H205.954V43.4262H215.831V45.6528ZM231.654 51.4868C231.654 53.8013 230.846 55.7805 229.231 57.4405C227.623 59.0926 225.677 59.9226 223.4 59.9226C221.123 59.9226 219.185 59.1006 217.577 57.4485C215.962 55.7965 215.154 53.8093 215.154 51.4868C215.154 49.1644 215.954 47.1931 217.569 45.5411C219.185 43.8891 221.123 43.059 223.4 43.059C225.677 43.059 227.608 43.8811 229.231 45.5331C230.846 47.1852 231.654 49.1724 231.654 51.4868ZM229.2 51.4868C229.2 49.7949 228.638 48.3504 227.523 47.1852C226.408 46.012 225.031 45.4294 223.4 45.4294C221.769 45.4294 220.415 46.012 219.3 47.1852C218.185 48.3504 217.631 49.7949 217.631 51.4868C217.631 53.1788 218.185 54.6153 219.292 55.7805C220.4 56.9377 221.769 57.5203 223.4 57.5203C225.031 57.5203 226.4 56.9377 227.523 55.7805C228.638 54.6233 229.2 53.1868 229.2 51.4868Z" fill="white"/>
<path d="M164.124 124.196C162.735 126.601 159.265 126.601 157.876 124.196L135.489 85.4118C134.1 83.0065 135.836 80 138.612 80L183.388 80C186.164 80 187.9 83.0065 186.511 85.4118L164.124 124.196Z" fill="#661A21"/>
</g>
<defs>
<filter id="filter0_d_30_1865" x="0" y="0" width="334" height="156" filterUnits="userSpaceOnUse" color-interpolation-filters="sRGB">
<feFlood flood-opacity="0" result="BackgroundImageFix"/>
<feColorMatrix in="SourceAlpha" type="matrix" values="0 0 0 0 0 0 0 0 0 0 0 0 0 0 0 0 0 0 127 0" result="hardAlpha"/>
<feOffset dx="6" dy="6"/>
<feGaussianBlur stdDeviation="12"/>
<feComposite in2="hardAlpha" operator="out"/>
<feColorMatrix type="matrix" values="0 0 0 0 0.454167 0 0 0 0 0.454167 0 0 0 0 0.454167 0 0 0 0.25 0"/>
<feBlend mode="normal" in2="BackgroundImageFix" result="effect1_dropShadow_30_1865"/>
<feBlend mode="normal" in="SourceGraphic" in2="effect1_dropShadow_30_1865" result="shape"/>
</filter>
</defs>
</svg>
