<svg width="30" height="30" viewBox="0 0 30 30" fill="none" xmlns="http://www.w3.org/2000/svg">
<mask id="path-1-inside-1_215_253" fill="white">
<path d="M14.375 27.1875C7.3125 27.1875 1.5625 21.4375 1.5625 14.375C1.5625 7.3125 7.3125 1.5625 14.375 1.5625C21.4375 1.5625 27.1875 7.3125 27.1875 14.375C27.1875 21.4375 21.4375 27.1875 14.375 27.1875ZM14.375 3.4375C8.3375 3.4375 3.4375 8.35 3.4375 14.375C3.4375 20.4 8.3375 25.3125 14.375 25.3125C20.4125 25.3125 25.3125 20.4 25.3125 14.375C25.3125 8.35 20.4125 3.4375 14.375 3.4375Z"/>
</mask>
<path d="M14.375 27.1875C7.3125 27.1875 1.5625 21.4375 1.5625 14.375C1.5625 7.3125 7.3125 1.5625 14.375 1.5625C21.4375 1.5625 27.1875 7.3125 27.1875 14.375C27.1875 21.4375 21.4375 27.1875 14.375 27.1875ZM14.375 3.4375C8.3375 3.4375 3.4375 8.35 3.4375 14.375C3.4375 20.4 8.3375 25.3125 14.375 25.3125C20.4125 25.3125 25.3125 20.4 25.3125 14.375C25.3125 8.35 20.4125 3.4375 14.375 3.4375Z" fill="white"/>
<path d="M14.375 25.1875C8.41707 25.1875 3.5625 20.3329 3.5625 14.375H-0.4375C-0.4375 22.5421 6.20793 29.1875 14.375 29.1875V25.1875ZM3.5625 14.375C3.5625 8.41707 8.41707 3.5625 14.375 3.5625V-0.4375C6.20793 -0.4375 -0.4375 6.20793 -0.4375 14.375H3.5625ZM14.375 3.5625C20.3329 3.5625 25.1875 8.41707 25.1875 14.375H29.1875C29.1875 6.20793 22.5421 -0.4375 14.375 -0.4375V3.5625ZM25.1875 14.375C25.1875 20.3329 20.3329 25.1875 14.375 25.1875V29.1875C22.5421 29.1875 29.1875 22.5421 29.1875 14.375H25.1875ZM14.375 1.4375C7.23144 1.4375 1.4375 7.24692 1.4375 14.375H5.4375C5.4375 9.45308 9.44356 5.4375 14.375 5.4375V1.4375ZM1.4375 14.375C1.4375 21.5031 7.23144 27.3125 14.375 27.3125V23.3125C9.44356 23.3125 5.4375 19.2969 5.4375 14.375H1.4375ZM14.375 27.3125C21.5186 27.3125 27.3125 21.5031 27.3125 14.375H23.3125C23.3125 19.2969 19.3064 23.3125 14.375 23.3125V27.3125ZM27.3125 14.375C27.3125 7.24692 21.5186 1.4375 14.375 1.4375V5.4375C19.3064 5.4375 23.3125 9.45308 23.3125 14.375H27.3125Z" fill="white" mask="url(#path-1-inside-1_215_253)"/>
<path d="M27.4998 28.4375C27.2623 28.4375 27.0248 28.3501 26.8373 28.1626L24.3373 25.6626C23.9748 25.3001 23.9748 24.7 24.3373 24.3375C24.6998 23.975 25.2998 23.975 25.6623 24.3375L28.1623 26.8375C28.5248 27.2 28.5248 27.8001 28.1623 28.1626C27.9748 28.3501 27.7373 28.4375 27.4998 28.4375Z" fill="white"/>
</svg>
