<svg width="292" height="120" viewBox="0 0 292 120" fill="none" xmlns="http://www.w3.org/2000/svg">
<rect width="292" height="120" rx="24" fill="white"/>
<path fill-rule="evenodd" clip-rule="evenodd" d="M151.845 73.8152C152.625 73.678 153.406 73.4412 154.196 73.1124C155.433 72.5951 156.646 71.4935 157.82 69.8045C156.761 68.745 154.985 67.9426 152.866 67.6013L151.845 73.8152ZM158.936 67.8787C159.953 65.8188 160.759 63.3196 161.341 60.3887H154.049L153.137 65.9419C155.411 66.2411 157.426 66.9313 158.936 67.8787ZM150.592 67.419C150.695 67.419 150.806 67.4221 150.909 67.4253L149.838 73.9585C148.642 73.9358 147.465 73.658 146.386 73.1436C145.257 72.5951 144.428 71.3268 143.901 69.3371C145.41 68.1763 147.848 67.419 150.592 67.419ZM150.592 65.7783C150.79 65.7783 150.985 65.7814 151.18 65.7877L152.064 60.3887H143.943C143.47 63.0189 143.33 65.2891 143.517 67.1962C145.449 66.3112 147.913 65.7783 150.592 65.7783ZM152.491 57.7898L153.311 52.8007C150.938 52.6604 148.791 52.1026 147.089 51.2628C146.008 53.0687 145.143 55.2454 144.5 57.7898H152.491ZM153.579 51.1646L154.402 46.1506C153.339 46.2579 152.3 46.5269 151.319 46.9483C150.277 47.394 149.25 48.2759 148.23 49.5878C149.568 50.4494 151.455 51.0337 153.579 51.1646ZM156.387 46.1443L155.564 51.1537C157.826 50.9886 159.805 50.3092 161.116 49.3307C160.17 47.4376 158.591 46.3734 156.387 46.1443ZM155.29 52.8194L154.477 57.7913H161.772C162.095 55.2937 162.098 53.1372 161.778 51.322C160.006 52.1727 157.756 52.7212 155.29 52.8194ZM222.891 73.9647C224.221 73.9647 225.561 73.678 226.915 73.1124C228.268 72.5499 229.588 71.2863 230.865 69.3293C232.32 66.9469 233.411 63.8369 234.136 60.0023C234.846 56.2472 234.926 53.159 234.383 50.7315C233.481 47.6448 231.402 46.0976 228.165 46.0976C226.738 46.0976 225.363 46.3827 224.043 46.9468C222.719 47.5124 221.415 48.7729 220.141 50.7315C218.59 53.1154 217.452 56.2098 216.732 60.0023C216 63.8727 215.964 66.9827 216.62 69.3293C217.15 71.3221 217.979 72.592 219.108 73.142C220.236 73.6921 221.497 73.9647 222.891 73.9647ZM198.891 73.0236H208.15C207.049 69.4119 206.976 65.0709 207.936 60.0023C209.241 53.1154 211.994 47.5638 216.194 43.3397C218.126 41.3453 220.23 39.9601 222.501 39.1748C224.816 38.3837 227.248 37.987 229.694 38.0016C232.064 38.0016 234.21 38.3755 236.123 39.1156H264.144L266.798 67.98L280.477 39.1156H292L284.081 80.9451H275.963L281.861 50.557H281.715L267.067 80.9451H261.623L258.626 50.557H258.48L252.873 80.9451H244.512L250.935 47.0153L242.786 47.0294C243.112 48.131 243.349 49.3245 243.493 50.613C243.822 53.5096 243.666 56.6337 243.03 60.0008C242.38 63.4396 241.353 66.5917 239.953 69.4446C238.556 72.2991 236.835 74.7609 234.786 76.8364C231.124 80.2783 226.646 82 221.366 82C218.997 82 216.934 81.6712 215.175 81.0199H197.11V80.9436H192.495L184.058 60.2922H183.911L180.15 80.9436H171.934L178.336 47.1244L170.12 47.2335C170.415 48.2759 170.635 49.4024 170.772 50.6115C171.099 53.508 170.946 56.6321 170.309 59.9992C169.656 63.438 168.63 66.5901 167.23 69.443C165.833 72.2975 164.111 74.7594 162.065 76.8348C158.397 80.2767 153.922 81.9984 148.642 81.9984C146.183 81.9984 144.049 81.6447 142.246 80.942H100.334L106.706 47.2662H87.5073L81.1331 80.942H72.9173L72.9235 80.9062H66.1654L66.1592 80.942H57.9933L61.402 62.9316H48.7629L45.3542 80.942H37.0931L37.0978 80.9062H30.3412L30.335 80.942H22.0224L27.1869 53.6623L8.31418 80.9451H0L7.91775 39.1156H16.2304L11.1111 66.1601L29.9386 39.1156H38.2512L31.8536 72.9099H38.6117L45.0077 39.1156H53.2704L50.2831 54.8948H62.9206L65.9095 39.1156H74.0754L67.6778 72.9099H74.4359L80.8335 39.1156H135.713L134.169 47.2693H114.874L113.265 55.7767H130.18L128.76 63.2838H111.843L110.021 72.9068H135.39C134.324 69.3153 134.265 65.0164 135.215 60.0008C136.517 53.1138 139.27 47.5622 143.472 43.3381C145.405 41.3437 147.508 39.9586 149.78 39.1733C152.048 38.388 154.45 38 156.977 38C159.343 38 161.489 38.3739 163.399 39.1141H188.07L184.549 56.9484H184.696L200.077 39.1141H209.653L192.13 58.2385L198.891 73.0236Z" fill="#1F1A17"/>
</svg>
