<svg width="292" height="44" viewBox="0 0 292 44" fill="none" xmlns="http://www.w3.org/2000/svg">
<path fill-rule="evenodd" clip-rule="evenodd" d="M151.845 35.8152C152.625 35.678 153.406 35.4412 154.196 35.1124C155.433 34.5951 156.646 33.4935 157.82 31.8045C156.761 30.745 154.985 29.9426 152.866 29.6013L151.845 35.8152ZM158.936 29.8787C159.953 27.8188 160.759 25.3196 161.341 22.3887H154.049L153.137 27.9419C155.411 28.2411 157.426 28.9313 158.936 29.8787ZM150.592 29.419C150.695 29.419 150.806 29.4221 150.909 29.4253L149.838 35.9585C148.642 35.9358 147.465 35.658 146.386 35.1436C145.257 34.5951 144.428 33.3268 143.901 31.3371C145.41 30.1763 147.848 29.419 150.592 29.419ZM150.592 27.7783C150.79 27.7783 150.985 27.7814 151.18 27.7877L152.064 22.3887H143.943C143.47 25.0189 143.33 27.2891 143.517 29.1962C145.449 28.3112 147.913 27.7783 150.592 27.7783ZM152.491 19.7898L153.311 14.8007C150.938 14.6604 148.791 14.1026 147.089 13.2628C146.008 15.0687 145.143 17.2454 144.5 19.7898H152.491ZM153.579 13.1646L154.402 8.15057C153.339 8.2579 152.3 8.52694 151.319 8.94833C150.277 9.39395 149.25 10.2759 148.23 11.5878C149.568 12.4494 151.455 13.0337 153.579 13.1646ZM156.387 8.14434L155.564 13.1537C157.826 12.9886 159.805 12.3092 161.116 11.3307C160.17 9.43758 158.591 8.37338 156.387 8.14434ZM155.29 14.8194L154.477 19.7913H161.772C162.095 17.2937 162.098 15.1372 161.778 13.322C160.006 14.1727 157.756 14.7212 155.29 14.8194ZM222.891 35.9647C224.221 35.9647 225.561 35.678 226.915 35.1124C228.268 34.5499 229.588 33.2863 230.865 31.3293C232.32 28.9469 233.411 25.8369 234.136 22.0023C234.846 18.2472 234.926 15.159 234.383 12.7315C233.481 9.64481 231.402 8.09759 228.165 8.09759C226.738 8.09759 225.363 8.38273 224.043 8.94677C222.719 9.51237 221.415 10.7729 220.141 12.7315C218.59 15.1154 217.452 18.2098 216.732 22.0023C216 25.8727 215.964 28.9827 216.62 31.3293C217.15 33.3221 217.979 34.592 219.108 35.142C220.236 35.6921 221.497 35.9647 222.891 35.9647ZM198.891 35.0236H208.15C207.049 31.4119 206.976 27.0709 207.936 22.0023C209.241 15.1154 211.994 9.56379 216.194 5.3397C218.126 3.34529 220.23 1.96012 222.501 1.17483C224.816 0.383668 227.248 -0.0129576 229.694 0.00155727C232.064 0.00155727 234.21 0.375503 236.123 1.11561H264.144L266.798 29.98L280.477 1.11561H292L284.081 42.9451H275.963L281.861 12.557H281.715L267.067 42.9451H261.623L258.626 12.557H258.48L252.873 42.9451H244.512L250.935 9.01533L242.786 9.02935C243.112 10.131 243.349 11.3245 243.493 12.613C243.822 15.5096 243.666 18.6337 243.03 22.0008C242.38 25.4396 241.353 28.5917 239.953 31.4446C238.556 34.2991 236.835 36.7609 234.786 38.8364C231.124 42.2783 226.646 44 221.366 44C218.997 44 216.934 43.6712 215.175 43.0199H197.11V42.9436H192.495L184.058 22.2922H183.911L180.15 42.9436H171.934L178.336 9.1244L170.12 9.23346C170.415 10.2759 170.635 11.4024 170.772 12.6115C171.099 15.508 170.946 18.6321 170.309 21.9992C169.656 25.438 168.63 28.5901 167.23 31.443C165.833 34.2975 164.111 36.7594 162.065 38.8348C158.397 42.2767 153.922 43.9984 148.642 43.9984C146.183 43.9984 144.049 43.6447 142.246 42.942H100.334L106.706 9.26619H87.5073L81.1331 42.942H72.9173L72.9235 42.9062H66.1654L66.1592 42.942H57.9933L61.402 24.9316H48.7629L45.3542 42.942H37.0931L37.0978 42.9062H30.3412L30.335 42.942H22.0224L27.1869 15.6623L8.31418 42.9451H0L7.91775 1.11561H16.2304L11.1111 28.1601L29.9386 1.11561H38.2512L31.8536 34.9099H38.6117L45.0077 1.11561H53.2704L50.2831 16.8948H62.9206L65.9095 1.11561H74.0754L67.6778 34.9099H74.4359L80.8335 1.11561H135.713L134.169 9.26931H114.874L113.265 17.7767H130.18L128.76 25.2838H111.843L110.021 34.9068H135.39C134.324 31.3153 134.265 27.0164 135.215 22.0008C136.517 15.1138 139.27 9.56223 143.472 5.33814C145.405 3.34374 147.508 1.95857 149.78 1.17327C152.048 0.387972 154.45 0 156.977 0C159.343 0 161.489 0.373945 163.399 1.11406H188.07L184.549 18.9484H184.696L200.077 1.11406H209.653L192.13 20.2385L198.891 35.0236Z" fill="#1F1A17"/>
</svg>
