<svg width="146" height="42" viewBox="0 0 146 42" fill="none" xmlns="http://www.w3.org/2000/svg">
<g clip-path="url(#clip0_136_8569)">
<path d="M33.3327 3.33528C33.3327 6.10233 33.2585 6.67057 32.9617 6.67057C32.6896 6.67057 32.5907 6.20116 32.5412 4.42234L32.467 2.14939L31.5765 1.43292L30.686 0.716454L29.3998 1.48233C27.8414 2.44587 27.9157 2.79175 29.474 1.87763C30.0924 1.53175 30.6118 1.30939 30.6613 1.40822C30.7108 1.53175 30.7602 2.05057 30.7602 2.56939C30.7355 3.53292 30.7108 3.55763 29.5235 3.8541C28.8556 4.02704 28.2125 4.2741 28.0641 4.42234C27.6683 4.81763 28.1135 4.76822 29.375 4.32351C30.4634 3.92822 30.8592 4.00233 30.8592 4.57057C30.8592 4.79292 30.3397 5.01527 29.375 5.21292C28.5588 5.36116 27.8909 5.60822 27.8909 5.75645C27.8909 5.97881 29.0287 5.87998 30.315 5.5341C30.7355 5.41057 30.8592 5.48469 30.8592 5.87998C30.8592 6.29998 30.6118 6.42351 29.4492 6.62116C28.2125 6.84351 27.9651 6.81881 27.693 6.47292C27.0004 5.5588 19.3572 6.27528 15.2264 7.65881C3.18019 11.6859 -2.4595 21.3706 2.04236 30.2894C2.88336 31.92 4.96114 34.6129 5.18376 34.3412C5.23323 34.267 5.48059 32.7847 5.72794 31.0059C5.9753 29.227 6.24739 27.4235 6.32159 26.9541C6.47 26.04 6.56895 26.0647 4.29328 26.7317C3.47701 26.9788 3.3286 26.9788 3.10598 26.6082C2.9823 26.3612 2.78442 26.2376 2.63601 26.3117C2.51233 26.4106 2.41339 26.3117 2.41339 26.1388C2.41339 25.9412 2.95757 25.2741 3.60069 24.6317C4.61484 23.6188 4.91167 23.4706 5.80215 23.4706C6.64315 23.4706 6.84104 23.3717 6.96471 22.9023C7.28627 21.667 6.86577 21.42 5.50532 22.0376C4.98588 22.2847 4.78799 22.26 4.46643 21.9141C4.07066 21.5188 4.0954 21.42 5.01061 20.5059C5.75268 19.74 6.17318 19.5176 6.79157 19.5176C7.48416 19.5176 7.60784 19.4188 7.60784 18.9247C7.60784 17.64 7.90466 16.8 8.37463 16.8C8.72093 16.8 8.86934 17.0717 8.99302 18.0353C9.09196 18.7023 9.24038 19.2706 9.31458 19.2706C9.41352 19.2706 9.85876 18.8753 10.3287 18.4059C10.9471 17.7635 11.0708 17.5412 10.7492 17.5412C10.0814 17.5412 10.2545 17.1706 11.2192 16.4294C12.3323 15.5894 12.7528 14.6012 12.1839 14.1812C11.8376 13.9341 11.9118 13.7859 12.7281 13.1188C13.3465 12.6 13.8906 12.3529 14.2864 12.4023C14.8306 12.4765 14.9295 12.3529 15.1274 11.4141C15.3995 10.08 15.9932 10.1047 16.3642 11.4882C16.6115 12.3529 16.7352 12.4765 17.2794 12.4023C17.6257 12.3529 18.0462 12.5012 18.2441 12.6988C18.4172 12.9212 18.6893 13.0941 18.8872 13.0941C19.4561 13.0941 20.8166 12.1553 21.5339 11.2412C21.9049 10.7717 22.4244 10.3765 22.6965 10.3765C23.018 10.3765 23.1912 10.1788 23.2406 9.70939C23.3396 8.77057 23.859 8.72116 24.0569 9.65998C24.2301 10.4259 24.2301 10.4259 25.5163 10.2776C26.2089 10.2035 27.693 10.08 28.8309 10.0306C30.6366 9.93175 30.8592 9.95645 30.8592 10.3517C30.8592 10.7223 30.5871 10.8212 29.3256 10.9447C28.3609 11.0188 27.7178 10.9941 27.6188 10.8212C27.5199 10.6482 27.0994 10.6235 26.5305 10.7223C25.0463 11.0188 25.8626 11.4141 27.9404 11.4388C28.9298 11.4388 29.9934 11.3647 30.315 11.2659C30.8344 11.0929 30.8839 11.1423 30.8097 11.6612C30.7355 12.18 30.5871 12.2294 29.2761 12.3035C28.4846 12.3529 27.693 12.2541 27.5694 12.1306C27.2725 11.8341 26.1842 11.7847 25.5658 12.007C25.2195 12.1306 25.269 12.2541 25.7884 12.7482C26.4563 13.3659 27.1241 13.5141 27.5199 13.1188C27.6683 12.9953 28.4846 12.847 29.375 12.7976C30.686 12.7482 30.9828 12.7976 30.9828 13.0941C30.9828 13.3659 30.4881 13.5141 28.9545 13.687C27.8167 13.8106 26.9015 13.9835 26.9015 14.0823C26.9015 14.1565 27.8662 14.1812 29.0287 14.1317C31.0076 14.0329 31.156 14.0576 31.0571 14.4776C30.9828 14.8729 30.7108 14.9717 29.5482 15.0212C28.7814 15.0706 27.7672 14.9965 27.322 14.8729C26.6294 14.6753 26.4068 14.7247 25.7389 15.2929C25.0463 15.8612 24.9721 16.0341 25.1453 16.8C25.2442 17.2694 25.4668 17.64 25.6153 17.6153C27.0746 17.2941 29.5235 17.0223 29.8945 17.1212C30.1418 17.1953 30.785 17.1459 31.2797 17.0223C31.9723 16.8741 32.3186 16.8988 32.5412 17.1459C32.8133 17.4176 32.5412 17.5659 30.9086 18.0106C27.0252 19.0482 24.0817 20.5306 23.3396 21.7659C22.4491 23.2482 22.9438 23.8906 27.0252 26.6329C33.0359 30.6847 36.2515 33.6988 37.884 36.787C38.3787 37.7259 38.7745 38.6647 38.7745 38.887C38.7745 39.4059 38.824 39.4059 40.3329 38.64C44.8842 36.3176 48.1987 32.8588 49.856 28.6588C50.4002 27.2753 50.4991 26.6576 50.4991 24.2117C50.5239 20.8765 50.0292 19.0482 48.3719 16.5282C46.7146 13.9341 42.0643 9.7588 41.7922 10.5741C41.7428 10.7717 41.1244 10.8706 40.1102 10.8706C38.7003 10.8706 38.5272 10.8212 38.5272 10.3765C38.5272 9.7588 38.1067 9.70939 37.983 10.3023C37.8593 10.9447 38.8487 11.3647 40.4071 11.3647C41.4212 11.3647 41.7428 11.4635 41.7428 11.7353C41.7428 12.0317 41.3965 12.1059 40.135 12.1059C38.8735 12.1059 38.5272 12.0317 38.5272 11.7353C38.5272 11.5376 38.4282 11.3647 38.2798 11.3647C37.9335 11.3647 37.9582 11.6859 38.3293 12.0565C38.5766 12.3035 38.5766 12.427 38.2798 12.6C37.983 12.7976 37.9582 12.9212 38.2303 13.3412C38.3787 13.6129 38.5272 14.3788 38.5272 15.0459V16.2565L37.6367 15.9847C36.9194 15.7623 36.7957 15.6141 36.8946 15.2188C36.9688 14.9223 37.043 12.9459 37.043 10.7965C37.043 7.80704 37.1172 6.91763 37.3646 6.91763C37.5872 6.91763 37.6614 7.36234 37.6614 8.52351C37.6367 9.56116 37.7109 10.0059 37.8346 9.7588C37.9582 9.56116 37.983 9.26469 37.9088 9.14116C37.8346 8.99292 37.8593 8.8941 37.9582 8.8941C38.0819 8.8941 38.3045 9.11645 38.4777 9.38822C38.725 9.78351 39.0466 9.88233 40.135 9.88233C41.9407 9.88233 41.8912 9.43763 40.0855 9.3388C38.9971 9.28939 38.6508 9.16586 38.6508 8.8941C38.6508 8.59763 38.9724 8.52351 40.135 8.52351H41.6191V7.28822V6.07763L40.2834 5.75645C38.9971 5.41057 38.9229 5.43528 38.0077 6.02822C37.4883 6.3741 37.0183 6.57175 36.9441 6.47292C36.8946 6.3741 36.8699 4.86704 36.8699 3.13763L36.9194 -1.90735e-05H35.1384H33.3327V3.33528ZM34.6932 0.938805C34.7179 1.25998 34.5695 1.60587 34.3469 1.72939C33.9758 1.95175 33.9758 1.95175 34.3469 1.97645C34.6684 1.97645 34.7426 2.29763 34.7179 3.8294C34.7179 5.5341 34.6684 5.68233 34.1985 5.68233C33.7038 5.68233 33.679 5.5588 33.679 2.96469C33.679 0.370571 33.7038 0.222336 34.1737 0.296452C34.4706 0.345863 34.6684 0.568218 34.6932 0.938805ZM36.301 1.72939C36.301 3.13763 36.2762 3.21175 35.7073 3.21175C35.1384 3.21175 35.1137 3.13763 35.1879 1.7788C35.2868 0.0741005 35.2126 0.24704 35.8063 0.24704C36.2515 0.24704 36.301 0.419983 36.301 1.72939ZM36.301 4.57057C36.301 5.58351 36.2515 5.68233 35.7073 5.68233C35.1879 5.68233 35.1384 5.58351 35.2126 4.61998C35.2373 4.05175 35.2868 3.55763 35.2868 3.50822C35.3116 3.48351 35.5342 3.45881 35.8063 3.45881C36.2268 3.45881 36.301 3.63175 36.301 4.57057ZM34.6932 6.29998C34.6932 6.42351 34.4458 6.57175 34.149 6.62116C33.7532 6.67057 33.5801 6.57175 33.5801 6.29998C33.5801 6.02822 33.7532 5.92939 34.149 5.97881C34.4458 6.02822 34.6932 6.15174 34.6932 6.29998ZM36.301 6.29998C36.301 6.69527 35.4352 6.81881 35.2126 6.44822C35.0147 6.15174 35.3116 5.92939 35.8557 5.92939C36.1031 5.92939 36.301 6.10233 36.301 6.29998ZM38.725 7.28822C38.725 8.07881 38.6261 8.39998 38.3787 8.39998C38.1809 8.39998 38.0077 8.17763 38.0077 7.90586C37.983 7.6341 37.9582 7.26351 37.9335 7.09057C37.8593 6.74469 38.2551 6.17645 38.5272 6.17645C38.6508 6.17645 38.725 6.67057 38.725 7.28822ZM30.8592 7.28822C30.8592 7.73292 30.6613 7.80704 28.9298 8.02939C27.7425 8.15292 27.6188 8.12822 27.693 7.73292C27.8167 7.01645 30.8592 6.59645 30.8592 7.28822ZM34.8168 7.16469C34.8168 7.28822 34.6932 7.41175 34.52 7.41175C34.2974 7.41175 34.2974 7.48586 34.52 7.70822C34.9653 8.15292 34.8663 8.39998 34.2479 8.39998C33.7532 8.39998 33.6543 8.27645 33.6543 7.65881C33.6543 7.04116 33.7532 6.91763 34.2479 6.91763C34.5695 6.91763 34.8168 7.01645 34.8168 7.16469ZM36.2515 7.2141C36.1773 7.38704 35.9299 7.53528 35.6826 7.53528C35.4352 7.53528 35.1879 7.38704 35.1384 7.2141C35.0642 7.04116 35.2621 6.91763 35.6826 6.91763C36.1031 6.91763 36.301 7.04116 36.2515 7.2141ZM36.301 8.15292C36.301 8.27645 36.0289 8.39998 35.6826 8.39998C35.3363 8.39998 35.0642 8.27645 35.0642 8.15292C35.0642 8.00469 35.3363 7.90586 35.6826 7.90586C36.0289 7.90586 36.301 8.00469 36.301 8.15292ZM30.785 8.99292C30.5623 9.53645 27.6436 9.56116 27.6436 9.04233C27.6436 8.81998 28.1383 8.62234 29.0782 8.4741C30.5623 8.22704 31.0076 8.37528 30.785 8.99292ZM34.7179 8.9188C34.7921 9.06704 34.7179 9.28939 34.5448 9.41292C34.2974 9.56116 34.2727 9.63527 34.52 9.63527C34.6684 9.63527 34.8168 9.7341 34.8168 9.88233C34.8168 10.0059 34.5448 10.1294 34.2232 10.1294C33.7038 10.1294 33.6295 10.0306 33.679 9.43763C33.8027 8.59763 33.7532 8.64704 34.1737 8.64704C34.3716 8.64704 34.619 8.77057 34.7179 8.9188ZM36.301 9.01763C36.301 9.23998 36.0784 9.38822 35.6826 9.38822C35.0889 9.38822 34.8911 9.14116 35.2373 8.81998C35.5342 8.49881 36.301 8.64704 36.301 9.01763ZM36.301 9.88233C36.301 10.0059 36.0289 10.1294 35.6826 10.1294C35.3363 10.1294 35.0642 10.0059 35.0642 9.88233C35.0642 9.7341 35.3363 9.63527 35.6826 9.63527C36.0289 9.63527 36.301 9.7341 36.301 9.88233ZM34.7179 12.4765C34.7179 14.2306 34.6932 14.3294 34.1737 14.3294C33.679 14.3294 33.6295 14.2306 33.6543 12.4765C33.6543 10.747 33.679 10.6235 34.1985 10.6235C34.6932 10.6235 34.7179 10.747 34.7179 12.4765ZM36.2268 12.4765C36.2515 14.2059 36.202 14.3294 35.7073 14.3294C35.2126 14.3294 35.1879 14.2059 35.1879 12.4765C35.1879 10.747 35.2373 10.6235 35.7073 10.6235C36.1773 10.6235 36.2268 10.7717 36.2268 12.4765ZM41.9407 13.1435C42.0149 13.5388 41.817 13.5882 40.2834 13.5882C38.6756 13.5882 38.5272 13.5388 38.5272 13.0941C38.5272 12.6247 38.6508 12.5753 40.1844 12.6494C41.5449 12.6988 41.8665 12.7976 41.9407 13.1435ZM34.7674 14.8729C34.6932 15.0459 34.4458 15.1941 34.1985 15.1941C33.9511 15.1941 33.7038 15.0459 33.6543 14.8729C33.5801 14.7 33.778 14.5765 34.1985 14.5765C34.619 14.5765 34.8168 14.7 34.7674 14.8729ZM36.301 14.9717C36.301 15.2188 36.1278 15.3176 35.7568 15.2682C34.9653 15.1447 34.8911 14.5765 35.6579 14.5765C36.0784 14.5765 36.301 14.7 36.301 14.9717Z" fill="#1F1A17"/>
<path d="M21.3609 12.3283C20.8414 12.7483 20.223 13.1436 19.9509 13.2177C19.7036 13.3165 19.481 13.4895 19.481 13.613C19.481 14.0577 20.223 13.8107 21.0393 13.0942C21.5093 12.6742 22.1524 12.353 22.4492 12.353C22.746 12.353 22.9439 12.2295 22.8945 12.0565C22.6966 11.513 22.3008 11.5871 21.3609 12.3283Z" fill="#1F1A17"/>
<path d="M24.4277 11.8588C24.4277 11.9823 24.5514 12.1058 24.6751 12.1058C24.8235 12.1058 24.9224 11.9823 24.9224 11.8588C24.9224 11.7105 24.8235 11.6117 24.6751 11.6117C24.5514 11.6117 24.4277 11.7105 24.4277 11.8588Z" fill="#1F1A17"/>
<path d="M13.9153 13.3412C13.9895 13.4647 14.1626 13.5883 14.311 13.5883C14.4347 13.5883 14.5336 13.4647 14.5336 13.3412C14.5336 13.193 14.3605 13.0941 14.1379 13.0941C13.94 13.0941 13.8411 13.193 13.9153 13.3412Z" fill="#1F1A17"/>
<path d="M16.7598 13.3412C16.7598 13.4647 16.9082 13.5883 17.1061 13.5883C17.3039 13.5883 17.5513 13.4647 17.6255 13.3412C17.6997 13.193 17.5513 13.0941 17.2792 13.0941C16.9824 13.0941 16.7598 13.193 16.7598 13.3412Z" fill="#1F1A17"/>
<path d="M24.6753 13.3412C24.6753 13.4647 24.7742 13.5883 24.8979 13.5883C25.0463 13.5883 25.2195 13.4647 25.2937 13.3412C25.3679 13.193 25.2689 13.0941 25.0711 13.0941C24.8484 13.0941 24.6753 13.193 24.6753 13.3412Z" fill="#1F1A17"/>
<path d="M17.1061 14.2307C16.933 14.3048 16.8587 14.5766 16.933 14.8236C17.1803 15.7871 18.7386 15.3424 18.7386 14.3048C18.7386 14.0824 17.6008 14.033 17.1061 14.2307Z" fill="#1F1A17"/>
<path d="M19.8272 14.3295C19.3077 14.5271 18.8625 15.2683 19.1098 15.5153C19.184 15.5894 19.6045 15.3177 20.0498 14.873C20.8413 14.0824 20.7918 13.9342 19.8272 14.3295Z" fill="#1F1A17"/>
<path d="M24.9229 14.7C24.9229 14.8976 25.0218 15.0706 25.1455 15.0706C25.2691 15.0706 25.4918 14.8976 25.6649 14.7C25.9123 14.3788 25.8875 14.3294 25.4423 14.3294C25.1455 14.3294 24.9229 14.4776 24.9229 14.7Z" fill="#1F1A17"/>
<path d="M13.3714 14.8235C12.5551 15.1447 12.6788 15.3176 13.6682 15.3176C14.2619 15.3176 14.5339 15.1941 14.5339 14.947C14.5339 14.527 14.1877 14.5023 13.3714 14.8235Z" fill="#1F1A17"/>
<path d="M15.6719 14.947C15.5977 15.1694 15.6719 15.3176 15.8945 15.3176C16.0924 15.3176 16.2655 15.1447 16.2655 14.947C16.2655 14.7494 16.1666 14.5765 16.0429 14.5765C15.9192 14.5765 15.7708 14.7494 15.6719 14.947Z" fill="#1F1A17"/>
<path d="M20.3467 15.2436L19.6294 15.8859L20.4457 16.5777C21.1135 17.1212 21.3856 17.2201 21.7566 17.0224C22.004 16.8989 22.2019 16.5283 22.2019 16.2318C22.2019 15.9354 22.2761 15.4412 22.3503 15.1201C22.4987 14.6506 22.4245 14.5765 21.8061 14.5765C21.3856 14.5765 20.7672 14.873 20.3467 15.2436Z" fill="#1F1A17"/>
<path d="M23.6611 14.9718C23.4137 15.293 23.4137 15.3918 23.6858 15.5647C24.1805 15.8612 24.4031 15.6635 24.2547 15.0706C24.1063 14.4777 24.0816 14.4777 23.6611 14.9718Z" fill="#1F1A17"/>
<path d="M12.6784 16.0588C12.6042 16.1824 12.7032 16.3059 12.9011 16.3059C13.1237 16.3059 13.2968 16.1824 13.2968 16.0588C13.2968 15.9106 13.1979 15.8118 13.0742 15.8118C12.9258 15.8118 12.7527 15.9106 12.6784 16.0588Z" fill="#1F1A17"/>
<path d="M22.9438 16.0588C22.9438 16.1824 23.0675 16.3059 23.1912 16.3059C23.3396 16.3059 23.4386 16.1824 23.4386 16.0588C23.4386 15.9106 23.3396 15.8118 23.1912 15.8118C23.0675 15.8118 22.9438 15.9106 22.9438 16.0588Z" fill="#1F1A17"/>
<path d="M13.4208 16.553C13.3466 16.6765 13.495 16.8 13.7918 16.8C14.0886 16.8 14.237 16.6765 14.1628 16.553C14.0886 16.4048 13.9155 16.3059 13.7918 16.3059C13.6681 16.3059 13.495 16.4048 13.4208 16.553Z" fill="#1F1A17"/>
<path d="M15.2759 16.553C15.2759 16.6765 15.3996 16.8 15.5232 16.8C15.6716 16.8 15.7706 16.6765 15.7706 16.553C15.7706 16.4048 15.6716 16.3059 15.5232 16.3059C15.3996 16.3059 15.2759 16.4048 15.2759 16.553Z" fill="#1F1A17"/>
<path d="M18.9863 16.553C18.9863 16.6765 19.1595 16.8 19.3821 16.8C19.58 16.8 19.6789 16.6765 19.6047 16.553C19.5305 16.4048 19.3574 16.3059 19.2089 16.3059C19.0853 16.3059 18.9863 16.4048 18.9863 16.553Z" fill="#1F1A17"/>
<path d="M23.3889 16.7753C22.9931 16.9976 22.6963 17.3188 22.6963 17.5164C22.6963 17.7635 22.8942 17.6894 23.3889 17.2694C23.7599 16.9482 24.1062 16.6517 24.1557 16.6023C24.2052 16.5776 24.2052 16.5035 24.1557 16.4788C24.1062 16.4294 23.7599 16.5529 23.3889 16.7753Z" fill="#1F1A17"/>
<path d="M23.8097 17.5412C23.3644 18.0353 23.5376 18.1588 24.2797 17.887C24.7002 17.7388 24.8486 17.047 24.4775 17.047C24.3539 17.047 24.057 17.2694 23.8097 17.5412Z" fill="#1F1A17"/>
<path d="M15.3502 17.4671C14.9791 17.5413 14.7812 17.7636 14.7812 18.0601C14.7812 18.5295 14.806 18.5295 15.3996 18.1095C15.7212 17.8624 16.018 17.5907 16.018 17.4671C16.018 17.3683 15.9933 17.3189 15.9686 17.3189C15.9191 17.3436 15.647 17.4177 15.3502 17.4671Z" fill="#1F1A17"/>
<path d="M12.5551 17.7635C11.7883 17.887 11.6893 18.0105 11.4914 19.0235C11.2935 20.0364 11.3183 20.1599 11.9367 20.6788C12.8766 21.4941 13.4208 21.1235 13.6434 19.5176C13.7424 18.8258 13.866 18.1094 13.9402 17.9117C14.0887 17.5164 13.9897 17.5164 12.5551 17.7635Z" fill="#1F1A17"/>
<path d="M17.6504 17.7389C17.502 17.986 17.9967 20.2589 18.1946 20.2589C18.813 20.2095 20.1487 18.0601 19.7776 17.6895C19.5798 17.4671 17.7988 17.5166 17.6504 17.7389Z" fill="#1F1A17"/>
<path d="M20.9402 17.9118C20.3465 18.2329 19.8271 18.9741 20.0497 19.1718C20.0991 19.2212 20.5444 19.0729 21.0391 18.8506C21.608 18.5788 21.9543 18.2576 21.9543 17.9859C21.9543 17.467 21.8059 17.4423 20.9402 17.9118Z" fill="#1F1A17"/>
<path d="M15.7952 18.4553C15.1026 18.9247 15.0284 19.0482 15.3994 19.1717C15.6467 19.2706 15.993 19.147 16.3146 18.8259C17.0814 18.06 16.7351 17.8129 15.7952 18.4553Z" fill="#1F1A17"/>
<path d="M10.4524 19.0235C10.0814 19.4435 10.0567 19.5176 10.3782 19.5176C10.6009 19.5176 10.8482 19.3446 10.9224 19.1223C11.1698 18.5046 10.9472 18.4552 10.4524 19.0235Z" fill="#1F1A17"/>
<path d="M16.5372 19.3694C16.3146 19.6165 16.3394 19.74 16.6362 19.8635C16.8835 19.9623 17.0072 19.8388 17.0072 19.5176C17.0072 18.9247 16.9083 18.9 16.5372 19.3694Z" fill="#1F1A17"/>
<path d="M14.4598 19.6906C14.3608 19.7647 14.2866 20.0118 14.2866 20.2094C14.2866 20.5059 14.3608 20.5059 14.6577 20.2588C14.8555 20.0859 15.0287 19.8635 15.0287 19.74C15.0287 19.4682 14.6824 19.4435 14.4598 19.6906Z" fill="#1F1A17"/>
<path d="M15.0039 20.6541C14.5092 21.0247 14.0887 21.5682 14.0145 21.9882C13.9156 22.4082 13.8908 22.7294 13.965 22.7294C14.1382 22.7294 16.7354 20.8764 16.7601 20.7529C16.7601 20.6788 16.5622 20.5058 16.2902 20.3329C15.8944 20.0858 15.6718 20.1353 15.0039 20.6541Z" fill="#1F1A17"/>
<path d="M9.90819 20.4318C9.53716 20.58 9.48769 21.2471 9.83399 21.2471C9.9824 21.2471 10.0813 21.0988 10.0813 20.9012C10.0813 20.7035 10.2298 20.4812 10.4029 20.4318C10.5513 20.3577 10.6008 20.3082 10.4524 20.3082C10.3287 20.3082 10.0566 20.3577 9.90819 20.4318Z" fill="#1F1A17"/>
<path d="M20.965 20.6295C20.7919 20.8519 20.6929 21.0742 20.7671 21.1236C20.8413 21.1977 21.0392 21.0989 21.2124 20.8766C21.3855 20.6542 21.4844 20.4319 21.4102 20.3824C21.336 20.3083 21.1381 20.4071 20.965 20.6295Z" fill="#1F1A17"/>
<path d="M6.54415 20.6788C6.24732 20.9753 6.371 21.2223 6.74203 21.0988C6.93992 21 7.11306 20.8517 7.11306 20.7282C7.11306 20.4564 6.76677 20.4317 6.54415 20.6788Z" fill="#1F1A17"/>
<path d="M5.25794 21C5.18389 21.1235 5.23325 21.2471 5.35667 21.2471C5.50477 21.2471 5.62819 21.1235 5.62819 21C5.62819 20.8518 5.57882 20.753 5.52945 20.753C5.4554 20.753 5.33199 20.8518 5.25794 21Z" fill="#1F1A17"/>
<path d="M8.10254 21C8.10254 21.1235 8.22622 21.2471 8.34989 21.2471C8.49831 21.2471 8.59725 21.1235 8.59725 21C8.59725 20.8518 8.49831 20.753 8.34989 20.753C8.22622 20.753 8.10254 20.8518 8.10254 21Z" fill="#1F1A17"/>
<path d="M10.9469 21C11.021 21.1235 11.1444 21.2471 11.2184 21.2471C11.2678 21.2471 11.3172 21.1235 11.3172 21C11.3172 20.8518 11.1937 20.753 11.0456 20.753C10.9222 20.753 10.8729 20.8518 10.9469 21Z" fill="#1F1A17"/>
<path d="M15.1521 22.6306C13.5442 23.8659 12.8022 24.2365 12.8022 23.767C12.8022 23.6682 12.9011 23.1741 13.0248 22.6553C13.2227 21.8647 13.1732 21.7412 12.8269 21.7412C12.6043 21.7412 12.2827 21.8647 12.1343 22.0129C11.9364 22.2106 11.8128 22.2106 11.7138 22.0129C11.417 21.5682 10.3781 21.6918 10.0813 22.2106C9.58657 23.1741 9.75972 23.4706 10.8481 23.4706C11.7138 23.4706 12.0106 23.6435 13.1485 24.7059L14.4595 25.9412L15.4736 25.2C16.3641 24.5576 16.4878 24.36 16.3641 23.7423C16.2651 23.3223 16.3888 22.7294 16.6362 22.2353C16.8588 21.8153 17.0072 21.42 16.9577 21.3953C16.9083 21.3459 16.1167 21.9141 15.1521 22.6306Z" fill="#1F1A17"/>
<path d="M19.8769 21.8894C19.7779 22.1117 19.7779 22.3588 19.8274 22.4082C20.0253 22.6059 20.4705 22.2106 20.4705 21.84C20.4705 21.3706 20.0748 21.3953 19.8769 21.8894Z" fill="#1F1A17"/>
<path d="M8.25091 22.8777C8.15197 23.1 8.15197 23.3471 8.20144 23.3965C8.39932 23.5941 8.84456 23.1988 8.84456 22.8283C8.84456 22.3588 8.4488 22.3836 8.25091 22.8777Z" fill="#1F1A17"/>
<path d="M19.5799 23.3717C19.6541 23.594 19.7283 23.8658 19.7283 23.9893C19.7283 24.1128 19.9015 24.2117 20.1241 24.2117C20.3962 24.2117 20.4704 24.0881 20.3715 23.8164C20.2973 23.594 20.2231 23.3223 20.2231 23.1987C20.2231 23.0752 20.0499 22.9764 19.8273 22.9764C19.5552 22.9764 19.481 23.0999 19.5799 23.3717Z" fill="#1F1A17"/>
<path d="M5.20859 24.1376C4.83756 24.2611 4.76335 24.9529 5.10965 24.9529C5.30753 24.9529 5.72804 24.2117 5.57962 24.0882C5.53015 24.0635 5.357 24.0882 5.20859 24.1376Z" fill="#1F1A17"/>
<path d="M8.72083 24.4589C8.79488 24.5824 8.91829 24.7059 8.99234 24.7059C9.04171 24.7059 9.09108 24.5824 9.09108 24.4589C9.09108 24.3106 8.96766 24.2118 8.81956 24.2118C8.69614 24.2118 8.64678 24.3106 8.72083 24.4589Z" fill="#1F1A17"/>
<path d="M10.8232 24.3106C10.8232 24.36 10.9964 24.5329 11.1943 24.7059C11.4911 24.9529 11.5653 24.9529 11.5653 24.6071C11.5653 24.3847 11.3922 24.2118 11.1943 24.2118C10.9964 24.2118 10.8232 24.2612 10.8232 24.3106Z" fill="#1F1A17"/>
<path d="M5.75268 24.9529C5.13429 25.62 5.50532 25.9164 6.14844 25.2741C6.44527 25.0023 6.56895 24.7059 6.42053 24.607C6.29686 24.5329 6.00003 24.6812 5.75268 24.9529Z" fill="#1F1A17"/>
<path d="M10.1803 24.78C10.0072 25.2741 10.2545 25.6941 10.7245 25.6941C11.1698 25.6941 11.145 25.447 10.6998 24.8541C10.3782 24.4341 10.3288 24.4341 10.1803 24.78Z" fill="#1F1A17"/>
<path d="M7.90441 25.0023C7.45917 25.447 7.53338 25.6941 8.1023 25.6941C8.62174 25.6941 8.72068 25.5212 8.39912 25.027C8.25071 24.78 8.12703 24.78 7.90441 25.0023Z" fill="#1F1A17"/>
<path d="M12.0601 25.2C12.0601 25.5459 12.2332 25.6941 12.6042 25.6941C13.0989 25.6941 13.1237 25.6694 12.6784 25.2C12.4311 24.9282 12.1837 24.7059 12.1343 24.7059C12.1095 24.7059 12.0601 24.9282 12.0601 25.2Z" fill="#1F1A17"/>
<path d="M20.1486 24.8541C20.0002 25.0024 20.9401 26.4353 21.1875 26.4353C21.2617 26.4353 21.4843 26.3365 21.6575 26.2129C21.9296 26.0647 21.8554 25.8671 21.3359 25.3482C20.6928 24.7059 20.4207 24.5824 20.1486 24.8541Z" fill="#1F1A17"/>
<path d="M3.87275 25.3482C3.57592 25.6941 3.60066 25.7435 3.99643 25.6694C4.26852 25.6199 4.51587 25.4223 4.59008 25.2494C4.71375 24.8294 4.26852 24.8788 3.87275 25.3482Z" fill="#1F1A17"/>
<path d="M15.6471 25.7682C15.0287 26.2129 14.4598 26.4352 14.1135 26.3611C13.7425 26.287 13.5446 26.3858 13.5446 26.5834C13.5446 27.0282 12.9015 27.0282 12.7283 26.6082C12.6541 26.4105 12.2336 26.3364 11.4668 26.3858C10.1311 26.5093 10.1558 26.114 10.9226 30.8823C11.2442 32.8587 11.4173 34.5634 11.3184 34.687C10.9721 35.0329 10.6011 34.6129 10.4527 33.6493C10.3537 33.1552 10.23 32.4387 10.1558 32.0434L10.0322 31.3517L8.54804 32.6611C7.73177 33.3776 6.76708 34.2176 6.39605 34.5387L5.75293 35.0823L6.61867 35.8482C8.69645 37.6764 11.3679 39.1093 15.0287 40.3693L17.6012 41.2834L19.6543 39.1834C22.4741 36.3176 23.1667 34.687 22.3504 32.7846C22.1773 32.3399 21.1879 31.0799 20.1984 29.9434C19.1843 28.807 17.9722 27.2505 17.5023 26.4599L16.6365 25.0517L15.6471 25.7682Z" fill="#1F1A17"/>
<path d="M7.31116 26.9047C6.94013 27.9177 7.21222 27.9671 8.07796 27.0777L8.89423 26.2377L8.22638 26.2624C7.7564 26.3118 7.48431 26.4847 7.31116 26.9047Z" fill="#1F1A17"/>
<path d="M21.8555 26.88C21.7813 27.0035 22.0534 27.3988 22.4491 27.7941C22.9933 28.3129 23.3149 28.4365 23.7848 28.3129C24.6258 28.1153 24.6011 27.9176 23.6117 27.2259C22.7707 26.6576 22.0781 26.5341 21.8555 26.88Z" fill="#1F1A17"/>
<path d="M8.42418 27.6706C7.97894 28.0659 7.60791 28.4364 7.60791 28.5106C7.60791 28.6588 9.63622 29.9435 9.71042 29.8447C9.85884 29.6964 9.53728 26.9294 9.36413 26.9294C9.28992 26.9294 8.84468 27.2753 8.42418 27.6706Z" fill="#1F1A17"/>
<path d="M24.4777 28.9305C23.9088 29.1529 23.9088 29.1776 25.0961 30.5117C26.0113 31.5494 26.407 31.8211 26.7781 31.7223C27.7922 31.4258 27.7427 31.1294 26.5307 29.8941C25.8629 29.2023 25.2445 28.6588 25.1703 28.6835C25.0961 28.6835 24.7992 28.7823 24.4777 28.9305Z" fill="#1F1A17"/>
<path d="M6.5936 31.4258C6.37098 32.6858 6.19784 33.7482 6.22257 33.7729C6.24731 33.7976 7.03884 33.1305 7.97879 32.2658L9.68554 30.7094L8.96821 30.2647C7.55829 29.4 7.13778 29.1529 7.03884 29.1529C7.01411 29.1529 6.79149 30.1905 6.5936 31.4258Z" fill="#1F1A17"/>
<path d="M27.5695 32.513L26.877 32.8836L27.3964 33.7977C27.6685 34.2918 28.0643 35.2059 28.2374 35.8236C28.559 36.9106 28.6084 36.9353 29.4989 36.8859C30.0184 36.8365 30.4883 36.7624 30.5378 36.713C30.7109 36.54 29.3752 33.4765 28.8063 32.8095C28.2869 32.1671 28.2374 32.1671 27.5695 32.513Z" fill="#1F1A17"/>
<path d="M29.5233 38.0224C28.9296 38.1459 28.7565 38.3435 28.5091 39.3318C28.3607 39.9494 28.0391 40.7647 27.8165 41.1106C27.2476 41.9753 27.2724 42 28.336 42C30.0675 42 30.3148 41.8271 30.6116 40.3694C30.9085 38.9118 30.8837 37.9976 30.488 37.9235C30.3643 37.8741 29.919 37.9235 29.5233 38.0224Z" fill="#1F1A17"/>
<path d="M62.287 4.002V4.877H60.187V9H59.13V4.002H62.287ZM66.2296 7.082C66.2296 7.39933 66.1853 7.68167 66.0966 7.929C66.0126 8.17633 65.889 8.38633 65.7256 8.559C65.567 8.727 65.3733 8.85533 65.1446 8.944C64.916 9.028 64.657 9.07 64.3676 9.07C64.1016 9.07 63.8543 9.028 63.6256 8.944C63.4016 8.85533 63.208 8.727 63.0446 8.559C62.8813 8.38633 62.753 8.17633 62.6596 7.929C62.571 7.68167 62.5266 7.39933 62.5266 7.082C62.5266 6.65733 62.6013 6.30033 62.7506 6.011C62.9 5.717 63.1146 5.493 63.3946 5.339C63.6746 5.185 64.006 5.108 64.3886 5.108C64.748 5.108 65.0653 5.185 65.3406 5.339C65.616 5.493 65.833 5.717 65.9916 6.011C66.1503 6.30033 66.2296 6.65733 66.2296 7.082ZM63.5906 7.082C63.5906 7.334 63.6163 7.54633 63.6676 7.719C63.7236 7.887 63.81 8.01533 63.9266 8.104C64.0433 8.188 64.195 8.23 64.3816 8.23C64.5683 8.23 64.7176 8.188 64.8296 8.104C64.9463 8.01533 65.0303 7.887 65.0816 7.719C65.1376 7.54633 65.1656 7.334 65.1656 7.082C65.1656 6.83 65.1376 6.62 65.0816 6.452C65.0303 6.284 64.9463 6.158 64.8296 6.074C64.713 5.99 64.5613 5.948 64.3746 5.948C64.0993 5.948 63.8986 6.04367 63.7726 6.235C63.6513 6.42167 63.5906 6.704 63.5906 7.082ZM68.9256 9.07C68.5476 9.07 68.2256 9.00233 67.9596 8.867C67.6936 8.727 67.4906 8.51233 67.3506 8.223C67.2106 7.93367 67.1406 7.56267 67.1406 7.11C67.1406 6.64333 67.22 6.263 67.3786 5.969C67.5373 5.675 67.7566 5.458 68.0366 5.318C68.3213 5.178 68.648 5.108 69.0166 5.108C69.278 5.108 69.5043 5.13367 69.6956 5.185C69.8916 5.23633 70.062 5.297 70.2066 5.367L69.8986 6.172C69.7353 6.10667 69.5813 6.053 69.4366 6.011C69.2966 5.969 69.1566 5.948 69.0166 5.948C68.8346 5.948 68.683 5.99233 68.5616 6.081C68.4403 6.165 68.3493 6.29333 68.2886 6.466C68.2326 6.634 68.2046 6.84633 68.2046 7.103C68.2046 7.355 68.235 7.565 68.2956 7.733C68.361 7.89633 68.4543 8.02 68.5756 8.104C68.697 8.18333 68.844 8.223 69.0166 8.223C69.236 8.223 69.4296 8.195 69.5976 8.139C69.7656 8.07833 69.929 7.99667 70.0876 7.894V8.783C69.929 8.88567 69.761 8.958 69.5836 9C69.411 9.04667 69.1916 9.07 68.9256 9.07ZM70.7013 5.178H71.8423L72.5633 7.327C72.5867 7.397 72.6053 7.467 72.6193 7.537C72.638 7.607 72.652 7.67933 72.6613 7.754C72.6753 7.82867 72.6847 7.908 72.6893 7.992H72.7103C72.7243 7.87067 72.743 7.75633 72.7663 7.649C72.7943 7.537 72.8247 7.42967 72.8573 7.327L73.5643 5.178H74.6843L73.0673 9.49C72.9693 9.75133 72.841 9.97067 72.6823 10.148C72.5283 10.3253 72.3487 10.4583 72.1433 10.547C71.938 10.6357 71.714 10.68 71.4713 10.68C71.3547 10.68 71.252 10.673 71.1633 10.659C71.0793 10.6497 71.0047 10.638 70.9393 10.624V9.798C70.9907 9.80733 71.0513 9.81667 71.1213 9.826C71.196 9.83533 71.273 9.84 71.3523 9.84C71.497 9.84 71.6207 9.80967 71.7233 9.749C71.8307 9.68833 71.9193 9.60433 71.9893 9.497C72.0593 9.39433 72.1153 9.28233 72.1573 9.161L72.2203 8.972L70.7013 5.178ZM78.813 5.178V8.237H79.373V10.372H78.435V9H75.866V10.372H74.928V8.237H75.25C75.418 7.98033 75.5603 7.68867 75.677 7.362C75.7936 7.03067 75.887 6.67833 75.957 6.305C76.027 5.93167 76.0783 5.556 76.111 5.178H78.813ZM76.986 5.962C76.9486 6.242 76.902 6.515 76.846 6.781C76.79 7.04233 76.72 7.29433 76.636 7.537C76.5566 7.77967 76.4586 8.013 76.342 8.237H77.77V5.962H76.986ZM81.8724 5.101C82.3857 5.101 82.7777 5.213 83.0484 5.437C83.3237 5.65633 83.4614 5.99467 83.4614 6.452V9H82.7334L82.5304 8.482H82.5024C82.3951 8.61733 82.2831 8.72933 82.1664 8.818C82.0544 8.90667 81.9237 8.96967 81.7744 9.007C81.6297 9.049 81.4501 9.07 81.2354 9.07C81.0114 9.07 80.8084 9.028 80.6264 8.944C80.4491 8.85533 80.3091 8.72233 80.2064 8.545C80.1037 8.363 80.0524 8.13433 80.0524 7.859C80.0524 7.453 80.1947 7.15433 80.4794 6.963C80.7641 6.767 81.1911 6.65967 81.7604 6.641L82.4254 6.62V6.452C82.4254 6.25133 82.3717 6.10433 82.2644 6.011C82.1617 5.91767 82.0171 5.871 81.8304 5.871C81.6437 5.871 81.4617 5.899 81.2844 5.955C81.1071 6.00633 80.9297 6.07167 80.7524 6.151L80.4094 5.444C80.6147 5.33667 80.8411 5.25267 81.0884 5.192C81.3404 5.13133 81.6017 5.101 81.8724 5.101ZM82.0194 7.243C81.6834 7.25233 81.4501 7.313 81.3194 7.425C81.1887 7.537 81.1234 7.684 81.1234 7.866C81.1234 8.02467 81.1701 8.139 81.2634 8.209C81.3567 8.27433 81.4781 8.307 81.6274 8.307C81.8514 8.307 82.0404 8.24167 82.1944 8.111C82.3484 7.97567 82.4254 7.78667 82.4254 7.544V7.229L82.0194 7.243ZM86.937 5.108C87.3663 5.108 87.714 5.276 87.98 5.612C88.246 5.94333 88.379 6.43333 88.379 7.082C88.379 7.516 88.316 7.88233 88.19 8.181C88.064 8.475 87.8913 8.69667 87.672 8.846C87.4527 8.99533 87.1983 9.07 86.909 9.07C86.727 9.07 86.5683 9.04667 86.433 9C86.3023 8.95333 86.1903 8.89267 86.097 8.818C86.0037 8.74333 85.922 8.664 85.852 8.58H85.796C85.8147 8.66867 85.8287 8.762 85.838 8.86C85.8473 8.95333 85.852 9.04667 85.852 9.14V10.68H84.809V5.178H85.656L85.803 5.675H85.852C85.922 5.57233 86.006 5.479 86.104 5.395C86.202 5.30633 86.3187 5.23633 86.454 5.185C86.594 5.13367 86.755 5.108 86.937 5.108ZM86.601 5.941C86.419 5.941 86.2743 5.97833 86.167 6.053C86.0597 6.12767 85.9803 6.242 85.929 6.396C85.8823 6.54533 85.8567 6.73433 85.852 6.963V7.075C85.852 7.32233 85.8753 7.53233 85.922 7.705C85.9687 7.873 86.048 8.00133 86.16 8.09C86.272 8.17867 86.4237 8.223 86.615 8.223C86.7737 8.223 86.9043 8.17867 87.007 8.09C87.1097 8.00133 87.1867 7.87067 87.238 7.698C87.2893 7.52533 87.315 7.31533 87.315 7.068C87.315 6.69467 87.2567 6.41467 87.14 6.228C87.028 6.03667 86.8483 5.941 86.601 5.941ZM91.0727 9.07C90.6947 9.07 90.3727 9.00233 90.1067 8.867C89.8407 8.727 89.6377 8.51233 89.4977 8.223C89.3577 7.93367 89.2877 7.56267 89.2877 7.11C89.2877 6.64333 89.367 6.263 89.5257 5.969C89.6844 5.675 89.9037 5.458 90.1837 5.318C90.4684 5.178 90.795 5.108 91.1637 5.108C91.425 5.108 91.6514 5.13367 91.8427 5.185C92.0387 5.23633 92.209 5.297 92.3537 5.367L92.0457 6.172C91.8824 6.10667 91.7284 6.053 91.5837 6.011C91.4437 5.969 91.3037 5.948 91.1637 5.948C90.9817 5.948 90.83 5.99233 90.7087 6.081C90.5874 6.165 90.4964 6.29333 90.4357 6.466C90.3797 6.634 90.3517 6.84633 90.3517 7.103C90.3517 7.355 90.382 7.565 90.4427 7.733C90.508 7.89633 90.6014 8.02 90.7227 8.104C90.844 8.18333 90.991 8.223 91.1637 8.223C91.383 8.223 91.5767 8.195 91.7447 8.139C91.9127 8.07833 92.076 7.99667 92.2347 7.894V8.783C92.076 8.88567 91.908 8.958 91.7307 9C91.558 9.04667 91.3387 9.07 91.0727 9.07ZM96.5584 5.962H95.3054V9H94.2624V5.962H93.0094V5.178H96.5584V5.962ZM100.932 6.179C100.932 6.38433 100.866 6.55933 100.736 6.704C100.61 6.84867 100.421 6.942 100.169 6.984V7.012C100.435 7.04467 100.647 7.13567 100.806 7.285C100.969 7.43433 101.051 7.62567 101.051 7.859C101.051 8.02233 101.018 8.174 100.953 8.314C100.892 8.454 100.794 8.57533 100.659 8.678C100.523 8.78067 100.348 8.86 100.134 8.916C99.9235 8.972 99.6669 9 99.3635 9H97.5435V5.178H99.3635C99.6622 5.178 99.9282 5.21067 100.162 5.276C100.4 5.33667 100.586 5.43933 100.722 5.584C100.862 5.72867 100.932 5.927 100.932 6.179ZM99.9725 7.803C99.9725 7.65367 99.9142 7.54633 99.7975 7.481C99.6809 7.411 99.5059 7.376 99.2725 7.376H98.5865V8.279H99.2935C99.4895 8.279 99.6505 8.244 99.7765 8.174C99.9072 8.09933 99.9725 7.97567 99.9725 7.803ZM99.8745 6.263C99.8745 6.14167 99.8279 6.053 99.7345 5.997C99.6412 5.941 99.5035 5.913 99.3215 5.913H98.5865V6.669H99.2025C99.4219 6.669 99.5875 6.63867 99.6995 6.578C99.8162 6.51267 99.8745 6.40767 99.8745 6.263ZM103.801 5.108C104.156 5.108 104.459 5.17567 104.711 5.311C104.968 5.44633 105.166 5.64233 105.306 5.899C105.446 6.15567 105.516 6.47067 105.516 6.844V7.348H103.052C103.061 7.642 103.148 7.873 103.311 8.041C103.479 8.209 103.71 8.293 104.004 8.293C104.251 8.293 104.475 8.26967 104.676 8.223C104.877 8.17167 105.084 8.09467 105.299 7.992V8.797C105.112 8.89033 104.914 8.958 104.704 9C104.499 9.04667 104.249 9.07 103.955 9.07C103.572 9.07 103.234 9 102.94 8.86C102.646 8.71533 102.415 8.49833 102.247 8.209C102.079 7.91967 101.995 7.55567 101.995 7.117C101.995 6.669 102.07 6.298 102.219 6.004C102.373 5.70533 102.585 5.48133 102.856 5.332C103.127 5.18267 103.442 5.108 103.801 5.108ZM103.808 5.85C103.607 5.85 103.439 5.91533 103.304 6.046C103.173 6.17667 103.096 6.37967 103.073 6.655H104.536C104.536 6.501 104.508 6.36333 104.452 6.242C104.401 6.12067 104.321 6.025 104.214 5.955C104.107 5.885 103.971 5.85 103.808 5.85ZM107.685 5.178V6.648H109.141V5.178H110.184V9H109.141V7.425H107.685V9H106.642V5.178H107.685ZM112.599 5.178V6.648H114.055V5.178H115.098V9H114.055V7.425H112.599V9H111.556V5.178H112.599ZM119.943 7.082C119.943 7.39933 119.899 7.68167 119.81 7.929C119.726 8.17633 119.602 8.38633 119.439 8.559C119.28 8.727 119.087 8.85533 118.858 8.944C118.629 9.028 118.37 9.07 118.081 9.07C117.815 9.07 117.568 9.028 117.339 8.944C117.115 8.85533 116.921 8.727 116.758 8.559C116.595 8.38633 116.466 8.17633 116.373 7.929C116.284 7.68167 116.24 7.39933 116.24 7.082C116.24 6.65733 116.315 6.30033 116.464 6.011C116.613 5.717 116.828 5.493 117.108 5.339C117.388 5.185 117.719 5.108 118.102 5.108C118.461 5.108 118.779 5.185 119.054 5.339C119.329 5.493 119.546 5.717 119.705 6.011C119.864 6.30033 119.943 6.65733 119.943 7.082ZM117.304 7.082C117.304 7.334 117.33 7.54633 117.381 7.719C117.437 7.887 117.523 8.01533 117.64 8.104C117.757 8.188 117.908 8.23 118.095 8.23C118.282 8.23 118.431 8.188 118.543 8.104C118.66 8.01533 118.744 7.887 118.795 7.719C118.851 7.54633 118.879 7.334 118.879 7.082C118.879 6.83 118.851 6.62 118.795 6.452C118.744 6.284 118.66 6.158 118.543 6.074C118.426 5.99 118.275 5.948 118.088 5.948C117.813 5.948 117.612 6.04367 117.486 6.235C117.365 6.42167 117.304 6.704 117.304 7.082ZM122.66 5.108C123.015 5.108 123.318 5.17567 123.57 5.311C123.827 5.44633 124.025 5.64233 124.165 5.899C124.305 6.15567 124.375 6.47067 124.375 6.844V7.348H121.911C121.92 7.642 122.007 7.873 122.17 8.041C122.338 8.209 122.569 8.293 122.863 8.293C123.11 8.293 123.334 8.26967 123.535 8.223C123.736 8.17167 123.943 8.09467 124.158 7.992V8.797C123.971 8.89033 123.773 8.958 123.563 9C123.358 9.04667 123.108 9.07 122.814 9.07C122.431 9.07 122.093 9 121.799 8.86C121.505 8.71533 121.274 8.49833 121.106 8.209C120.938 7.91967 120.854 7.55567 120.854 7.117C120.854 6.669 120.929 6.298 121.078 6.004C121.232 5.70533 121.444 5.48133 121.715 5.332C121.986 5.18267 122.301 5.108 122.66 5.108ZM122.667 5.85C122.466 5.85 122.298 5.91533 122.163 6.046C122.032 6.17667 121.955 6.37967 121.932 6.655H123.395C123.395 6.501 123.367 6.36333 123.311 6.242C123.26 6.12067 123.18 6.025 123.073 5.955C122.966 5.885 122.83 5.85 122.667 5.85ZM61.552 15.178H62.7L61.188 17.012L62.833 19H61.65L60.089 17.061V19H59.046V15.178H60.089V17.033L61.552 15.178ZM65.228 15.101C65.7413 15.101 66.1333 15.213 66.404 15.437C66.6793 15.6563 66.817 15.9947 66.817 16.452V19H66.089L65.886 18.482H65.858C65.7507 18.6173 65.6387 18.7293 65.522 18.818C65.41 18.9067 65.2793 18.9697 65.13 19.007C64.9853 19.049 64.8057 19.07 64.591 19.07C64.367 19.07 64.164 19.028 63.982 18.944C63.8047 18.8553 63.6647 18.7223 63.562 18.545C63.4593 18.363 63.408 18.1343 63.408 17.859C63.408 17.453 63.5503 17.1543 63.835 16.963C64.1197 16.767 64.5467 16.6597 65.116 16.641L65.781 16.62V16.452C65.781 16.2513 65.7273 16.1043 65.62 16.011C65.5173 15.9177 65.3727 15.871 65.186 15.871C64.9993 15.871 64.8173 15.899 64.64 15.955C64.4627 16.0063 64.2853 16.0717 64.108 16.151L63.765 15.444C63.9703 15.3367 64.1967 15.2527 64.444 15.192C64.696 15.1313 64.9573 15.101 65.228 15.101ZM65.375 17.243C65.039 17.2523 64.8057 17.313 64.675 17.425C64.5443 17.537 64.479 17.684 64.479 17.866C64.479 18.0247 64.5257 18.139 64.619 18.209C64.7123 18.2743 64.8337 18.307 64.983 18.307C65.207 18.307 65.396 18.2417 65.55 18.111C65.704 17.9757 65.781 17.7867 65.781 17.544V17.229L65.375 17.243ZM69.5576 15.108C69.8329 15.108 70.0896 15.1453 70.3276 15.22C70.5703 15.29 70.7639 15.3997 70.9086 15.549C71.0579 15.6983 71.1326 15.8897 71.1326 16.123C71.1326 16.3517 71.0626 16.5337 70.9226 16.669C70.7873 16.8043 70.6029 16.9023 70.3696 16.963V16.998C70.5329 17.0353 70.6799 17.089 70.8106 17.159C70.9413 17.2243 71.0439 17.3153 71.1186 17.432C71.1979 17.544 71.2376 17.6957 71.2376 17.887C71.2376 18.097 71.1699 18.293 71.0346 18.475C70.9039 18.6523 70.6986 18.797 70.4186 18.909C70.1433 19.0163 69.7886 19.07 69.3546 19.07C69.1493 19.07 68.9556 19.0607 68.7736 19.042C68.5916 19.0233 68.4259 18.9977 68.2766 18.965C68.1273 18.9277 67.9966 18.8833 67.8846 18.832V17.971C68.0433 18.0457 68.2369 18.1133 68.4656 18.174C68.6989 18.2347 68.9463 18.265 69.2076 18.265C69.3989 18.265 69.5693 18.251 69.7186 18.223C69.8726 18.195 69.9939 18.1483 70.0826 18.083C70.1759 18.0177 70.2226 17.9313 70.2226 17.824C70.2226 17.7213 70.1829 17.6373 70.1036 17.572C70.0243 17.502 69.9053 17.4507 69.7466 17.418C69.5879 17.3853 69.3849 17.369 69.1376 17.369H68.7316V16.648H69.1166C69.4619 16.648 69.7279 16.62 69.9146 16.564C70.1059 16.508 70.2016 16.403 70.2016 16.249C70.2016 16.1277 70.1409 16.0367 70.0196 15.976C69.8983 15.9107 69.6999 15.878 69.4246 15.878C69.2426 15.878 69.0443 15.899 68.8296 15.941C68.6149 15.983 68.4119 16.0437 68.2206 16.123L67.9126 15.395C68.1319 15.311 68.3723 15.2433 68.6336 15.192C68.8949 15.136 69.2029 15.108 69.5576 15.108ZM73.9024 15.108C74.2571 15.108 74.5604 15.1757 74.8124 15.311C75.0691 15.4463 75.2674 15.6423 75.4074 15.899C75.5474 16.1557 75.6174 16.4707 75.6174 16.844V17.348H73.1534C73.1627 17.642 73.2491 17.873 73.4124 18.041C73.5804 18.209 73.8114 18.293 74.1054 18.293C74.3527 18.293 74.5767 18.2697 74.7774 18.223C74.9781 18.1717 75.1857 18.0947 75.4004 17.992V18.797C75.2137 18.8903 75.0154 18.958 74.8054 19C74.6001 19.0467 74.3504 19.07 74.0564 19.07C73.6737 19.07 73.3354 19 73.0414 18.86C72.7474 18.7153 72.5164 18.4983 72.3484 18.209C72.1804 17.9197 72.0964 17.5557 72.0964 17.117C72.0964 16.669 72.1711 16.298 72.3204 16.004C72.4744 15.7053 72.6867 15.4813 72.9574 15.332C73.2281 15.1827 73.5431 15.108 73.9024 15.108ZM73.9094 15.85C73.7087 15.85 73.5407 15.9153 73.4054 16.046C73.2747 16.1767 73.1977 16.3797 73.1744 16.655H74.6374C74.6374 16.501 74.6094 16.3633 74.5534 16.242C74.5021 16.1207 74.4227 16.025 74.3154 15.955C74.2081 15.885 74.0727 15.85 73.9094 15.85ZM77.7861 15.178V16.648H79.2421V15.178H80.2851V19H79.2421V17.425H77.7861V19H76.7431V15.178H77.7861ZM82.7009 15.178V16.648H84.1569V15.178H85.1999V19H84.1569V17.425H82.7009V19H81.6579V15.178H82.7009ZM90.0447 17.082C90.0447 17.3993 90.0003 17.6817 89.9117 17.929C89.8277 18.1763 89.704 18.3863 89.5407 18.559C89.382 18.727 89.1883 18.8553 88.9597 18.944C88.731 19.028 88.472 19.07 88.1827 19.07C87.9167 19.07 87.6693 19.028 87.4407 18.944C87.2167 18.8553 87.023 18.727 86.8597 18.559C86.6963 18.3863 86.568 18.1763 86.4747 17.929C86.386 17.6817 86.3417 17.3993 86.3417 17.082C86.3417 16.6573 86.4163 16.3003 86.5657 16.011C86.715 15.717 86.9297 15.493 87.2097 15.339C87.4897 15.185 87.821 15.108 88.2037 15.108C88.563 15.108 88.8803 15.185 89.1557 15.339C89.431 15.493 89.648 15.717 89.8067 16.011C89.9653 16.3003 90.0447 16.6573 90.0447 17.082ZM87.4057 17.082C87.4057 17.334 87.4313 17.5463 87.4827 17.719C87.5387 17.887 87.625 18.0153 87.7417 18.104C87.8583 18.188 88.01 18.23 88.1967 18.23C88.3833 18.23 88.5327 18.188 88.6447 18.104C88.7613 18.0153 88.8453 17.887 88.8967 17.719C88.9527 17.5463 88.9807 17.334 88.9807 17.082C88.9807 16.83 88.9527 16.62 88.8967 16.452C88.8453 16.284 88.7613 16.158 88.6447 16.074C88.528 15.99 88.3763 15.948 88.1897 15.948C87.9143 15.948 87.7137 16.0437 87.5877 16.235C87.4663 16.4217 87.4057 16.704 87.4057 17.082ZM92.7617 15.108C93.1163 15.108 93.4197 15.1757 93.6717 15.311C93.9283 15.4463 94.1267 15.6423 94.2667 15.899C94.4067 16.1557 94.4767 16.4707 94.4767 16.844V17.348H92.0127C92.022 17.642 92.1083 17.873 92.2717 18.041C92.4397 18.209 92.6707 18.293 92.9647 18.293C93.212 18.293 93.436 18.2697 93.6367 18.223C93.8373 18.1717 94.045 18.0947 94.2597 17.992V18.797C94.073 18.8903 93.8747 18.958 93.6647 19C93.4593 19.0467 93.2097 19.07 92.9157 19.07C92.533 19.07 92.1947 19 91.9007 18.86C91.6067 18.7153 91.3757 18.4983 91.2077 18.209C91.0397 17.9197 90.9557 17.5557 90.9557 17.117C90.9557 16.669 91.0303 16.298 91.1797 16.004C91.3337 15.7053 91.546 15.4813 91.8167 15.332C92.0873 15.1827 92.4023 15.108 92.7617 15.108ZM92.7687 15.85C92.568 15.85 92.4 15.9153 92.2647 16.046C92.134 16.1767 92.057 16.3797 92.0337 16.655H93.4967C93.4967 16.501 93.4687 16.3633 93.4127 16.242C93.3613 16.1207 93.282 16.025 93.1747 15.955C93.0673 15.885 92.932 15.85 92.7687 15.85ZM97.0044 15.178H98.1454L98.8664 17.327C98.8897 17.397 98.9084 17.467 98.9224 17.537C98.941 17.607 98.955 17.6793 98.9644 17.754C98.9784 17.8287 98.9877 17.908 98.9924 17.992H99.0134C99.0274 17.8707 99.046 17.7563 99.0694 17.649C99.0974 17.537 99.1277 17.4297 99.1604 17.327L99.8674 15.178H100.987L99.3704 19.49C99.2724 19.7513 99.144 19.9707 98.9854 20.148C98.8314 20.3253 98.6517 20.4583 98.4464 20.547C98.241 20.6357 98.017 20.68 97.7744 20.68C97.6577 20.68 97.555 20.673 97.4664 20.659C97.3824 20.6497 97.3077 20.638 97.2424 20.624V19.798C97.2937 19.8073 97.3544 19.8167 97.4244 19.826C97.499 19.8353 97.576 19.84 97.6554 19.84C97.8 19.84 97.9237 19.8097 98.0264 19.749C98.1337 19.6883 98.2224 19.6043 98.2924 19.497C98.3624 19.3943 98.4184 19.2823 98.4604 19.161L98.5234 18.972L97.0044 15.178ZM102.733 16.578C102.733 16.7413 102.772 16.865 102.852 16.949C102.936 17.033 103.05 17.075 103.195 17.075C103.395 17.075 103.582 17.054 103.755 17.012C103.927 16.9653 104.1 16.9047 104.273 16.83V15.178H105.316V19H104.273V17.481C104.109 17.5697 103.923 17.6513 103.713 17.726C103.503 17.796 103.265 17.831 102.999 17.831C102.602 17.831 102.285 17.7283 102.047 17.523C101.809 17.3177 101.69 17.0097 101.69 16.599V15.178H102.733V16.578ZM108.817 15.108C109.247 15.108 109.594 15.276 109.86 15.612C110.126 15.9433 110.259 16.4333 110.259 17.082C110.259 17.516 110.196 17.8823 110.07 18.181C109.944 18.475 109.772 18.6967 109.552 18.846C109.333 18.9953 109.079 19.07 108.789 19.07C108.607 19.07 108.449 19.0467 108.313 19C108.183 18.9533 108.071 18.8927 107.977 18.818C107.884 18.7433 107.802 18.664 107.732 18.58H107.676C107.695 18.6687 107.709 18.762 107.718 18.86C107.728 18.9533 107.732 19.0467 107.732 19.14V20.68H106.689V15.178H107.536L107.683 15.675H107.732C107.802 15.5723 107.886 15.479 107.984 15.395C108.082 15.3063 108.199 15.2363 108.334 15.185C108.474 15.1337 108.635 15.108 108.817 15.108ZM108.481 15.941C108.299 15.941 108.155 15.9783 108.047 16.053C107.94 16.1277 107.861 16.242 107.809 16.396C107.763 16.5453 107.737 16.7343 107.732 16.963V17.075C107.732 17.3223 107.756 17.5323 107.802 17.705C107.849 17.873 107.928 18.0013 108.04 18.09C108.152 18.1787 108.304 18.223 108.495 18.223C108.654 18.223 108.785 18.1787 108.887 18.09C108.99 18.0013 109.067 17.8707 109.118 17.698C109.17 17.5253 109.195 17.3153 109.195 17.068C109.195 16.6947 109.137 16.4147 109.02 16.228C108.908 16.0367 108.729 15.941 108.481 15.941ZM112.974 15.108C113.329 15.108 113.632 15.1757 113.884 15.311C114.141 15.4463 114.339 15.6423 114.479 15.899C114.619 16.1557 114.689 16.4707 114.689 16.844V17.348H112.225C112.234 17.642 112.321 17.873 112.484 18.041C112.652 18.209 112.883 18.293 113.177 18.293C113.424 18.293 113.648 18.2697 113.849 18.223C114.05 18.1717 114.257 18.0947 114.472 17.992V18.797C114.285 18.8903 114.087 18.958 113.877 19C113.672 19.0467 113.422 19.07 113.128 19.07C112.745 19.07 112.407 19 112.113 18.86C111.819 18.7153 111.588 18.4983 111.42 18.209C111.252 17.9197 111.168 17.5557 111.168 17.117C111.168 16.669 111.243 16.298 111.392 16.004C111.546 15.7053 111.758 15.4813 112.029 15.332C112.3 15.1827 112.615 15.108 112.974 15.108ZM112.981 15.85C112.78 15.85 112.612 15.9153 112.477 16.046C112.346 16.1767 112.269 16.3797 112.246 16.655H113.709C113.709 16.501 113.681 16.3633 113.625 16.242C113.574 16.1207 113.494 16.025 113.387 15.955C113.28 15.885 113.144 15.85 112.981 15.85ZM121.247 15.178L119.84 17.012L121.38 19H120.267L118.811 17.061V19H117.838V17.061L116.382 19H115.269L116.809 17.012L115.402 15.178H116.48L117.838 17.033V15.178H118.811V17.033L120.169 15.178H121.247ZM125.643 15.178V18.237H126.203V20.372H125.265V19H122.696V20.372H121.758V18.237H122.08C122.248 17.9803 122.391 17.6887 122.507 17.362C122.624 17.0307 122.717 16.6783 122.787 16.305C122.857 15.9317 122.909 15.556 122.941 15.178H125.643ZM123.816 15.962C123.779 16.242 123.732 16.515 123.676 16.781C123.62 17.0423 123.55 17.2943 123.466 17.537C123.387 17.7797 123.289 18.013 123.172 18.237H124.6V15.962H123.816ZM128.71 15.108C129.064 15.108 129.368 15.1757 129.62 15.311C129.876 15.4463 130.075 15.6423 130.215 15.899C130.355 16.1557 130.425 16.4707 130.425 16.844V17.348H127.961C127.97 17.642 128.056 17.873 128.22 18.041C128.388 18.209 128.619 18.293 128.913 18.293C129.16 18.293 129.384 18.2697 129.585 18.223C129.785 18.1717 129.993 18.0947 130.208 17.992V18.797C130.021 18.8903 129.823 18.958 129.613 19C129.407 19.0467 129.158 19.07 128.864 19.07C128.481 19.07 128.143 19 127.849 18.86C127.555 18.7153 127.324 18.4983 127.156 18.209C126.988 17.9197 126.904 17.5557 126.904 17.117C126.904 16.669 126.978 16.298 127.128 16.004C127.282 15.7053 127.494 15.4813 127.765 15.332C128.035 15.1827 128.35 15.108 128.71 15.108ZM128.717 15.85C128.516 15.85 128.348 15.9153 128.213 16.046C128.082 16.1767 128.005 16.3797 127.982 16.655H129.445C129.445 16.501 129.417 16.3633 129.361 16.242C129.309 16.1207 129.23 16.025 129.123 15.955C129.015 15.885 128.88 15.85 128.717 15.85ZM132.593 15.178V16.648H134.049V15.178H135.092V19H134.049V17.425H132.593V19H131.55V15.178H132.593ZM137.473 16.69C137.473 16.7693 137.469 16.8673 137.459 16.984C137.455 17.1007 137.448 17.2197 137.438 17.341C137.434 17.4623 137.427 17.5697 137.417 17.663C137.408 17.7563 137.401 17.8217 137.396 17.859L139.16 15.178H140.413V19H139.405V17.474C139.405 17.348 139.41 17.2103 139.419 17.061C139.429 16.907 139.438 16.7647 139.447 16.634C139.461 16.4987 139.471 16.396 139.475 16.326L137.718 19H136.465V15.178H137.473V16.69ZM143.358 15.108C143.713 15.108 144.016 15.1757 144.268 15.311C144.525 15.4463 144.723 15.6423 144.863 15.899C145.003 16.1557 145.073 16.4707 145.073 16.844V17.348H142.609C142.619 17.642 142.705 17.873 142.868 18.041C143.036 18.209 143.267 18.293 143.561 18.293C143.809 18.293 144.033 18.2697 144.233 18.223C144.434 18.1717 144.642 18.0947 144.856 17.992V18.797C144.67 18.8903 144.471 18.958 144.261 19C144.056 19.0467 143.806 19.07 143.512 19.07C143.13 19.07 142.791 19 142.497 18.86C142.203 18.7153 141.972 18.4983 141.804 18.209C141.636 17.9197 141.552 17.5557 141.552 17.117C141.552 16.669 141.627 16.298 141.776 16.004C141.93 15.7053 142.143 15.4813 142.413 15.332C142.684 15.1827 142.999 15.108 143.358 15.108ZM143.365 15.85C143.165 15.85 142.997 15.9153 142.861 16.046C142.731 16.1767 142.654 16.3797 142.63 16.655H144.093C144.093 16.501 144.065 16.3633 144.009 16.242C143.958 16.1207 143.879 16.025 143.771 15.955C143.664 15.885 143.529 15.85 143.365 15.85ZM61.685 25.178V25.962H60.089V29H59.046V25.178H61.685ZM66.0724 27.082C66.0724 27.3993 66.0281 27.6817 65.9394 27.929C65.8554 28.1763 65.7317 28.3863 65.5684 28.559C65.4097 28.727 65.2161 28.8553 64.9874 28.944C64.7587 29.028 64.4997 29.07 64.2104 29.07C63.9444 29.07 63.6971 29.028 63.4684 28.944C63.2444 28.8553 63.0507 28.727 62.8874 28.559C62.7241 28.3863 62.5957 28.1763 62.5024 27.929C62.4137 27.6817 62.3694 27.3993 62.3694 27.082C62.3694 26.6573 62.4441 26.3003 62.5934 26.011C62.7427 25.717 62.9574 25.493 63.2374 25.339C63.5174 25.185 63.8487 25.108 64.2314 25.108C64.5907 25.108 64.9081 25.185 65.1834 25.339C65.4587 25.493 65.6757 25.717 65.8344 26.011C65.9931 26.3003 66.0724 26.6573 66.0724 27.082ZM63.4334 27.082C63.4334 27.334 63.4591 27.5463 63.5104 27.719C63.5664 27.887 63.6527 28.0153 63.7694 28.104C63.8861 28.188 64.0377 28.23 64.2244 28.23C64.4111 28.23 64.5604 28.188 64.6724 28.104C64.7891 28.0153 64.8731 27.887 64.9244 27.719C64.9804 27.5463 65.0084 27.334 65.0084 27.082C65.0084 26.83 64.9804 26.62 64.9244 26.452C64.8731 26.284 64.7891 26.158 64.6724 26.074C64.5557 25.99 64.4041 25.948 64.2174 25.948C63.9421 25.948 63.7414 26.0437 63.6154 26.235C63.4941 26.4217 63.4334 26.704 63.4334 27.082ZM69.3424 25.108C69.7717 25.108 70.1194 25.276 70.3854 25.612C70.6514 25.9433 70.7844 26.4333 70.7844 27.082C70.7844 27.516 70.7214 27.8823 70.5954 28.181C70.4694 28.475 70.2967 28.6967 70.0774 28.846C69.8581 28.9953 69.6037 29.07 69.3144 29.07C69.1324 29.07 68.9737 29.0467 68.8384 29C68.7077 28.9533 68.5957 28.8927 68.5024 28.818C68.4091 28.7433 68.3274 28.664 68.2574 28.58H68.2014C68.2201 28.6687 68.2341 28.762 68.2434 28.86C68.2527 28.9533 68.2574 29.0467 68.2574 29.14V30.68H67.2144V25.178H68.0614L68.2084 25.675H68.2574C68.3274 25.5723 68.4114 25.479 68.5094 25.395C68.6074 25.3063 68.7241 25.2363 68.8594 25.185C68.9994 25.1337 69.1604 25.108 69.3424 25.108ZM69.0064 25.941C68.8244 25.941 68.6797 25.9783 68.5724 26.053C68.4651 26.1277 68.3857 26.242 68.3344 26.396C68.2877 26.5453 68.2621 26.7343 68.2574 26.963V27.075C68.2574 27.3223 68.2807 27.5323 68.3274 27.705C68.3741 27.873 68.4534 28.0013 68.5654 28.09C68.6774 28.1787 68.8291 28.223 69.0204 28.223C69.1791 28.223 69.3097 28.1787 69.4124 28.09C69.5151 28.0013 69.5921 27.8707 69.6434 27.698C69.6947 27.5253 69.7204 27.3153 69.7204 27.068C69.7204 26.6947 69.6621 26.4147 69.5454 26.228C69.4334 26.0367 69.2537 25.941 69.0064 25.941ZM75.3961 27.082C75.3961 27.3993 75.3518 27.6817 75.2631 27.929C75.1791 28.1763 75.0554 28.3863 74.8921 28.559C74.7334 28.727 74.5398 28.8553 74.3111 28.944C74.0824 29.028 73.8234 29.07 73.5341 29.07C73.2681 29.07 73.0208 29.028 72.7921 28.944C72.5681 28.8553 72.3744 28.727 72.2111 28.559C72.0478 28.3863 71.9194 28.1763 71.8261 27.929C71.7374 27.6817 71.6931 27.3993 71.6931 27.082C71.6931 26.6573 71.7678 26.3003 71.9171 26.011C72.0664 25.717 72.2811 25.493 72.5611 25.339C72.8411 25.185 73.1724 25.108 73.5551 25.108C73.9144 25.108 74.2318 25.185 74.5071 25.339C74.7824 25.493 74.9994 25.717 75.1581 26.011C75.3168 26.3003 75.3961 26.6573 75.3961 27.082ZM72.7571 27.082C72.7571 27.334 72.7828 27.5463 72.8341 27.719C72.8901 27.887 72.9764 28.0153 73.0931 28.104C73.2098 28.188 73.3614 28.23 73.5481 28.23C73.7348 28.23 73.8841 28.188 73.9961 28.104C74.1128 28.0153 74.1968 27.887 74.2481 27.719C74.3041 27.5463 74.3321 27.334 74.3321 27.082C74.3321 26.83 74.3041 26.62 74.2481 26.452C74.1968 26.284 74.1128 26.158 73.9961 26.074C73.8794 25.99 73.7278 25.948 73.5411 25.948C73.2658 25.948 73.0651 26.0437 72.9391 26.235C72.8178 26.4217 72.7571 26.704 72.7571 27.082ZM79.9751 25.178V28.237H80.5351V30.372H79.5971V29H77.0281V30.372H76.0901V28.237H76.4121C76.5801 27.9803 76.7224 27.6887 76.8391 27.362C76.9557 27.0307 77.0491 26.6783 77.1191 26.305C77.1891 25.9317 77.2404 25.556 77.2731 25.178H79.9751ZM78.1481 25.962C78.1107 26.242 78.0641 26.515 78.0081 26.781C77.9521 27.0423 77.8821 27.2943 77.7981 27.537C77.7187 27.7797 77.6207 28.013 77.5041 28.237H78.9321V25.962H78.1481ZM83.0345 25.101C83.5478 25.101 83.9398 25.213 84.2105 25.437C84.4858 25.6563 84.6235 25.9947 84.6235 26.452V29H83.8955L83.6925 28.482H83.6645C83.5572 28.6173 83.4452 28.7293 83.3285 28.818C83.2165 28.9067 83.0858 28.9697 82.9365 29.007C82.7918 29.049 82.6122 29.07 82.3975 29.07C82.1735 29.07 81.9705 29.028 81.7885 28.944C81.6112 28.8553 81.4712 28.7223 81.3685 28.545C81.2658 28.363 81.2145 28.1343 81.2145 27.859C81.2145 27.453 81.3568 27.1543 81.6415 26.963C81.9262 26.767 82.3532 26.6597 82.9225 26.641L83.5875 26.62V26.452C83.5875 26.2513 83.5338 26.1043 83.4265 26.011C83.3238 25.9177 83.1792 25.871 82.9925 25.871C82.8058 25.871 82.6238 25.899 82.4465 25.955C82.2692 26.0063 82.0918 26.0717 81.9145 26.151L81.5715 25.444C81.7768 25.3367 82.0032 25.2527 82.2505 25.192C82.5025 25.1313 82.7638 25.101 83.0345 25.101ZM83.1815 27.243C82.8455 27.2523 82.6122 27.313 82.4815 27.425C82.3508 27.537 82.2855 27.684 82.2855 27.866C82.2855 28.0247 82.3322 28.139 82.4255 28.209C82.5188 28.2743 82.6402 28.307 82.7895 28.307C83.0135 28.307 83.2025 28.2417 83.3565 28.111C83.5105 27.9757 83.5875 27.7867 83.5875 27.544V27.229L83.1815 27.243ZM90.1171 29L88.9131 25.08H88.8851C88.8898 25.1733 88.8968 25.3133 88.9061 25.5C88.9154 25.6867 88.9248 25.8873 88.9341 26.102C88.9434 26.312 88.9481 26.5033 88.9481 26.676V29H88.0031V24.002H89.4451L90.6281 27.824H90.6491L91.9021 24.002H93.3441V29H92.3571V26.634C92.3571 26.4753 92.3594 26.2933 92.3641 26.088C92.3734 25.8827 92.3804 25.689 92.3851 25.507C92.3944 25.3203 92.4014 25.1803 92.4061 25.087H92.3781L91.0901 29H90.1171ZM98.2746 27.082C98.2746 27.3993 98.2303 27.6817 98.1416 27.929C98.0576 28.1763 97.9339 28.3863 97.7706 28.559C97.6119 28.727 97.4183 28.8553 97.1896 28.944C96.9609 29.028 96.7019 29.07 96.4126 29.07C96.1466 29.07 95.8993 29.028 95.6706 28.944C95.4466 28.8553 95.2529 28.727 95.0896 28.559C94.9263 28.3863 94.7979 28.1763 94.7046 27.929C94.6159 27.6817 94.5716 27.3993 94.5716 27.082C94.5716 26.6573 94.6463 26.3003 94.7956 26.011C94.9449 25.717 95.1596 25.493 95.4396 25.339C95.7196 25.185 96.0509 25.108 96.4336 25.108C96.7929 25.108 97.1103 25.185 97.3856 25.339C97.6609 25.493 97.8779 25.717 98.0366 26.011C98.1953 26.3003 98.2746 26.6573 98.2746 27.082ZM95.6356 27.082C95.6356 27.334 95.6613 27.5463 95.7126 27.719C95.7686 27.887 95.8549 28.0153 95.9716 28.104C96.0883 28.188 96.2399 28.23 96.4266 28.23C96.6133 28.23 96.7626 28.188 96.8746 28.104C96.9913 28.0153 97.0753 27.887 97.1266 27.719C97.1826 27.5463 97.2106 27.334 97.2106 27.082C97.2106 26.83 97.1826 26.62 97.1266 26.452C97.0753 26.284 96.9913 26.158 96.8746 26.074C96.7579 25.99 96.6063 25.948 96.4196 25.948C96.1443 25.948 95.9436 26.0437 95.8176 26.235C95.6963 26.4217 95.6356 26.704 95.6356 27.082ZM100.971 29.07C100.593 29.07 100.271 29.0023 100.005 28.867C99.7386 28.727 99.5356 28.5123 99.3956 28.223C99.2556 27.9337 99.1856 27.5627 99.1856 27.11C99.1856 26.6433 99.2649 26.263 99.4236 25.969C99.5823 25.675 99.8016 25.458 100.082 25.318C100.366 25.178 100.693 25.108 101.062 25.108C101.323 25.108 101.549 25.1337 101.741 25.185C101.937 25.2363 102.107 25.297 102.252 25.367L101.944 26.172C101.78 26.1067 101.626 26.053 101.482 26.011C101.342 25.969 101.202 25.948 101.062 25.948C100.88 25.948 100.728 25.9923 100.607 26.081C100.485 26.165 100.394 26.2933 100.334 26.466C100.278 26.634 100.25 26.8463 100.25 27.103C100.25 27.355 100.28 27.565 100.341 27.733C100.406 27.8963 100.499 28.02 100.621 28.104C100.742 28.1833 100.889 28.223 101.062 28.223C101.281 28.223 101.475 28.195 101.643 28.139C101.811 28.0783 101.974 27.9967 102.133 27.894V28.783C101.974 28.8857 101.806 28.958 101.629 29C101.456 29.0467 101.237 29.07 100.971 29.07ZM105.798 25.178H106.946L105.434 27.012L107.079 29H105.896L104.335 27.061V29H103.292V25.178H104.335V27.033L105.798 25.178ZM111.294 26.179C111.294 26.3843 111.229 26.5593 111.098 26.704C110.972 26.8487 110.783 26.942 110.531 26.984V27.012C110.797 27.0447 111.01 27.1357 111.168 27.285C111.332 27.4343 111.413 27.6257 111.413 27.859C111.413 28.0223 111.381 28.174 111.315 28.314C111.255 28.454 111.157 28.5753 111.021 28.678C110.886 28.7807 110.711 28.86 110.496 28.916C110.286 28.972 110.03 29 109.726 29H107.906V25.178H109.726C110.025 25.178 110.291 25.2107 110.524 25.276C110.762 25.3367 110.949 25.4393 111.084 25.584C111.224 25.7287 111.294 25.927 111.294 26.179ZM110.335 27.803C110.335 27.6537 110.277 27.5463 110.16 27.481C110.044 27.411 109.869 27.376 109.635 27.376H108.949V28.279H109.656C109.852 28.279 110.013 28.244 110.139 28.174C110.27 28.0993 110.335 27.9757 110.335 27.803ZM110.237 26.263C110.237 26.1417 110.191 26.053 110.097 25.997C110.004 25.941 109.866 25.913 109.684 25.913H108.949V26.669H109.565C109.785 26.669 109.95 26.6387 110.062 26.578C110.179 26.5127 110.237 26.4077 110.237 26.263ZM112.589 29V25.178H113.632V26.655H114.136C114.528 26.655 114.85 26.697 115.102 26.781C115.354 26.8603 115.54 26.984 115.662 27.152C115.788 27.32 115.851 27.53 115.851 27.782C115.851 28.0293 115.792 28.244 115.676 28.426C115.564 28.608 115.384 28.7503 115.137 28.853C114.894 28.951 114.572 29 114.171 29H112.589ZM114.115 28.279C114.32 28.279 114.486 28.2417 114.612 28.167C114.742 28.0923 114.808 27.9687 114.808 27.796C114.808 27.6467 114.747 27.5393 114.626 27.474C114.509 27.4087 114.334 27.376 114.101 27.376H113.632V28.279H114.115ZM116.404 29V25.178H117.447V29H116.404ZM59.431 38.16L58.815 36.935L59.431 35.71H60.362L59.718 36.935L60.362 38.16H59.431ZM60.887 38.16L60.264 36.935L60.887 35.71H61.811L61.167 36.935L61.811 38.16H60.887ZM65.1744 39L63.9704 35.08H63.9424C63.9471 35.1733 63.9541 35.3133 63.9634 35.5C63.9727 35.6867 63.9821 35.8873 63.9914 36.102C64.0007 36.312 64.0054 36.5033 64.0054 36.676V39H63.0604V34.002H64.5024L65.6854 37.824H65.7064L66.9594 34.002H68.4014V39H67.4144V36.634C67.4144 36.4753 67.4167 36.2933 67.4214 36.088C67.4307 35.8827 67.4377 35.689 67.4424 35.507C67.4517 35.3203 67.4587 35.1803 67.4634 35.087H67.4354L66.1474 39H65.1744ZM73.3319 37.082C73.3319 37.3993 73.2876 37.6817 73.1989 37.929C73.1149 38.1763 72.9912 38.3863 72.8279 38.559C72.6692 38.727 72.4756 38.8553 72.2469 38.944C72.0182 39.028 71.7592 39.07 71.4699 39.07C71.2039 39.07 70.9566 39.028 70.7279 38.944C70.5039 38.8553 70.3102 38.727 70.1469 38.559C69.9836 38.3863 69.8552 38.1763 69.7619 37.929C69.6732 37.6817 69.6289 37.3993 69.6289 37.082C69.6289 36.6573 69.7036 36.3003 69.8529 36.011C70.0022 35.717 70.2169 35.493 70.4969 35.339C70.7769 35.185 71.1082 35.108 71.4909 35.108C71.8502 35.108 72.1676 35.185 72.4429 35.339C72.7182 35.493 72.9352 35.717 73.0939 36.011C73.2526 36.3003 73.3319 36.6573 73.3319 37.082ZM70.6929 37.082C70.6929 37.334 70.7186 37.5463 70.7699 37.719C70.8259 37.887 70.9122 38.0153 71.0289 38.104C71.1456 38.188 71.2972 38.23 71.4839 38.23C71.6706 38.23 71.8199 38.188 71.9319 38.104C72.0486 38.0153 72.1326 37.887 72.1839 37.719C72.2399 37.5463 72.2679 37.334 72.2679 37.082C72.2679 36.83 72.2399 36.62 72.1839 36.452C72.1326 36.284 72.0486 36.158 71.9319 36.074C71.8152 35.99 71.6636 35.948 71.4769 35.948C71.2016 35.948 71.0009 36.0437 70.8749 36.235C70.7536 36.4217 70.6929 36.704 70.6929 37.082ZM76.0279 39.07C75.6499 39.07 75.3279 39.0023 75.0619 38.867C74.7959 38.727 74.5929 38.5123 74.4529 38.223C74.3129 37.9337 74.2429 37.5627 74.2429 37.11C74.2429 36.6433 74.3222 36.263 74.4809 35.969C74.6396 35.675 74.8589 35.458 75.1389 35.318C75.4236 35.178 75.7502 35.108 76.1189 35.108C76.3802 35.108 76.6066 35.1337 76.7979 35.185C76.9939 35.2363 77.1642 35.297 77.3089 35.367L77.0009 36.172C76.8376 36.1067 76.6836 36.053 76.5389 36.011C76.3989 35.969 76.2589 35.948 76.1189 35.948C75.9369 35.948 75.7852 35.9923 75.6639 36.081C75.5426 36.165 75.4516 36.2933 75.3909 36.466C75.3349 36.634 75.3069 36.8463 75.3069 37.103C75.3069 37.355 75.3372 37.565 75.3979 37.733C75.4632 37.8963 75.5566 38.02 75.6779 38.104C75.7992 38.1833 75.9462 38.223 76.1189 38.223C76.3382 38.223 76.5319 38.195 76.6999 38.139C76.8679 38.0783 77.0312 37.9967 77.1899 37.894V38.783C77.0312 38.8857 76.8632 38.958 76.6859 39C76.5132 39.0467 76.2939 39.07 76.0279 39.07ZM80.8556 35.178H82.0036L80.4916 37.012L82.1366 39H80.9536L79.3926 37.061V39H78.3496V35.178H79.3926V37.033L80.8556 35.178ZM86.3516 36.179C86.3516 36.3843 86.2862 36.5593 86.1556 36.704C86.0296 36.8487 85.8406 36.942 85.5886 36.984V37.012C85.8546 37.0447 86.0669 37.1357 86.2256 37.285C86.3889 37.4343 86.4706 37.6257 86.4706 37.859C86.4706 38.0223 86.4379 38.174 86.3726 38.314C86.3119 38.454 86.2139 38.5753 86.0786 38.678C85.9432 38.7807 85.7682 38.86 85.5536 38.916C85.3436 38.972 85.0869 39 84.7836 39H82.9636V35.178H84.7836C85.0822 35.178 85.3482 35.2107 85.5816 35.276C85.8196 35.3367 86.0062 35.4393 86.1416 35.584C86.2816 35.7287 86.3516 35.927 86.3516 36.179ZM85.3926 37.803C85.3926 37.6537 85.3342 37.5463 85.2176 37.481C85.1009 37.411 84.9259 37.376 84.6926 37.376H84.0066V38.279H84.7136C84.9096 38.279 85.0706 38.244 85.1966 38.174C85.3272 38.0993 85.3926 37.9757 85.3926 37.803ZM85.2946 36.263C85.2946 36.1417 85.2479 36.053 85.1546 35.997C85.0612 35.941 84.9236 35.913 84.7416 35.913H84.0066V36.669H84.6226C84.8419 36.669 85.0076 36.6387 85.1196 36.578C85.2362 36.5127 85.2946 36.4077 85.2946 36.263ZM91.1179 37.082C91.1179 37.3993 91.0736 37.6817 90.9849 37.929C90.9009 38.1763 90.7773 38.3863 90.6139 38.559C90.4553 38.727 90.2616 38.8553 90.0329 38.944C89.8043 39.028 89.5453 39.07 89.2559 39.07C88.9899 39.07 88.7426 39.028 88.5139 38.944C88.2899 38.8553 88.0963 38.727 87.9329 38.559C87.7696 38.3863 87.6413 38.1763 87.5479 37.929C87.4593 37.6817 87.4149 37.3993 87.4149 37.082C87.4149 36.6573 87.4896 36.3003 87.6389 36.011C87.7883 35.717 88.0029 35.493 88.2829 35.339C88.5629 35.185 88.8943 35.108 89.2769 35.108C89.6363 35.108 89.9536 35.185 90.2289 35.339C90.5043 35.493 90.7213 35.717 90.8799 36.011C91.0386 36.3003 91.1179 36.6573 91.1179 37.082ZM88.4789 37.082C88.4789 37.334 88.5046 37.5463 88.5559 37.719C88.6119 37.887 88.6983 38.0153 88.8149 38.104C88.9316 38.188 89.0833 38.23 89.2699 38.23C89.4566 38.23 89.6059 38.188 89.7179 38.104C89.8346 38.0153 89.9186 37.887 89.9699 37.719C90.0259 37.5463 90.0539 37.334 90.0539 37.082C90.0539 36.83 90.0259 36.62 89.9699 36.452C89.9186 36.284 89.8346 36.158 89.7179 36.074C89.6013 35.99 89.4496 35.948 89.2629 35.948C88.9876 35.948 88.7869 36.0437 88.6609 36.235C88.5396 36.4217 88.4789 36.704 88.4789 37.082ZM94.3879 35.108C94.8172 35.108 95.1649 35.276 95.4309 35.612C95.6969 35.9433 95.8299 36.4333 95.8299 37.082C95.8299 37.516 95.7669 37.8823 95.6409 38.181C95.5149 38.475 95.3422 38.6967 95.1229 38.846C94.9036 38.9953 94.6492 39.07 94.3599 39.07C94.1779 39.07 94.0192 39.0467 93.8839 39C93.7532 38.9533 93.6412 38.8927 93.5479 38.818C93.4546 38.7433 93.3729 38.664 93.3029 38.58H93.2469C93.2656 38.6687 93.2796 38.762 93.2889 38.86C93.2982 38.9533 93.3029 39.0467 93.3029 39.14V40.68H92.2599V35.178H93.1069L93.2539 35.675H93.3029C93.3729 35.5723 93.4569 35.479 93.5549 35.395C93.6529 35.3063 93.7696 35.2363 93.9049 35.185C94.0449 35.1337 94.2059 35.108 94.3879 35.108ZM94.0519 35.941C93.8699 35.941 93.7252 35.9783 93.6179 36.053C93.5106 36.1277 93.4312 36.242 93.3799 36.396C93.3332 36.5453 93.3076 36.7343 93.3029 36.963V37.075C93.3029 37.3223 93.3262 37.5323 93.3729 37.705C93.4196 37.873 93.4989 38.0013 93.6109 38.09C93.7229 38.1787 93.8746 38.223 94.0659 38.223C94.2246 38.223 94.3552 38.1787 94.4579 38.09C94.5606 38.0013 94.6376 37.8707 94.6889 37.698C94.7402 37.5253 94.7659 37.3153 94.7659 37.068C94.7659 36.6947 94.7076 36.4147 94.5909 36.228C94.4789 36.0367 94.2992 35.941 94.0519 35.941ZM98.5446 35.108C98.8993 35.108 99.2026 35.1757 99.4546 35.311C99.7113 35.4463 99.9096 35.6423 100.05 35.899C100.19 36.1557 100.26 36.4707 100.26 36.844V37.348H97.7956C97.8049 37.642 97.8913 37.873 98.0546 38.041C98.2226 38.209 98.4536 38.293 98.7476 38.293C98.9949 38.293 99.2189 38.2697 99.4196 38.223C99.6203 38.1717 99.8279 38.0947 100.043 37.992V38.797C99.8559 38.8903 99.6576 38.958 99.4476 39C99.2423 39.0467 98.9926 39.07 98.6986 39.07C98.3159 39.07 97.9776 39 97.6836 38.86C97.3896 38.7153 97.1586 38.4983 96.9906 38.209C96.8226 37.9197 96.7386 37.5557 96.7386 37.117C96.7386 36.669 96.8133 36.298 96.9626 36.004C97.1166 35.7053 97.3289 35.4813 97.5996 35.332C97.8703 35.1827 98.1853 35.108 98.5446 35.108ZM98.5516 35.85C98.3509 35.85 98.1829 35.9153 98.0476 36.046C97.9169 36.1767 97.8399 36.3797 97.8166 36.655H99.2796C99.2796 36.501 99.2516 36.3633 99.1956 36.242C99.1443 36.1207 99.0649 36.025 98.9576 35.955C98.8503 35.885 98.7149 35.85 98.5516 35.85ZM102.302 36.578C102.302 36.7413 102.342 36.865 102.421 36.949C102.505 37.033 102.62 37.075 102.764 37.075C102.965 37.075 103.152 37.054 103.324 37.012C103.497 36.9653 103.67 36.9047 103.842 36.83V35.178H104.885V39H103.842V37.481C103.679 37.5697 103.492 37.6513 103.282 37.726C103.072 37.796 102.834 37.831 102.568 37.831C102.172 37.831 101.854 37.7283 101.616 37.523C101.378 37.3177 101.259 37.0097 101.259 36.599V35.178H102.302V36.578ZM108.037 36.655C108.429 36.655 108.753 36.697 109.01 36.781C109.267 36.8603 109.456 36.984 109.577 37.152C109.703 37.32 109.766 37.53 109.766 37.782C109.766 38.0293 109.708 38.244 109.591 38.426C109.479 38.608 109.299 38.7503 109.052 38.853C108.805 38.951 108.48 39 108.079 39H106.259V35.178H107.302V36.655H108.037ZM108.723 37.796C108.723 37.6467 108.662 37.5393 108.541 37.474C108.424 37.4087 108.249 37.376 108.016 37.376H107.302V38.279H108.03C108.235 38.279 108.401 38.2417 108.527 38.167C108.658 38.0923 108.723 37.9687 108.723 37.796ZM112.414 35.108C112.769 35.108 113.072 35.1757 113.324 35.311C113.581 35.4463 113.779 35.6423 113.919 35.899C114.059 36.1557 114.129 36.4707 114.129 36.844V37.348H111.665C111.674 37.642 111.761 37.873 111.924 38.041C112.092 38.209 112.323 38.293 112.617 38.293C112.864 38.293 113.088 38.2697 113.289 38.223C113.49 38.1717 113.697 38.0947 113.912 37.992V38.797C113.725 38.8903 113.527 38.958 113.317 39C113.112 39.0467 112.862 39.07 112.568 39.07C112.185 39.07 111.847 39 111.553 38.86C111.259 38.7153 111.028 38.4983 110.86 38.209C110.692 37.9197 110.608 37.5557 110.608 37.117C110.608 36.669 110.683 36.298 110.832 36.004C110.986 35.7053 111.198 35.4813 111.469 35.332C111.74 35.1827 112.055 35.108 112.414 35.108ZM112.421 35.85C112.22 35.85 112.052 35.9153 111.917 36.046C111.786 36.1767 111.709 36.3797 111.686 36.655H113.149C113.149 36.501 113.121 36.3633 113.065 36.242C113.014 36.1207 112.934 36.025 112.827 35.955C112.72 35.885 112.584 35.85 112.421 35.85ZM115.696 36.935L115.059 35.71H115.983L116.606 36.935L115.983 38.16H115.059L115.696 36.935ZM117.152 36.935L116.508 35.71H117.432L118.055 36.935L117.432 38.16H116.508L117.152 36.935Z" fill="#1F1A17"/>
</g>
<defs>
<clipPath id="clip0_136_8569">
<rect width="145" height="42" fill="white" transform="translate(0.5)"/>
</clipPath>
</defs>
</svg>
