<svg width="146" height="118" viewBox="0 0 146 118" fill="none" xmlns="http://www.w3.org/2000/svg">
<g clip-path="url(#clip0_117_7812)">
<rect x="0.5" width="145" height="118" rx="24" fill="white"/>
<g clip-path="url(#clip1_117_7812)">
<path d="M33.3327 41.3353C33.3327 44.1023 33.2585 44.6706 32.9617 44.6706C32.6896 44.6706 32.5907 44.2012 32.5412 42.4223L32.467 40.1494L31.5765 39.4329L30.686 38.7165L29.3998 39.4823C27.8414 40.4459 27.9157 40.7917 29.474 39.8776C30.0924 39.5317 30.6118 39.3094 30.6613 39.4082C30.7108 39.5317 30.7602 40.0506 30.7602 40.5694C30.7355 41.5329 30.7108 41.5576 29.5235 41.8541C28.8556 42.027 28.2125 42.2741 28.0641 42.4223C27.6683 42.8176 28.1135 42.7682 29.375 42.3235C30.4634 41.9282 30.8592 42.0023 30.8592 42.5706C30.8592 42.7929 30.3397 43.0153 29.375 43.2129C28.5588 43.3612 27.8909 43.6082 27.8909 43.7565C27.8909 43.9788 29.0287 43.88 30.315 43.5341C30.7355 43.4106 30.8592 43.4847 30.8592 43.88C30.8592 44.3 30.6118 44.4235 29.4492 44.6212C28.2125 44.8435 27.9651 44.8188 27.693 44.4729C27.0004 43.5588 19.3572 44.2753 15.2264 45.6588C3.18019 49.6859 -2.4595 59.3706 2.04236 68.2894C2.88336 69.92 4.96114 72.6129 5.18376 72.3412C5.23323 72.267 5.48059 70.7847 5.72794 69.0059C5.9753 67.227 6.24739 65.4235 6.32159 64.9541C6.47 64.04 6.56895 64.0647 4.29328 64.7317C3.47701 64.9788 3.3286 64.9788 3.10598 64.6082C2.9823 64.3612 2.78442 64.2376 2.63601 64.3117C2.51233 64.4106 2.41339 64.3117 2.41339 64.1388C2.41339 63.9412 2.95757 63.2741 3.60069 62.6317C4.61484 61.6188 4.91167 61.4706 5.80215 61.4706C6.64315 61.4706 6.84104 61.3717 6.96471 60.9023C7.28627 59.667 6.86577 59.42 5.50532 60.0376C4.98588 60.2847 4.78799 60.26 4.46643 59.9141C4.07066 59.5188 4.0954 59.42 5.01061 58.5059C5.75268 57.74 6.17318 57.5176 6.79157 57.5176C7.48416 57.5176 7.60784 57.4188 7.60784 56.9247C7.60784 55.64 7.90466 54.8 8.37463 54.8C8.72093 54.8 8.86934 55.0717 8.99302 56.0353C9.09196 56.7023 9.24038 57.2706 9.31458 57.2706C9.41352 57.2706 9.85876 56.8753 10.3287 56.4059C10.9471 55.7635 11.0708 55.5412 10.7492 55.5412C10.0814 55.5412 10.2545 55.1706 11.2192 54.4294C12.3323 53.5894 12.7528 52.6012 12.1839 52.1812C11.8376 51.9341 11.9118 51.7859 12.7281 51.1188C13.3465 50.6 13.8906 50.3529 14.2864 50.4023C14.8306 50.4765 14.9295 50.3529 15.1274 49.4141C15.3995 48.08 15.9932 48.1047 16.3642 49.4882C16.6115 50.3529 16.7352 50.4765 17.2794 50.4023C17.6257 50.3529 18.0462 50.5012 18.2441 50.6988C18.4172 50.9212 18.6893 51.0941 18.8872 51.0941C19.4561 51.0941 20.8166 50.1553 21.5339 49.2412C21.9049 48.7717 22.4244 48.3765 22.6965 48.3765C23.018 48.3765 23.1912 48.1788 23.2406 47.7094C23.3396 46.7706 23.859 46.7212 24.0569 47.66C24.2301 48.4259 24.2301 48.4259 25.5163 48.2776C26.2089 48.2035 27.693 48.08 28.8309 48.0306C30.6366 47.9317 30.8592 47.9565 30.8592 48.3517C30.8592 48.7223 30.5871 48.8212 29.3256 48.9447C28.3609 49.0188 27.7178 48.9941 27.6188 48.8212C27.5199 48.6482 27.0994 48.6235 26.5305 48.7223C25.0463 49.0188 25.8626 49.4141 27.9404 49.4388C28.9298 49.4388 29.9934 49.3647 30.315 49.2659C30.8344 49.0929 30.8839 49.1423 30.8097 49.6612C30.7355 50.18 30.5871 50.2294 29.2761 50.3035C28.4846 50.3529 27.693 50.2541 27.5694 50.1306C27.2725 49.8341 26.1842 49.7847 25.5658 50.007C25.2195 50.1306 25.269 50.2541 25.7884 50.7482C26.4563 51.3659 27.1241 51.5141 27.5199 51.1188C27.6683 50.9953 28.4846 50.847 29.375 50.7976C30.686 50.7482 30.9828 50.7976 30.9828 51.0941C30.9828 51.3659 30.4881 51.5141 28.9545 51.687C27.8167 51.8106 26.9015 51.9835 26.9015 52.0823C26.9015 52.1565 27.8662 52.1812 29.0287 52.1317C31.0076 52.0329 31.156 52.0576 31.0571 52.4776C30.9828 52.8729 30.7108 52.9717 29.5482 53.0212C28.7814 53.0706 27.7672 52.9965 27.322 52.8729C26.6294 52.6753 26.4068 52.7247 25.7389 53.2929C25.0463 53.8612 24.9721 54.0341 25.1453 54.8C25.2442 55.2694 25.4668 55.64 25.6153 55.6153C27.0746 55.2941 29.5235 55.0223 29.8945 55.1212C30.1418 55.1953 30.785 55.1459 31.2797 55.0223C31.9723 54.8741 32.3186 54.8988 32.5412 55.1459C32.8133 55.4176 32.5412 55.5659 30.9086 56.0106C27.0252 57.0482 24.0817 58.5306 23.3396 59.7659C22.4491 61.2482 22.9438 61.8906 27.0252 64.6329C33.0359 68.6847 36.2515 71.6988 37.884 74.787C38.3787 75.7259 38.7745 76.6647 38.7745 76.887C38.7745 77.4059 38.824 77.4059 40.3329 76.64C44.8842 74.3176 48.1987 70.8588 49.856 66.6588C50.4002 65.2753 50.4991 64.6576 50.4991 62.2117C50.5239 58.8765 50.0292 57.0482 48.3719 54.5282C46.7146 51.9341 42.0643 47.7588 41.7922 48.5741C41.7428 48.7717 41.1244 48.8706 40.1102 48.8706C38.7003 48.8706 38.5272 48.8212 38.5272 48.3765C38.5272 47.7588 38.1067 47.7094 37.983 48.3023C37.8593 48.9447 38.8487 49.3647 40.4071 49.3647C41.4212 49.3647 41.7428 49.4635 41.7428 49.7353C41.7428 50.0317 41.3965 50.1059 40.135 50.1059C38.8735 50.1059 38.5272 50.0317 38.5272 49.7353C38.5272 49.5376 38.4282 49.3647 38.2798 49.3647C37.9335 49.3647 37.9582 49.6859 38.3293 50.0565C38.5766 50.3035 38.5766 50.427 38.2798 50.6C37.983 50.7976 37.9582 50.9212 38.2303 51.3412C38.3787 51.6129 38.5272 52.3788 38.5272 53.0459V54.2565L37.6367 53.9847C36.9194 53.7623 36.7957 53.6141 36.8946 53.2188C36.9688 52.9223 37.043 50.9459 37.043 48.7965C37.043 45.807 37.1172 44.9176 37.3646 44.9176C37.5872 44.9176 37.6614 45.3623 37.6614 46.5235C37.6367 47.5612 37.7109 48.0059 37.8346 47.7588C37.9582 47.5612 37.983 47.2647 37.9088 47.1412C37.8346 46.9929 37.8593 46.8941 37.9582 46.8941C38.0819 46.8941 38.3045 47.1165 38.4777 47.3882C38.725 47.7835 39.0466 47.8823 40.135 47.8823C41.9407 47.8823 41.8912 47.4376 40.0855 47.3388C38.9971 47.2894 38.6508 47.1659 38.6508 46.8941C38.6508 46.5976 38.9724 46.5235 40.135 46.5235H41.6191V45.2882V44.0776L40.2834 43.7565C38.9971 43.4106 38.9229 43.4353 38.0077 44.0282C37.4883 44.3741 37.0183 44.5717 36.9441 44.4729C36.8946 44.3741 36.8699 42.867 36.8699 41.1376L36.9194 38H35.1384H33.3327V41.3353ZM34.6932 38.9388C34.7179 39.26 34.5695 39.6059 34.3469 39.7294C33.9758 39.9517 33.9758 39.9517 34.3469 39.9765C34.6684 39.9765 34.7426 40.2976 34.7179 41.8294C34.7179 43.5341 34.6684 43.6823 34.1985 43.6823C33.7038 43.6823 33.679 43.5588 33.679 40.9647C33.679 38.3706 33.7038 38.2223 34.1737 38.2965C34.4706 38.3459 34.6684 38.5682 34.6932 38.9388ZM36.301 39.7294C36.301 41.1376 36.2762 41.2117 35.7073 41.2117C35.1384 41.2117 35.1137 41.1376 35.1879 39.7788C35.2868 38.0741 35.2126 38.247 35.8063 38.247C36.2515 38.247 36.301 38.42 36.301 39.7294ZM36.301 42.5706C36.301 43.5835 36.2515 43.6823 35.7073 43.6823C35.1879 43.6823 35.1384 43.5835 35.2126 42.62C35.2373 42.0517 35.2868 41.5576 35.2868 41.5082C35.3116 41.4835 35.5342 41.4588 35.8063 41.4588C36.2268 41.4588 36.301 41.6317 36.301 42.5706ZM34.6932 44.3C34.6932 44.4235 34.4458 44.5717 34.149 44.6212C33.7532 44.6706 33.5801 44.5717 33.5801 44.3C33.5801 44.0282 33.7532 43.9294 34.149 43.9788C34.4458 44.0282 34.6932 44.1517 34.6932 44.3ZM36.301 44.3C36.301 44.6953 35.4352 44.8188 35.2126 44.4482C35.0147 44.1517 35.3116 43.9294 35.8557 43.9294C36.1031 43.9294 36.301 44.1023 36.301 44.3ZM38.725 45.2882C38.725 46.0788 38.6261 46.4 38.3787 46.4C38.1809 46.4 38.0077 46.1776 38.0077 45.9059C37.983 45.6341 37.9582 45.2635 37.9335 45.0906C37.8593 44.7447 38.2551 44.1765 38.5272 44.1765C38.6508 44.1765 38.725 44.6706 38.725 45.2882ZM30.8592 45.2882C30.8592 45.7329 30.6613 45.807 28.9298 46.0294C27.7425 46.1529 27.6188 46.1282 27.693 45.7329C27.8167 45.0165 30.8592 44.5965 30.8592 45.2882ZM34.8168 45.1647C34.8168 45.2882 34.6932 45.4117 34.52 45.4117C34.2974 45.4117 34.2974 45.4859 34.52 45.7082C34.9653 46.1529 34.8663 46.4 34.2479 46.4C33.7532 46.4 33.6543 46.2765 33.6543 45.6588C33.6543 45.0412 33.7532 44.9176 34.2479 44.9176C34.5695 44.9176 34.8168 45.0165 34.8168 45.1647ZM36.2515 45.2141C36.1773 45.387 35.9299 45.5353 35.6826 45.5353C35.4352 45.5353 35.1879 45.387 35.1384 45.2141C35.0642 45.0412 35.2621 44.9176 35.6826 44.9176C36.1031 44.9176 36.301 45.0412 36.2515 45.2141ZM36.301 46.1529C36.301 46.2765 36.0289 46.4 35.6826 46.4C35.3363 46.4 35.0642 46.2765 35.0642 46.1529C35.0642 46.0047 35.3363 45.9059 35.6826 45.9059C36.0289 45.9059 36.301 46.0047 36.301 46.1529ZM30.785 46.9929C30.5623 47.5365 27.6436 47.5612 27.6436 47.0423C27.6436 46.82 28.1383 46.6223 29.0782 46.4741C30.5623 46.227 31.0076 46.3753 30.785 46.9929ZM34.7179 46.9188C34.7921 47.067 34.7179 47.2894 34.5448 47.4129C34.2974 47.5612 34.2727 47.6353 34.52 47.6353C34.6684 47.6353 34.8168 47.7341 34.8168 47.8823C34.8168 48.0059 34.5448 48.1294 34.2232 48.1294C33.7038 48.1294 33.6295 48.0306 33.679 47.4376C33.8027 46.5976 33.7532 46.647 34.1737 46.647C34.3716 46.647 34.619 46.7706 34.7179 46.9188ZM36.301 47.0176C36.301 47.24 36.0784 47.3882 35.6826 47.3882C35.0889 47.3882 34.8911 47.1412 35.2373 46.82C35.5342 46.4988 36.301 46.647 36.301 47.0176ZM36.301 47.8823C36.301 48.0059 36.0289 48.1294 35.6826 48.1294C35.3363 48.1294 35.0642 48.0059 35.0642 47.8823C35.0642 47.7341 35.3363 47.6353 35.6826 47.6353C36.0289 47.6353 36.301 47.7341 36.301 47.8823ZM34.7179 50.4765C34.7179 52.2306 34.6932 52.3294 34.1737 52.3294C33.679 52.3294 33.6295 52.2306 33.6543 50.4765C33.6543 48.747 33.679 48.6235 34.1985 48.6235C34.6932 48.6235 34.7179 48.747 34.7179 50.4765ZM36.2268 50.4765C36.2515 52.2059 36.202 52.3294 35.7073 52.3294C35.2126 52.3294 35.1879 52.2059 35.1879 50.4765C35.1879 48.747 35.2373 48.6235 35.7073 48.6235C36.1773 48.6235 36.2268 48.7717 36.2268 50.4765ZM41.9407 51.1435C42.0149 51.5388 41.817 51.5882 40.2834 51.5882C38.6756 51.5882 38.5272 51.5388 38.5272 51.0941C38.5272 50.6247 38.6508 50.5753 40.1844 50.6494C41.5449 50.6988 41.8665 50.7976 41.9407 51.1435ZM34.7674 52.8729C34.6932 53.0459 34.4458 53.1941 34.1985 53.1941C33.9511 53.1941 33.7038 53.0459 33.6543 52.8729C33.5801 52.7 33.778 52.5765 34.1985 52.5765C34.619 52.5765 34.8168 52.7 34.7674 52.8729ZM36.301 52.9717C36.301 53.2188 36.1278 53.3176 35.7568 53.2682C34.9653 53.1447 34.8911 52.5765 35.6579 52.5765C36.0784 52.5765 36.301 52.7 36.301 52.9717Z" fill="#1F1A17"/>
<path d="M21.3609 50.3283C20.8414 50.7483 20.223 51.1436 19.9509 51.2177C19.7036 51.3165 19.481 51.4895 19.481 51.613C19.481 52.0577 20.223 51.8107 21.0393 51.0942C21.5093 50.6742 22.1524 50.353 22.4492 50.353C22.746 50.353 22.9439 50.2295 22.8945 50.0565C22.6966 49.513 22.3008 49.5871 21.3609 50.3283Z" fill="#1F1A17"/>
<path d="M24.4277 49.8588C24.4277 49.9823 24.5514 50.1058 24.6751 50.1058C24.8235 50.1058 24.9224 49.9823 24.9224 49.8588C24.9224 49.7105 24.8235 49.6117 24.6751 49.6117C24.5514 49.6117 24.4277 49.7105 24.4277 49.8588Z" fill="#1F1A17"/>
<path d="M13.9153 51.3412C13.9895 51.4647 14.1626 51.5883 14.311 51.5883C14.4347 51.5883 14.5336 51.4647 14.5336 51.3412C14.5336 51.193 14.3605 51.0941 14.1379 51.0941C13.94 51.0941 13.8411 51.193 13.9153 51.3412Z" fill="#1F1A17"/>
<path d="M16.7598 51.3412C16.7598 51.4647 16.9082 51.5883 17.1061 51.5883C17.3039 51.5883 17.5513 51.4647 17.6255 51.3412C17.6997 51.193 17.5513 51.0941 17.2792 51.0941C16.9824 51.0941 16.7598 51.193 16.7598 51.3412Z" fill="#1F1A17"/>
<path d="M24.6753 51.3412C24.6753 51.4647 24.7742 51.5883 24.8979 51.5883C25.0463 51.5883 25.2195 51.4647 25.2937 51.3412C25.3679 51.193 25.2689 51.0941 25.0711 51.0941C24.8484 51.0941 24.6753 51.193 24.6753 51.3412Z" fill="#1F1A17"/>
<path d="M17.1061 52.2307C16.933 52.3048 16.8587 52.5766 16.933 52.8236C17.1803 53.7871 18.7386 53.3424 18.7386 52.3048C18.7386 52.0824 17.6008 52.033 17.1061 52.2307Z" fill="#1F1A17"/>
<path d="M19.8272 52.3295C19.3077 52.5271 18.8625 53.2683 19.1098 53.5153C19.184 53.5894 19.6045 53.3177 20.0498 52.873C20.8413 52.0824 20.7918 51.9342 19.8272 52.3295Z" fill="#1F1A17"/>
<path d="M24.9229 52.7C24.9229 52.8976 25.0218 53.0706 25.1455 53.0706C25.2691 53.0706 25.4918 52.8976 25.6649 52.7C25.9123 52.3788 25.8875 52.3294 25.4423 52.3294C25.1455 52.3294 24.9229 52.4776 24.9229 52.7Z" fill="#1F1A17"/>
<path d="M13.3714 52.8235C12.5551 53.1447 12.6788 53.3176 13.6682 53.3176C14.2619 53.3176 14.5339 53.1941 14.5339 52.947C14.5339 52.527 14.1877 52.5023 13.3714 52.8235Z" fill="#1F1A17"/>
<path d="M15.6719 52.947C15.5977 53.1694 15.6719 53.3176 15.8945 53.3176C16.0924 53.3176 16.2655 53.1447 16.2655 52.947C16.2655 52.7494 16.1666 52.5765 16.0429 52.5765C15.9192 52.5765 15.7708 52.7494 15.6719 52.947Z" fill="#1F1A17"/>
<path d="M20.3467 53.2436L19.6294 53.8859L20.4457 54.5777C21.1135 55.1212 21.3856 55.2201 21.7566 55.0224C22.004 54.8989 22.2019 54.5283 22.2019 54.2318C22.2019 53.9354 22.2761 53.4412 22.3503 53.1201C22.4987 52.6506 22.4245 52.5765 21.8061 52.5765C21.3856 52.5765 20.7672 52.873 20.3467 53.2436Z" fill="#1F1A17"/>
<path d="M23.6611 52.9718C23.4137 53.293 23.4137 53.3918 23.6858 53.5647C24.1805 53.8612 24.4031 53.6635 24.2547 53.0706C24.1063 52.4777 24.0816 52.4777 23.6611 52.9718Z" fill="#1F1A17"/>
<path d="M12.6784 54.0588C12.6042 54.1824 12.7032 54.3059 12.9011 54.3059C13.1237 54.3059 13.2968 54.1824 13.2968 54.0588C13.2968 53.9106 13.1979 53.8118 13.0742 53.8118C12.9258 53.8118 12.7527 53.9106 12.6784 54.0588Z" fill="#1F1A17"/>
<path d="M22.9438 54.0588C22.9438 54.1824 23.0675 54.3059 23.1912 54.3059C23.3396 54.3059 23.4386 54.1824 23.4386 54.0588C23.4386 53.9106 23.3396 53.8118 23.1912 53.8118C23.0675 53.8118 22.9438 53.9106 22.9438 54.0588Z" fill="#1F1A17"/>
<path d="M13.4208 54.553C13.3466 54.6765 13.495 54.8 13.7918 54.8C14.0886 54.8 14.237 54.6765 14.1628 54.553C14.0886 54.4048 13.9155 54.3059 13.7918 54.3059C13.6681 54.3059 13.495 54.4048 13.4208 54.553Z" fill="#1F1A17"/>
<path d="M15.2759 54.553C15.2759 54.6765 15.3996 54.8 15.5232 54.8C15.6716 54.8 15.7706 54.6765 15.7706 54.553C15.7706 54.4048 15.6716 54.3059 15.5232 54.3059C15.3996 54.3059 15.2759 54.4048 15.2759 54.553Z" fill="#1F1A17"/>
<path d="M18.9863 54.553C18.9863 54.6765 19.1595 54.8 19.3821 54.8C19.58 54.8 19.6789 54.6765 19.6047 54.553C19.5305 54.4048 19.3574 54.3059 19.2089 54.3059C19.0853 54.3059 18.9863 54.4048 18.9863 54.553Z" fill="#1F1A17"/>
<path d="M23.3889 54.7753C22.9931 54.9976 22.6963 55.3188 22.6963 55.5164C22.6963 55.7635 22.8942 55.6894 23.3889 55.2694C23.7599 54.9482 24.1062 54.6517 24.1557 54.6023C24.2052 54.5776 24.2052 54.5035 24.1557 54.4788C24.1062 54.4294 23.7599 54.5529 23.3889 54.7753Z" fill="#1F1A17"/>
<path d="M23.8097 55.5412C23.3644 56.0353 23.5376 56.1588 24.2797 55.887C24.7002 55.7388 24.8486 55.047 24.4775 55.047C24.3539 55.047 24.057 55.2694 23.8097 55.5412Z" fill="#1F1A17"/>
<path d="M15.3502 55.4671C14.9791 55.5413 14.7812 55.7636 14.7812 56.0601C14.7812 56.5295 14.806 56.5295 15.3996 56.1095C15.7212 55.8624 16.018 55.5907 16.018 55.4671C16.018 55.3683 15.9933 55.3189 15.9686 55.3189C15.9191 55.3436 15.647 55.4177 15.3502 55.4671Z" fill="#1F1A17"/>
<path d="M12.5551 55.7635C11.7883 55.887 11.6893 56.0105 11.4914 57.0235C11.2935 58.0364 11.3183 58.1599 11.9367 58.6788C12.8766 59.4941 13.4208 59.1235 13.6434 57.5176C13.7424 56.8258 13.866 56.1094 13.9402 55.9117C14.0887 55.5164 13.9897 55.5164 12.5551 55.7635Z" fill="#1F1A17"/>
<path d="M17.6504 55.7389C17.502 55.986 17.9967 58.2589 18.1946 58.2589C18.813 58.2095 20.1487 56.0601 19.7776 55.6895C19.5798 55.4671 17.7988 55.5166 17.6504 55.7389Z" fill="#1F1A17"/>
<path d="M20.9402 55.9118C20.3465 56.2329 19.8271 56.9741 20.0497 57.1718C20.0991 57.2212 20.5444 57.0729 21.0391 56.8506C21.608 56.5788 21.9543 56.2576 21.9543 55.9859C21.9543 55.467 21.8059 55.4423 20.9402 55.9118Z" fill="#1F1A17"/>
<path d="M15.7952 56.4553C15.1026 56.9247 15.0284 57.0482 15.3994 57.1717C15.6467 57.2706 15.993 57.147 16.3146 56.8259C17.0814 56.06 16.7351 55.8129 15.7952 56.4553Z" fill="#1F1A17"/>
<path d="M10.4524 57.0235C10.0814 57.4435 10.0567 57.5176 10.3782 57.5176C10.6009 57.5176 10.8482 57.3446 10.9224 57.1223C11.1698 56.5046 10.9472 56.4552 10.4524 57.0235Z" fill="#1F1A17"/>
<path d="M16.5372 57.3694C16.3146 57.6165 16.3394 57.74 16.6362 57.8635C16.8835 57.9623 17.0072 57.8388 17.0072 57.5176C17.0072 56.9247 16.9083 56.9 16.5372 57.3694Z" fill="#1F1A17"/>
<path d="M14.4598 57.6906C14.3608 57.7647 14.2866 58.0118 14.2866 58.2094C14.2866 58.5059 14.3608 58.5059 14.6577 58.2588C14.8555 58.0859 15.0287 57.8635 15.0287 57.74C15.0287 57.4682 14.6824 57.4435 14.4598 57.6906Z" fill="#1F1A17"/>
<path d="M15.0039 58.6541C14.5092 59.0247 14.0887 59.5682 14.0145 59.9882C13.9156 60.4082 13.8908 60.7294 13.965 60.7294C14.1382 60.7294 16.7354 58.8764 16.7601 58.7529C16.7601 58.6788 16.5622 58.5058 16.2902 58.3329C15.8944 58.0858 15.6718 58.1353 15.0039 58.6541Z" fill="#1F1A17"/>
<path d="M9.90819 58.4318C9.53716 58.58 9.48769 59.2471 9.83399 59.2471C9.9824 59.2471 10.0813 59.0988 10.0813 58.9012C10.0813 58.7035 10.2298 58.4812 10.4029 58.4318C10.5513 58.3577 10.6008 58.3082 10.4524 58.3082C10.3287 58.3082 10.0566 58.3577 9.90819 58.4318Z" fill="#1F1A17"/>
<path d="M20.965 58.6295C20.7919 58.8519 20.6929 59.0742 20.7671 59.1236C20.8413 59.1977 21.0392 59.0989 21.2124 58.8766C21.3855 58.6542 21.4844 58.4319 21.4102 58.3824C21.336 58.3083 21.1381 58.4071 20.965 58.6295Z" fill="#1F1A17"/>
<path d="M6.54415 58.6788C6.24732 58.9753 6.371 59.2223 6.74203 59.0988C6.93992 59 7.11306 58.8517 7.11306 58.7282C7.11306 58.4564 6.76677 58.4317 6.54415 58.6788Z" fill="#1F1A17"/>
<path d="M5.25794 59C5.18389 59.1235 5.23325 59.2471 5.35667 59.2471C5.50477 59.2471 5.62819 59.1235 5.62819 59C5.62819 58.8518 5.57882 58.753 5.52945 58.753C5.4554 58.753 5.33199 58.8518 5.25794 59Z" fill="#1F1A17"/>
<path d="M8.10254 59C8.10254 59.1235 8.22622 59.2471 8.34989 59.2471C8.49831 59.2471 8.59725 59.1235 8.59725 59C8.59725 58.8518 8.49831 58.753 8.34989 58.753C8.22622 58.753 8.10254 58.8518 8.10254 59Z" fill="#1F1A17"/>
<path d="M10.9469 59C11.021 59.1235 11.1444 59.2471 11.2184 59.2471C11.2678 59.2471 11.3172 59.1235 11.3172 59C11.3172 58.8518 11.1937 58.753 11.0456 58.753C10.9222 58.753 10.8729 58.8518 10.9469 59Z" fill="#1F1A17"/>
<path d="M15.1521 60.6306C13.5442 61.8659 12.8022 62.2365 12.8022 61.767C12.8022 61.6682 12.9011 61.1741 13.0248 60.6553C13.2227 59.8647 13.1732 59.7412 12.8269 59.7412C12.6043 59.7412 12.2827 59.8647 12.1343 60.0129C11.9364 60.2106 11.8128 60.2106 11.7138 60.0129C11.417 59.5682 10.3781 59.6918 10.0813 60.2106C9.58657 61.1741 9.75972 61.4706 10.8481 61.4706C11.7138 61.4706 12.0106 61.6435 13.1485 62.7059L14.4595 63.9412L15.4736 63.2C16.3641 62.5576 16.4878 62.36 16.3641 61.7423C16.2651 61.3223 16.3888 60.7294 16.6362 60.2353C16.8588 59.8153 17.0072 59.42 16.9577 59.3953C16.9083 59.3459 16.1167 59.9141 15.1521 60.6306Z" fill="#1F1A17"/>
<path d="M19.8769 59.8894C19.7779 60.1117 19.7779 60.3588 19.8274 60.4082C20.0253 60.6059 20.4705 60.2106 20.4705 59.84C20.4705 59.3706 20.0748 59.3953 19.8769 59.8894Z" fill="#1F1A17"/>
<path d="M8.25091 60.8777C8.15197 61.1 8.15197 61.3471 8.20144 61.3965C8.39932 61.5941 8.84456 61.1988 8.84456 60.8283C8.84456 60.3588 8.4488 60.3836 8.25091 60.8777Z" fill="#1F1A17"/>
<path d="M19.5799 61.3717C19.6541 61.594 19.7283 61.8658 19.7283 61.9893C19.7283 62.1128 19.9015 62.2117 20.1241 62.2117C20.3962 62.2117 20.4704 62.0881 20.3715 61.8164C20.2973 61.594 20.2231 61.3223 20.2231 61.1987C20.2231 61.0752 20.0499 60.9764 19.8273 60.9764C19.5552 60.9764 19.481 61.0999 19.5799 61.3717Z" fill="#1F1A17"/>
<path d="M5.20859 62.1376C4.83756 62.2611 4.76335 62.9529 5.10965 62.9529C5.30753 62.9529 5.72804 62.2117 5.57962 62.0882C5.53015 62.0635 5.357 62.0882 5.20859 62.1376Z" fill="#1F1A17"/>
<path d="M8.72083 62.4589C8.79488 62.5824 8.91829 62.7059 8.99234 62.7059C9.04171 62.7059 9.09108 62.5824 9.09108 62.4589C9.09108 62.3106 8.96766 62.2118 8.81956 62.2118C8.69614 62.2118 8.64678 62.3106 8.72083 62.4589Z" fill="#1F1A17"/>
<path d="M10.8232 62.3106C10.8232 62.36 10.9964 62.5329 11.1943 62.7059C11.4911 62.9529 11.5653 62.9529 11.5653 62.6071C11.5653 62.3847 11.3922 62.2118 11.1943 62.2118C10.9964 62.2118 10.8232 62.2612 10.8232 62.3106Z" fill="#1F1A17"/>
<path d="M5.75268 62.9529C5.13429 63.62 5.50532 63.9164 6.14844 63.2741C6.44527 63.0023 6.56895 62.7059 6.42053 62.607C6.29686 62.5329 6.00003 62.6812 5.75268 62.9529Z" fill="#1F1A17"/>
<path d="M10.1803 62.78C10.0072 63.2741 10.2545 63.6941 10.7245 63.6941C11.1698 63.6941 11.145 63.447 10.6998 62.8541C10.3782 62.4341 10.3288 62.4341 10.1803 62.78Z" fill="#1F1A17"/>
<path d="M7.90441 63.0023C7.45917 63.447 7.53338 63.6941 8.1023 63.6941C8.62174 63.6941 8.72068 63.5212 8.39912 63.027C8.25071 62.78 8.12703 62.78 7.90441 63.0023Z" fill="#1F1A17"/>
<path d="M12.0601 63.2C12.0601 63.5459 12.2332 63.6941 12.6042 63.6941C13.0989 63.6941 13.1237 63.6694 12.6784 63.2C12.4311 62.9282 12.1837 62.7059 12.1343 62.7059C12.1095 62.7059 12.0601 62.9282 12.0601 63.2Z" fill="#1F1A17"/>
<path d="M20.1486 62.8541C20.0002 63.0024 20.9401 64.4353 21.1875 64.4353C21.2617 64.4353 21.4843 64.3365 21.6575 64.2129C21.9296 64.0647 21.8554 63.8671 21.3359 63.3482C20.6928 62.7059 20.4207 62.5824 20.1486 62.8541Z" fill="#1F1A17"/>
<path d="M3.87275 63.3482C3.57592 63.6941 3.60066 63.7435 3.99643 63.6694C4.26852 63.6199 4.51587 63.4223 4.59008 63.2494C4.71375 62.8294 4.26852 62.8788 3.87275 63.3482Z" fill="#1F1A17"/>
<path d="M15.6471 63.7682C15.0287 64.2129 14.4598 64.4352 14.1135 64.3611C13.7425 64.287 13.5446 64.3858 13.5446 64.5834C13.5446 65.0282 12.9015 65.0282 12.7283 64.6082C12.6541 64.4105 12.2336 64.3364 11.4668 64.3858C10.1311 64.5093 10.1558 64.114 10.9226 68.8823C11.2442 70.8587 11.4173 72.5634 11.3184 72.687C10.9721 73.0329 10.6011 72.6129 10.4527 71.6493C10.3537 71.1552 10.23 70.4387 10.1558 70.0434L10.0322 69.3517L8.54804 70.6611C7.73177 71.3776 6.76708 72.2176 6.39605 72.5387L5.75293 73.0823L6.61867 73.8482C8.69645 75.6764 11.3679 77.1093 15.0287 78.3693L17.6012 79.2834L19.6543 77.1834C22.4741 74.3176 23.1667 72.687 22.3504 70.7846C22.1773 70.3399 21.1879 69.0799 20.1984 67.9434C19.1843 66.807 17.9722 65.2505 17.5023 64.4599L16.6365 63.0517L15.6471 63.7682Z" fill="#1F1A17"/>
<path d="M7.31116 64.9047C6.94013 65.9177 7.21222 65.9671 8.07796 65.0777L8.89423 64.2377L8.22638 64.2624C7.7564 64.3118 7.48431 64.4847 7.31116 64.9047Z" fill="#1F1A17"/>
<path d="M21.8555 64.88C21.7813 65.0035 22.0534 65.3988 22.4491 65.7941C22.9933 66.3129 23.3149 66.4365 23.7848 66.3129C24.6258 66.1153 24.6011 65.9176 23.6117 65.2259C22.7707 64.6576 22.0781 64.5341 21.8555 64.88Z" fill="#1F1A17"/>
<path d="M8.42418 65.6706C7.97894 66.0659 7.60791 66.4364 7.60791 66.5106C7.60791 66.6588 9.63622 67.9435 9.71042 67.8447C9.85884 67.6964 9.53728 64.9294 9.36413 64.9294C9.28992 64.9294 8.84468 65.2753 8.42418 65.6706Z" fill="#1F1A17"/>
<path d="M24.4777 66.9305C23.9088 67.1529 23.9088 67.1776 25.0961 68.5117C26.0113 69.5494 26.407 69.8211 26.7781 69.7223C27.7922 69.4258 27.7427 69.1294 26.5307 67.8941C25.8629 67.2023 25.2445 66.6588 25.1703 66.6835C25.0961 66.6835 24.7992 66.7823 24.4777 66.9305Z" fill="#1F1A17"/>
<path d="M6.5936 69.4258C6.37098 70.6858 6.19784 71.7482 6.22257 71.7729C6.24731 71.7976 7.03884 71.1305 7.97879 70.2658L9.68554 68.7094L8.96821 68.2647C7.55829 67.4 7.13778 67.1529 7.03884 67.1529C7.01411 67.1529 6.79149 68.1905 6.5936 69.4258Z" fill="#1F1A17"/>
<path d="M27.5695 70.513L26.877 70.8836L27.3964 71.7977C27.6685 72.2918 28.0643 73.2059 28.2374 73.8236C28.559 74.9106 28.6084 74.9353 29.4989 74.8859C30.0184 74.8365 30.4883 74.7624 30.5378 74.713C30.7109 74.54 29.3752 71.4765 28.8063 70.8095C28.2869 70.1671 28.2374 70.1671 27.5695 70.513Z" fill="#1F1A17"/>
<path d="M29.5233 76.0224C28.9296 76.1459 28.7565 76.3435 28.5091 77.3318C28.3607 77.9494 28.0391 78.7647 27.8165 79.1106C27.2476 79.9753 27.2724 80 28.336 80C30.0675 80 30.3148 79.8271 30.6116 78.3694C30.9085 76.9118 30.8837 75.9976 30.488 75.9235C30.3643 75.8741 29.919 75.9235 29.5233 76.0224Z" fill="#1F1A17"/>
<path d="M62.287 42.002V42.877H60.187V47H59.13V42.002H62.287ZM66.2296 45.082C66.2296 45.3993 66.1853 45.6817 66.0966 45.929C66.0126 46.1763 65.889 46.3863 65.7256 46.559C65.567 46.727 65.3733 46.8553 65.1446 46.944C64.916 47.028 64.657 47.07 64.3676 47.07C64.1016 47.07 63.8543 47.028 63.6256 46.944C63.4016 46.8553 63.208 46.727 63.0446 46.559C62.8813 46.3863 62.753 46.1763 62.6596 45.929C62.571 45.6817 62.5266 45.3993 62.5266 45.082C62.5266 44.6573 62.6013 44.3003 62.7506 44.011C62.9 43.717 63.1146 43.493 63.3946 43.339C63.6746 43.185 64.006 43.108 64.3886 43.108C64.748 43.108 65.0653 43.185 65.3406 43.339C65.616 43.493 65.833 43.717 65.9916 44.011C66.1503 44.3003 66.2296 44.6573 66.2296 45.082ZM63.5906 45.082C63.5906 45.334 63.6163 45.5463 63.6676 45.719C63.7236 45.887 63.81 46.0153 63.9266 46.104C64.0433 46.188 64.195 46.23 64.3816 46.23C64.5683 46.23 64.7176 46.188 64.8296 46.104C64.9463 46.0153 65.0303 45.887 65.0816 45.719C65.1376 45.5463 65.1656 45.334 65.1656 45.082C65.1656 44.83 65.1376 44.62 65.0816 44.452C65.0303 44.284 64.9463 44.158 64.8296 44.074C64.713 43.99 64.5613 43.948 64.3746 43.948C64.0993 43.948 63.8986 44.0437 63.7726 44.235C63.6513 44.4217 63.5906 44.704 63.5906 45.082ZM68.9256 47.07C68.5476 47.07 68.2256 47.0023 67.9596 46.867C67.6936 46.727 67.4906 46.5123 67.3506 46.223C67.2106 45.9337 67.1406 45.5627 67.1406 45.11C67.1406 44.6433 67.22 44.263 67.3786 43.969C67.5373 43.675 67.7566 43.458 68.0366 43.318C68.3213 43.178 68.648 43.108 69.0166 43.108C69.278 43.108 69.5043 43.1337 69.6956 43.185C69.8916 43.2363 70.062 43.297 70.2066 43.367L69.8986 44.172C69.7353 44.1067 69.5813 44.053 69.4366 44.011C69.2966 43.969 69.1566 43.948 69.0166 43.948C68.8346 43.948 68.683 43.9923 68.5616 44.081C68.4403 44.165 68.3493 44.2933 68.2886 44.466C68.2326 44.634 68.2046 44.8463 68.2046 45.103C68.2046 45.355 68.235 45.565 68.2956 45.733C68.361 45.8963 68.4543 46.02 68.5756 46.104C68.697 46.1833 68.844 46.223 69.0166 46.223C69.236 46.223 69.4296 46.195 69.5976 46.139C69.7656 46.0783 69.929 45.9967 70.0876 45.894V46.783C69.929 46.8857 69.761 46.958 69.5836 47C69.411 47.0467 69.1916 47.07 68.9256 47.07ZM70.7013 43.178H71.8423L72.5633 45.327C72.5867 45.397 72.6053 45.467 72.6193 45.537C72.638 45.607 72.652 45.6793 72.6613 45.754C72.6753 45.8287 72.6847 45.908 72.6893 45.992H72.7103C72.7243 45.8707 72.743 45.7563 72.7663 45.649C72.7943 45.537 72.8247 45.4297 72.8573 45.327L73.5643 43.178H74.6843L73.0673 47.49C72.9693 47.7513 72.841 47.9707 72.6823 48.148C72.5283 48.3253 72.3487 48.4583 72.1433 48.547C71.938 48.6357 71.714 48.68 71.4713 48.68C71.3547 48.68 71.252 48.673 71.1633 48.659C71.0793 48.6497 71.0047 48.638 70.9393 48.624V47.798C70.9907 47.8073 71.0513 47.8167 71.1213 47.826C71.196 47.8353 71.273 47.84 71.3523 47.84C71.497 47.84 71.6207 47.8097 71.7233 47.749C71.8307 47.6883 71.9193 47.6043 71.9893 47.497C72.0593 47.3943 72.1153 47.2823 72.1573 47.161L72.2203 46.972L70.7013 43.178ZM78.813 43.178V46.237H79.373V48.372H78.435V47H75.866V48.372H74.928V46.237H75.25C75.418 45.9803 75.5603 45.6887 75.677 45.362C75.7936 45.0307 75.887 44.6783 75.957 44.305C76.027 43.9317 76.0783 43.556 76.111 43.178H78.813ZM76.986 43.962C76.9486 44.242 76.902 44.515 76.846 44.781C76.79 45.0423 76.72 45.2943 76.636 45.537C76.5566 45.7797 76.4586 46.013 76.342 46.237H77.77V43.962H76.986ZM81.8724 43.101C82.3857 43.101 82.7777 43.213 83.0484 43.437C83.3237 43.6563 83.4614 43.9947 83.4614 44.452V47H82.7334L82.5304 46.482H82.5024C82.3951 46.6173 82.2831 46.7293 82.1664 46.818C82.0544 46.9067 81.9237 46.9697 81.7744 47.007C81.6297 47.049 81.4501 47.07 81.2354 47.07C81.0114 47.07 80.8084 47.028 80.6264 46.944C80.4491 46.8553 80.3091 46.7223 80.2064 46.545C80.1037 46.363 80.0524 46.1343 80.0524 45.859C80.0524 45.453 80.1947 45.1543 80.4794 44.963C80.7641 44.767 81.1911 44.6597 81.7604 44.641L82.4254 44.62V44.452C82.4254 44.2513 82.3717 44.1043 82.2644 44.011C82.1617 43.9177 82.0171 43.871 81.8304 43.871C81.6437 43.871 81.4617 43.899 81.2844 43.955C81.1071 44.0063 80.9297 44.0717 80.7524 44.151L80.4094 43.444C80.6147 43.3367 80.8411 43.2527 81.0884 43.192C81.3404 43.1313 81.6017 43.101 81.8724 43.101ZM82.0194 45.243C81.6834 45.2523 81.4501 45.313 81.3194 45.425C81.1887 45.537 81.1234 45.684 81.1234 45.866C81.1234 46.0247 81.1701 46.139 81.2634 46.209C81.3567 46.2743 81.4781 46.307 81.6274 46.307C81.8514 46.307 82.0404 46.2417 82.1944 46.111C82.3484 45.9757 82.4254 45.7867 82.4254 45.544V45.229L82.0194 45.243ZM86.937 43.108C87.3663 43.108 87.714 43.276 87.98 43.612C88.246 43.9433 88.379 44.4333 88.379 45.082C88.379 45.516 88.316 45.8823 88.19 46.181C88.064 46.475 87.8913 46.6967 87.672 46.846C87.4527 46.9953 87.1983 47.07 86.909 47.07C86.727 47.07 86.5683 47.0467 86.433 47C86.3023 46.9533 86.1903 46.8927 86.097 46.818C86.0037 46.7433 85.922 46.664 85.852 46.58H85.796C85.8147 46.6687 85.8287 46.762 85.838 46.86C85.8473 46.9533 85.852 47.0467 85.852 47.14V48.68H84.809V43.178H85.656L85.803 43.675H85.852C85.922 43.5723 86.006 43.479 86.104 43.395C86.202 43.3063 86.3187 43.2363 86.454 43.185C86.594 43.1337 86.755 43.108 86.937 43.108ZM86.601 43.941C86.419 43.941 86.2743 43.9783 86.167 44.053C86.0597 44.1277 85.9803 44.242 85.929 44.396C85.8823 44.5453 85.8567 44.7343 85.852 44.963V45.075C85.852 45.3223 85.8753 45.5323 85.922 45.705C85.9687 45.873 86.048 46.0013 86.16 46.09C86.272 46.1787 86.4237 46.223 86.615 46.223C86.7737 46.223 86.9043 46.1787 87.007 46.09C87.1097 46.0013 87.1867 45.8707 87.238 45.698C87.2893 45.5253 87.315 45.3153 87.315 45.068C87.315 44.6947 87.2567 44.4147 87.14 44.228C87.028 44.0367 86.8483 43.941 86.601 43.941ZM91.0727 47.07C90.6947 47.07 90.3727 47.0023 90.1067 46.867C89.8407 46.727 89.6377 46.5123 89.4977 46.223C89.3577 45.9337 89.2877 45.5627 89.2877 45.11C89.2877 44.6433 89.367 44.263 89.5257 43.969C89.6844 43.675 89.9037 43.458 90.1837 43.318C90.4684 43.178 90.795 43.108 91.1637 43.108C91.425 43.108 91.6514 43.1337 91.8427 43.185C92.0387 43.2363 92.209 43.297 92.3537 43.367L92.0457 44.172C91.8824 44.1067 91.7284 44.053 91.5837 44.011C91.4437 43.969 91.3037 43.948 91.1637 43.948C90.9817 43.948 90.83 43.9923 90.7087 44.081C90.5874 44.165 90.4964 44.2933 90.4357 44.466C90.3797 44.634 90.3517 44.8463 90.3517 45.103C90.3517 45.355 90.382 45.565 90.4427 45.733C90.508 45.8963 90.6014 46.02 90.7227 46.104C90.844 46.1833 90.991 46.223 91.1637 46.223C91.383 46.223 91.5767 46.195 91.7447 46.139C91.9127 46.0783 92.076 45.9967 92.2347 45.894V46.783C92.076 46.8857 91.908 46.958 91.7307 47C91.558 47.0467 91.3387 47.07 91.0727 47.07ZM96.5584 43.962H95.3054V47H94.2624V43.962H93.0094V43.178H96.5584V43.962ZM100.932 44.179C100.932 44.3843 100.866 44.5593 100.736 44.704C100.61 44.8487 100.421 44.942 100.169 44.984V45.012C100.435 45.0447 100.647 45.1357 100.806 45.285C100.969 45.4343 101.051 45.6257 101.051 45.859C101.051 46.0223 101.018 46.174 100.953 46.314C100.892 46.454 100.794 46.5753 100.659 46.678C100.523 46.7807 100.348 46.86 100.134 46.916C99.9235 46.972 99.6669 47 99.3635 47H97.5435V43.178H99.3635C99.6622 43.178 99.9282 43.2107 100.162 43.276C100.4 43.3367 100.586 43.4393 100.722 43.584C100.862 43.7287 100.932 43.927 100.932 44.179ZM99.9725 45.803C99.9725 45.6537 99.9142 45.5463 99.7975 45.481C99.6809 45.411 99.5059 45.376 99.2725 45.376H98.5865V46.279H99.2935C99.4895 46.279 99.6505 46.244 99.7765 46.174C99.9072 46.0993 99.9725 45.9757 99.9725 45.803ZM99.8745 44.263C99.8745 44.1417 99.8279 44.053 99.7345 43.997C99.6412 43.941 99.5035 43.913 99.3215 43.913H98.5865V44.669H99.2025C99.4219 44.669 99.5875 44.6387 99.6995 44.578C99.8162 44.5127 99.8745 44.4077 99.8745 44.263ZM103.801 43.108C104.156 43.108 104.459 43.1757 104.711 43.311C104.968 43.4463 105.166 43.6423 105.306 43.899C105.446 44.1557 105.516 44.4707 105.516 44.844V45.348H103.052C103.061 45.642 103.148 45.873 103.311 46.041C103.479 46.209 103.71 46.293 104.004 46.293C104.251 46.293 104.475 46.2697 104.676 46.223C104.877 46.1717 105.084 46.0947 105.299 45.992V46.797C105.112 46.8903 104.914 46.958 104.704 47C104.499 47.0467 104.249 47.07 103.955 47.07C103.572 47.07 103.234 47 102.94 46.86C102.646 46.7153 102.415 46.4983 102.247 46.209C102.079 45.9197 101.995 45.5557 101.995 45.117C101.995 44.669 102.07 44.298 102.219 44.004C102.373 43.7053 102.585 43.4813 102.856 43.332C103.127 43.1827 103.442 43.108 103.801 43.108ZM103.808 43.85C103.607 43.85 103.439 43.9153 103.304 44.046C103.173 44.1767 103.096 44.3797 103.073 44.655H104.536C104.536 44.501 104.508 44.3633 104.452 44.242C104.401 44.1207 104.321 44.025 104.214 43.955C104.107 43.885 103.971 43.85 103.808 43.85ZM107.685 43.178V44.648H109.141V43.178H110.184V47H109.141V45.425H107.685V47H106.642V43.178H107.685ZM112.599 43.178V44.648H114.055V43.178H115.098V47H114.055V45.425H112.599V47H111.556V43.178H112.599ZM119.943 45.082C119.943 45.3993 119.899 45.6817 119.81 45.929C119.726 46.1763 119.602 46.3863 119.439 46.559C119.28 46.727 119.087 46.8553 118.858 46.944C118.629 47.028 118.37 47.07 118.081 47.07C117.815 47.07 117.568 47.028 117.339 46.944C117.115 46.8553 116.921 46.727 116.758 46.559C116.595 46.3863 116.466 46.1763 116.373 45.929C116.284 45.6817 116.24 45.3993 116.24 45.082C116.24 44.6573 116.315 44.3003 116.464 44.011C116.613 43.717 116.828 43.493 117.108 43.339C117.388 43.185 117.719 43.108 118.102 43.108C118.461 43.108 118.779 43.185 119.054 43.339C119.329 43.493 119.546 43.717 119.705 44.011C119.864 44.3003 119.943 44.6573 119.943 45.082ZM117.304 45.082C117.304 45.334 117.33 45.5463 117.381 45.719C117.437 45.887 117.523 46.0153 117.64 46.104C117.757 46.188 117.908 46.23 118.095 46.23C118.282 46.23 118.431 46.188 118.543 46.104C118.66 46.0153 118.744 45.887 118.795 45.719C118.851 45.5463 118.879 45.334 118.879 45.082C118.879 44.83 118.851 44.62 118.795 44.452C118.744 44.284 118.66 44.158 118.543 44.074C118.426 43.99 118.275 43.948 118.088 43.948C117.813 43.948 117.612 44.0437 117.486 44.235C117.365 44.4217 117.304 44.704 117.304 45.082ZM122.66 43.108C123.015 43.108 123.318 43.1757 123.57 43.311C123.827 43.4463 124.025 43.6423 124.165 43.899C124.305 44.1557 124.375 44.4707 124.375 44.844V45.348H121.911C121.92 45.642 122.007 45.873 122.17 46.041C122.338 46.209 122.569 46.293 122.863 46.293C123.11 46.293 123.334 46.2697 123.535 46.223C123.736 46.1717 123.943 46.0947 124.158 45.992V46.797C123.971 46.8903 123.773 46.958 123.563 47C123.358 47.0467 123.108 47.07 122.814 47.07C122.431 47.07 122.093 47 121.799 46.86C121.505 46.7153 121.274 46.4983 121.106 46.209C120.938 45.9197 120.854 45.5557 120.854 45.117C120.854 44.669 120.929 44.298 121.078 44.004C121.232 43.7053 121.444 43.4813 121.715 43.332C121.986 43.1827 122.301 43.108 122.66 43.108ZM122.667 43.85C122.466 43.85 122.298 43.9153 122.163 44.046C122.032 44.1767 121.955 44.3797 121.932 44.655H123.395C123.395 44.501 123.367 44.3633 123.311 44.242C123.26 44.1207 123.18 44.025 123.073 43.955C122.966 43.885 122.83 43.85 122.667 43.85ZM61.552 53.178H62.7L61.188 55.012L62.833 57H61.65L60.089 55.061V57H59.046V53.178H60.089V55.033L61.552 53.178ZM65.228 53.101C65.7413 53.101 66.1333 53.213 66.404 53.437C66.6793 53.6563 66.817 53.9947 66.817 54.452V57H66.089L65.886 56.482H65.858C65.7507 56.6173 65.6387 56.7293 65.522 56.818C65.41 56.9067 65.2793 56.9697 65.13 57.007C64.9853 57.049 64.8057 57.07 64.591 57.07C64.367 57.07 64.164 57.028 63.982 56.944C63.8047 56.8553 63.6647 56.7223 63.562 56.545C63.4593 56.363 63.408 56.1343 63.408 55.859C63.408 55.453 63.5503 55.1543 63.835 54.963C64.1197 54.767 64.5467 54.6597 65.116 54.641L65.781 54.62V54.452C65.781 54.2513 65.7273 54.1043 65.62 54.011C65.5173 53.9177 65.3727 53.871 65.186 53.871C64.9993 53.871 64.8173 53.899 64.64 53.955C64.4627 54.0063 64.2853 54.0717 64.108 54.151L63.765 53.444C63.9703 53.3367 64.1967 53.2527 64.444 53.192C64.696 53.1313 64.9573 53.101 65.228 53.101ZM65.375 55.243C65.039 55.2523 64.8057 55.313 64.675 55.425C64.5443 55.537 64.479 55.684 64.479 55.866C64.479 56.0247 64.5257 56.139 64.619 56.209C64.7123 56.2743 64.8337 56.307 64.983 56.307C65.207 56.307 65.396 56.2417 65.55 56.111C65.704 55.9757 65.781 55.7867 65.781 55.544V55.229L65.375 55.243ZM69.5576 53.108C69.8329 53.108 70.0896 53.1453 70.3276 53.22C70.5703 53.29 70.7639 53.3997 70.9086 53.549C71.0579 53.6983 71.1326 53.8897 71.1326 54.123C71.1326 54.3517 71.0626 54.5337 70.9226 54.669C70.7873 54.8043 70.6029 54.9023 70.3696 54.963V54.998C70.5329 55.0353 70.6799 55.089 70.8106 55.159C70.9413 55.2243 71.0439 55.3153 71.1186 55.432C71.1979 55.544 71.2376 55.6957 71.2376 55.887C71.2376 56.097 71.1699 56.293 71.0346 56.475C70.9039 56.6523 70.6986 56.797 70.4186 56.909C70.1433 57.0163 69.7886 57.07 69.3546 57.07C69.1493 57.07 68.9556 57.0607 68.7736 57.042C68.5916 57.0233 68.4259 56.9977 68.2766 56.965C68.1273 56.9277 67.9966 56.8833 67.8846 56.832V55.971C68.0433 56.0457 68.2369 56.1133 68.4656 56.174C68.6989 56.2347 68.9463 56.265 69.2076 56.265C69.3989 56.265 69.5693 56.251 69.7186 56.223C69.8726 56.195 69.9939 56.1483 70.0826 56.083C70.1759 56.0177 70.2226 55.9313 70.2226 55.824C70.2226 55.7213 70.1829 55.6373 70.1036 55.572C70.0243 55.502 69.9053 55.4507 69.7466 55.418C69.5879 55.3853 69.3849 55.369 69.1376 55.369H68.7316V54.648H69.1166C69.4619 54.648 69.7279 54.62 69.9146 54.564C70.1059 54.508 70.2016 54.403 70.2016 54.249C70.2016 54.1277 70.1409 54.0367 70.0196 53.976C69.8983 53.9107 69.6999 53.878 69.4246 53.878C69.2426 53.878 69.0443 53.899 68.8296 53.941C68.6149 53.983 68.4119 54.0437 68.2206 54.123L67.9126 53.395C68.1319 53.311 68.3723 53.2433 68.6336 53.192C68.8949 53.136 69.2029 53.108 69.5576 53.108ZM73.9024 53.108C74.2571 53.108 74.5604 53.1757 74.8124 53.311C75.0691 53.4463 75.2674 53.6423 75.4074 53.899C75.5474 54.1557 75.6174 54.4707 75.6174 54.844V55.348H73.1534C73.1627 55.642 73.2491 55.873 73.4124 56.041C73.5804 56.209 73.8114 56.293 74.1054 56.293C74.3527 56.293 74.5767 56.2697 74.7774 56.223C74.9781 56.1717 75.1857 56.0947 75.4004 55.992V56.797C75.2137 56.8903 75.0154 56.958 74.8054 57C74.6001 57.0467 74.3504 57.07 74.0564 57.07C73.6737 57.07 73.3354 57 73.0414 56.86C72.7474 56.7153 72.5164 56.4983 72.3484 56.209C72.1804 55.9197 72.0964 55.5557 72.0964 55.117C72.0964 54.669 72.1711 54.298 72.3204 54.004C72.4744 53.7053 72.6867 53.4813 72.9574 53.332C73.2281 53.1827 73.5431 53.108 73.9024 53.108ZM73.9094 53.85C73.7087 53.85 73.5407 53.9153 73.4054 54.046C73.2747 54.1767 73.1977 54.3797 73.1744 54.655H74.6374C74.6374 54.501 74.6094 54.3633 74.5534 54.242C74.5021 54.1207 74.4227 54.025 74.3154 53.955C74.2081 53.885 74.0727 53.85 73.9094 53.85ZM77.7861 53.178V54.648H79.2421V53.178H80.2851V57H79.2421V55.425H77.7861V57H76.7431V53.178H77.7861ZM82.7009 53.178V54.648H84.1569V53.178H85.1999V57H84.1569V55.425H82.7009V57H81.6579V53.178H82.7009ZM90.0447 55.082C90.0447 55.3993 90.0003 55.6817 89.9117 55.929C89.8277 56.1763 89.704 56.3863 89.5407 56.559C89.382 56.727 89.1883 56.8553 88.9597 56.944C88.731 57.028 88.472 57.07 88.1827 57.07C87.9167 57.07 87.6693 57.028 87.4407 56.944C87.2167 56.8553 87.023 56.727 86.8597 56.559C86.6963 56.3863 86.568 56.1763 86.4747 55.929C86.386 55.6817 86.3417 55.3993 86.3417 55.082C86.3417 54.6573 86.4163 54.3003 86.5657 54.011C86.715 53.717 86.9297 53.493 87.2097 53.339C87.4897 53.185 87.821 53.108 88.2037 53.108C88.563 53.108 88.8803 53.185 89.1557 53.339C89.431 53.493 89.648 53.717 89.8067 54.011C89.9653 54.3003 90.0447 54.6573 90.0447 55.082ZM87.4057 55.082C87.4057 55.334 87.4313 55.5463 87.4827 55.719C87.5387 55.887 87.625 56.0153 87.7417 56.104C87.8583 56.188 88.01 56.23 88.1967 56.23C88.3833 56.23 88.5327 56.188 88.6447 56.104C88.7613 56.0153 88.8453 55.887 88.8967 55.719C88.9527 55.5463 88.9807 55.334 88.9807 55.082C88.9807 54.83 88.9527 54.62 88.8967 54.452C88.8453 54.284 88.7613 54.158 88.6447 54.074C88.528 53.99 88.3763 53.948 88.1897 53.948C87.9143 53.948 87.7137 54.0437 87.5877 54.235C87.4663 54.4217 87.4057 54.704 87.4057 55.082ZM92.7617 53.108C93.1163 53.108 93.4197 53.1757 93.6717 53.311C93.9283 53.4463 94.1267 53.6423 94.2667 53.899C94.4067 54.1557 94.4767 54.4707 94.4767 54.844V55.348H92.0127C92.022 55.642 92.1083 55.873 92.2717 56.041C92.4397 56.209 92.6707 56.293 92.9647 56.293C93.212 56.293 93.436 56.2697 93.6367 56.223C93.8373 56.1717 94.045 56.0947 94.2597 55.992V56.797C94.073 56.8903 93.8747 56.958 93.6647 57C93.4593 57.0467 93.2097 57.07 92.9157 57.07C92.533 57.07 92.1947 57 91.9007 56.86C91.6067 56.7153 91.3757 56.4983 91.2077 56.209C91.0397 55.9197 90.9557 55.5557 90.9557 55.117C90.9557 54.669 91.0303 54.298 91.1797 54.004C91.3337 53.7053 91.546 53.4813 91.8167 53.332C92.0873 53.1827 92.4023 53.108 92.7617 53.108ZM92.7687 53.85C92.568 53.85 92.4 53.9153 92.2647 54.046C92.134 54.1767 92.057 54.3797 92.0337 54.655H93.4967C93.4967 54.501 93.4687 54.3633 93.4127 54.242C93.3613 54.1207 93.282 54.025 93.1747 53.955C93.0673 53.885 92.932 53.85 92.7687 53.85ZM97.0044 53.178H98.1454L98.8664 55.327C98.8897 55.397 98.9084 55.467 98.9224 55.537C98.941 55.607 98.955 55.6793 98.9644 55.754C98.9784 55.8287 98.9877 55.908 98.9924 55.992H99.0134C99.0274 55.8707 99.046 55.7563 99.0694 55.649C99.0974 55.537 99.1277 55.4297 99.1604 55.327L99.8674 53.178H100.987L99.3704 57.49C99.2724 57.7513 99.144 57.9707 98.9854 58.148C98.8314 58.3253 98.6517 58.4583 98.4464 58.547C98.241 58.6357 98.017 58.68 97.7744 58.68C97.6577 58.68 97.555 58.673 97.4664 58.659C97.3824 58.6497 97.3077 58.638 97.2424 58.624V57.798C97.2937 57.8073 97.3544 57.8167 97.4244 57.826C97.499 57.8353 97.576 57.84 97.6554 57.84C97.8 57.84 97.9237 57.8097 98.0264 57.749C98.1337 57.6883 98.2224 57.6043 98.2924 57.497C98.3624 57.3943 98.4184 57.2823 98.4604 57.161L98.5234 56.972L97.0044 53.178ZM102.733 54.578C102.733 54.7413 102.772 54.865 102.852 54.949C102.936 55.033 103.05 55.075 103.195 55.075C103.395 55.075 103.582 55.054 103.755 55.012C103.927 54.9653 104.1 54.9047 104.273 54.83V53.178H105.316V57H104.273V55.481C104.109 55.5697 103.923 55.6513 103.713 55.726C103.503 55.796 103.265 55.831 102.999 55.831C102.602 55.831 102.285 55.7283 102.047 55.523C101.809 55.3177 101.69 55.0097 101.69 54.599V53.178H102.733V54.578ZM108.817 53.108C109.247 53.108 109.594 53.276 109.86 53.612C110.126 53.9433 110.259 54.4333 110.259 55.082C110.259 55.516 110.196 55.8823 110.07 56.181C109.944 56.475 109.772 56.6967 109.552 56.846C109.333 56.9953 109.079 57.07 108.789 57.07C108.607 57.07 108.449 57.0467 108.313 57C108.183 56.9533 108.071 56.8927 107.977 56.818C107.884 56.7433 107.802 56.664 107.732 56.58H107.676C107.695 56.6687 107.709 56.762 107.718 56.86C107.728 56.9533 107.732 57.0467 107.732 57.14V58.68H106.689V53.178H107.536L107.683 53.675H107.732C107.802 53.5723 107.886 53.479 107.984 53.395C108.082 53.3063 108.199 53.2363 108.334 53.185C108.474 53.1337 108.635 53.108 108.817 53.108ZM108.481 53.941C108.299 53.941 108.155 53.9783 108.047 54.053C107.94 54.1277 107.861 54.242 107.809 54.396C107.763 54.5453 107.737 54.7343 107.732 54.963V55.075C107.732 55.3223 107.756 55.5323 107.802 55.705C107.849 55.873 107.928 56.0013 108.04 56.09C108.152 56.1787 108.304 56.223 108.495 56.223C108.654 56.223 108.785 56.1787 108.887 56.09C108.99 56.0013 109.067 55.8707 109.118 55.698C109.17 55.5253 109.195 55.3153 109.195 55.068C109.195 54.6947 109.137 54.4147 109.02 54.228C108.908 54.0367 108.729 53.941 108.481 53.941ZM112.974 53.108C113.329 53.108 113.632 53.1757 113.884 53.311C114.141 53.4463 114.339 53.6423 114.479 53.899C114.619 54.1557 114.689 54.4707 114.689 54.844V55.348H112.225C112.234 55.642 112.321 55.873 112.484 56.041C112.652 56.209 112.883 56.293 113.177 56.293C113.424 56.293 113.648 56.2697 113.849 56.223C114.05 56.1717 114.257 56.0947 114.472 55.992V56.797C114.285 56.8903 114.087 56.958 113.877 57C113.672 57.0467 113.422 57.07 113.128 57.07C112.745 57.07 112.407 57 112.113 56.86C111.819 56.7153 111.588 56.4983 111.42 56.209C111.252 55.9197 111.168 55.5557 111.168 55.117C111.168 54.669 111.243 54.298 111.392 54.004C111.546 53.7053 111.758 53.4813 112.029 53.332C112.3 53.1827 112.615 53.108 112.974 53.108ZM112.981 53.85C112.78 53.85 112.612 53.9153 112.477 54.046C112.346 54.1767 112.269 54.3797 112.246 54.655H113.709C113.709 54.501 113.681 54.3633 113.625 54.242C113.574 54.1207 113.494 54.025 113.387 53.955C113.28 53.885 113.144 53.85 112.981 53.85ZM121.247 53.178L119.84 55.012L121.38 57H120.267L118.811 55.061V57H117.838V55.061L116.382 57H115.269L116.809 55.012L115.402 53.178H116.48L117.838 55.033V53.178H118.811V55.033L120.169 53.178H121.247ZM125.643 53.178V56.237H126.203V58.372H125.265V57H122.696V58.372H121.758V56.237H122.08C122.248 55.9803 122.391 55.6887 122.507 55.362C122.624 55.0307 122.717 54.6783 122.787 54.305C122.857 53.9317 122.909 53.556 122.941 53.178H125.643ZM123.816 53.962C123.779 54.242 123.732 54.515 123.676 54.781C123.62 55.0423 123.55 55.2943 123.466 55.537C123.387 55.7797 123.289 56.013 123.172 56.237H124.6V53.962H123.816ZM128.71 53.108C129.064 53.108 129.368 53.1757 129.62 53.311C129.876 53.4463 130.075 53.6423 130.215 53.899C130.355 54.1557 130.425 54.4707 130.425 54.844V55.348H127.961C127.97 55.642 128.056 55.873 128.22 56.041C128.388 56.209 128.619 56.293 128.913 56.293C129.16 56.293 129.384 56.2697 129.585 56.223C129.785 56.1717 129.993 56.0947 130.208 55.992V56.797C130.021 56.8903 129.823 56.958 129.613 57C129.407 57.0467 129.158 57.07 128.864 57.07C128.481 57.07 128.143 57 127.849 56.86C127.555 56.7153 127.324 56.4983 127.156 56.209C126.988 55.9197 126.904 55.5557 126.904 55.117C126.904 54.669 126.978 54.298 127.128 54.004C127.282 53.7053 127.494 53.4813 127.765 53.332C128.035 53.1827 128.35 53.108 128.71 53.108ZM128.717 53.85C128.516 53.85 128.348 53.9153 128.213 54.046C128.082 54.1767 128.005 54.3797 127.982 54.655H129.445C129.445 54.501 129.417 54.3633 129.361 54.242C129.309 54.1207 129.23 54.025 129.123 53.955C129.015 53.885 128.88 53.85 128.717 53.85ZM132.593 53.178V54.648H134.049V53.178H135.092V57H134.049V55.425H132.593V57H131.55V53.178H132.593ZM137.473 54.69C137.473 54.7693 137.469 54.8673 137.459 54.984C137.455 55.1007 137.448 55.2197 137.438 55.341C137.434 55.4623 137.427 55.5697 137.417 55.663C137.408 55.7563 137.401 55.8217 137.396 55.859L139.16 53.178H140.413V57H139.405V55.474C139.405 55.348 139.41 55.2103 139.419 55.061C139.429 54.907 139.438 54.7647 139.447 54.634C139.461 54.4987 139.471 54.396 139.475 54.326L137.718 57H136.465V53.178H137.473V54.69ZM143.358 53.108C143.713 53.108 144.016 53.1757 144.268 53.311C144.525 53.4463 144.723 53.6423 144.863 53.899C145.003 54.1557 145.073 54.4707 145.073 54.844V55.348H142.609C142.619 55.642 142.705 55.873 142.868 56.041C143.036 56.209 143.267 56.293 143.561 56.293C143.809 56.293 144.033 56.2697 144.233 56.223C144.434 56.1717 144.642 56.0947 144.856 55.992V56.797C144.67 56.8903 144.471 56.958 144.261 57C144.056 57.0467 143.806 57.07 143.512 57.07C143.13 57.07 142.791 57 142.497 56.86C142.203 56.7153 141.972 56.4983 141.804 56.209C141.636 55.9197 141.552 55.5557 141.552 55.117C141.552 54.669 141.627 54.298 141.776 54.004C141.93 53.7053 142.143 53.4813 142.413 53.332C142.684 53.1827 142.999 53.108 143.358 53.108ZM143.365 53.85C143.165 53.85 142.997 53.9153 142.861 54.046C142.731 54.1767 142.654 54.3797 142.63 54.655H144.093C144.093 54.501 144.065 54.3633 144.009 54.242C143.958 54.1207 143.879 54.025 143.771 53.955C143.664 53.885 143.529 53.85 143.365 53.85ZM61.685 63.178V63.962H60.089V67H59.046V63.178H61.685ZM66.0724 65.082C66.0724 65.3993 66.0281 65.6817 65.9394 65.929C65.8554 66.1763 65.7317 66.3863 65.5684 66.559C65.4097 66.727 65.2161 66.8553 64.9874 66.944C64.7587 67.028 64.4997 67.07 64.2104 67.07C63.9444 67.07 63.6971 67.028 63.4684 66.944C63.2444 66.8553 63.0507 66.727 62.8874 66.559C62.7241 66.3863 62.5957 66.1763 62.5024 65.929C62.4137 65.6817 62.3694 65.3993 62.3694 65.082C62.3694 64.6573 62.4441 64.3003 62.5934 64.011C62.7427 63.717 62.9574 63.493 63.2374 63.339C63.5174 63.185 63.8487 63.108 64.2314 63.108C64.5907 63.108 64.9081 63.185 65.1834 63.339C65.4587 63.493 65.6757 63.717 65.8344 64.011C65.9931 64.3003 66.0724 64.6573 66.0724 65.082ZM63.4334 65.082C63.4334 65.334 63.4591 65.5463 63.5104 65.719C63.5664 65.887 63.6527 66.0153 63.7694 66.104C63.8861 66.188 64.0377 66.23 64.2244 66.23C64.4111 66.23 64.5604 66.188 64.6724 66.104C64.7891 66.0153 64.8731 65.887 64.9244 65.719C64.9804 65.5463 65.0084 65.334 65.0084 65.082C65.0084 64.83 64.9804 64.62 64.9244 64.452C64.8731 64.284 64.7891 64.158 64.6724 64.074C64.5557 63.99 64.4041 63.948 64.2174 63.948C63.9421 63.948 63.7414 64.0437 63.6154 64.235C63.4941 64.4217 63.4334 64.704 63.4334 65.082ZM69.3424 63.108C69.7717 63.108 70.1194 63.276 70.3854 63.612C70.6514 63.9433 70.7844 64.4333 70.7844 65.082C70.7844 65.516 70.7214 65.8823 70.5954 66.181C70.4694 66.475 70.2967 66.6967 70.0774 66.846C69.8581 66.9953 69.6037 67.07 69.3144 67.07C69.1324 67.07 68.9737 67.0467 68.8384 67C68.7077 66.9533 68.5957 66.8927 68.5024 66.818C68.4091 66.7433 68.3274 66.664 68.2574 66.58H68.2014C68.2201 66.6687 68.2341 66.762 68.2434 66.86C68.2527 66.9533 68.2574 67.0467 68.2574 67.14V68.68H67.2144V63.178H68.0614L68.2084 63.675H68.2574C68.3274 63.5723 68.4114 63.479 68.5094 63.395C68.6074 63.3063 68.7241 63.2363 68.8594 63.185C68.9994 63.1337 69.1604 63.108 69.3424 63.108ZM69.0064 63.941C68.8244 63.941 68.6797 63.9783 68.5724 64.053C68.4651 64.1277 68.3857 64.242 68.3344 64.396C68.2877 64.5453 68.2621 64.7343 68.2574 64.963V65.075C68.2574 65.3223 68.2807 65.5323 68.3274 65.705C68.3741 65.873 68.4534 66.0013 68.5654 66.09C68.6774 66.1787 68.8291 66.223 69.0204 66.223C69.1791 66.223 69.3097 66.1787 69.4124 66.09C69.5151 66.0013 69.5921 65.8707 69.6434 65.698C69.6947 65.5253 69.7204 65.3153 69.7204 65.068C69.7204 64.6947 69.6621 64.4147 69.5454 64.228C69.4334 64.0367 69.2537 63.941 69.0064 63.941ZM75.3961 65.082C75.3961 65.3993 75.3518 65.6817 75.2631 65.929C75.1791 66.1763 75.0554 66.3863 74.8921 66.559C74.7334 66.727 74.5398 66.8553 74.3111 66.944C74.0824 67.028 73.8234 67.07 73.5341 67.07C73.2681 67.07 73.0208 67.028 72.7921 66.944C72.5681 66.8553 72.3744 66.727 72.2111 66.559C72.0478 66.3863 71.9194 66.1763 71.8261 65.929C71.7374 65.6817 71.6931 65.3993 71.6931 65.082C71.6931 64.6573 71.7678 64.3003 71.9171 64.011C72.0664 63.717 72.2811 63.493 72.5611 63.339C72.8411 63.185 73.1724 63.108 73.5551 63.108C73.9144 63.108 74.2318 63.185 74.5071 63.339C74.7824 63.493 74.9994 63.717 75.1581 64.011C75.3168 64.3003 75.3961 64.6573 75.3961 65.082ZM72.7571 65.082C72.7571 65.334 72.7828 65.5463 72.8341 65.719C72.8901 65.887 72.9764 66.0153 73.0931 66.104C73.2098 66.188 73.3614 66.23 73.5481 66.23C73.7348 66.23 73.8841 66.188 73.9961 66.104C74.1128 66.0153 74.1968 65.887 74.2481 65.719C74.3041 65.5463 74.3321 65.334 74.3321 65.082C74.3321 64.83 74.3041 64.62 74.2481 64.452C74.1968 64.284 74.1128 64.158 73.9961 64.074C73.8794 63.99 73.7278 63.948 73.5411 63.948C73.2658 63.948 73.0651 64.0437 72.9391 64.235C72.8178 64.4217 72.7571 64.704 72.7571 65.082ZM79.9751 63.178V66.237H80.5351V68.372H79.5971V67H77.0281V68.372H76.0901V66.237H76.4121C76.5801 65.9803 76.7224 65.6887 76.8391 65.362C76.9557 65.0307 77.0491 64.6783 77.1191 64.305C77.1891 63.9317 77.2404 63.556 77.2731 63.178H79.9751ZM78.1481 63.962C78.1107 64.242 78.0641 64.515 78.0081 64.781C77.9521 65.0423 77.8821 65.2943 77.7981 65.537C77.7187 65.7797 77.6207 66.013 77.5041 66.237H78.9321V63.962H78.1481ZM83.0345 63.101C83.5478 63.101 83.9398 63.213 84.2105 63.437C84.4858 63.6563 84.6235 63.9947 84.6235 64.452V67H83.8955L83.6925 66.482H83.6645C83.5572 66.6173 83.4452 66.7293 83.3285 66.818C83.2165 66.9067 83.0858 66.9697 82.9365 67.007C82.7918 67.049 82.6122 67.07 82.3975 67.07C82.1735 67.07 81.9705 67.028 81.7885 66.944C81.6112 66.8553 81.4712 66.7223 81.3685 66.545C81.2658 66.363 81.2145 66.1343 81.2145 65.859C81.2145 65.453 81.3568 65.1543 81.6415 64.963C81.9262 64.767 82.3532 64.6597 82.9225 64.641L83.5875 64.62V64.452C83.5875 64.2513 83.5338 64.1043 83.4265 64.011C83.3238 63.9177 83.1792 63.871 82.9925 63.871C82.8058 63.871 82.6238 63.899 82.4465 63.955C82.2692 64.0063 82.0918 64.0717 81.9145 64.151L81.5715 63.444C81.7768 63.3367 82.0032 63.2527 82.2505 63.192C82.5025 63.1313 82.7638 63.101 83.0345 63.101ZM83.1815 65.243C82.8455 65.2523 82.6122 65.313 82.4815 65.425C82.3508 65.537 82.2855 65.684 82.2855 65.866C82.2855 66.0247 82.3322 66.139 82.4255 66.209C82.5188 66.2743 82.6402 66.307 82.7895 66.307C83.0135 66.307 83.2025 66.2417 83.3565 66.111C83.5105 65.9757 83.5875 65.7867 83.5875 65.544V65.229L83.1815 65.243ZM90.1171 67L88.9131 63.08H88.8851C88.8898 63.1733 88.8968 63.3133 88.9061 63.5C88.9154 63.6867 88.9248 63.8873 88.9341 64.102C88.9434 64.312 88.9481 64.5033 88.9481 64.676V67H88.0031V62.002H89.4451L90.6281 65.824H90.6491L91.9021 62.002H93.3441V67H92.3571V64.634C92.3571 64.4753 92.3594 64.2933 92.3641 64.088C92.3734 63.8827 92.3804 63.689 92.3851 63.507C92.3944 63.3203 92.4014 63.1803 92.4061 63.087H92.3781L91.0901 67H90.1171ZM98.2746 65.082C98.2746 65.3993 98.2303 65.6817 98.1416 65.929C98.0576 66.1763 97.9339 66.3863 97.7706 66.559C97.6119 66.727 97.4183 66.8553 97.1896 66.944C96.9609 67.028 96.7019 67.07 96.4126 67.07C96.1466 67.07 95.8993 67.028 95.6706 66.944C95.4466 66.8553 95.2529 66.727 95.0896 66.559C94.9263 66.3863 94.7979 66.1763 94.7046 65.929C94.6159 65.6817 94.5716 65.3993 94.5716 65.082C94.5716 64.6573 94.6463 64.3003 94.7956 64.011C94.9449 63.717 95.1596 63.493 95.4396 63.339C95.7196 63.185 96.0509 63.108 96.4336 63.108C96.7929 63.108 97.1103 63.185 97.3856 63.339C97.6609 63.493 97.8779 63.717 98.0366 64.011C98.1953 64.3003 98.2746 64.6573 98.2746 65.082ZM95.6356 65.082C95.6356 65.334 95.6613 65.5463 95.7126 65.719C95.7686 65.887 95.8549 66.0153 95.9716 66.104C96.0883 66.188 96.2399 66.23 96.4266 66.23C96.6133 66.23 96.7626 66.188 96.8746 66.104C96.9913 66.0153 97.0753 65.887 97.1266 65.719C97.1826 65.5463 97.2106 65.334 97.2106 65.082C97.2106 64.83 97.1826 64.62 97.1266 64.452C97.0753 64.284 96.9913 64.158 96.8746 64.074C96.7579 63.99 96.6063 63.948 96.4196 63.948C96.1443 63.948 95.9436 64.0437 95.8176 64.235C95.6963 64.4217 95.6356 64.704 95.6356 65.082ZM100.971 67.07C100.593 67.07 100.271 67.0023 100.005 66.867C99.7386 66.727 99.5356 66.5123 99.3956 66.223C99.2556 65.9337 99.1856 65.5627 99.1856 65.11C99.1856 64.6433 99.2649 64.263 99.4236 63.969C99.5823 63.675 99.8016 63.458 100.082 63.318C100.366 63.178 100.693 63.108 101.062 63.108C101.323 63.108 101.549 63.1337 101.741 63.185C101.937 63.2363 102.107 63.297 102.252 63.367L101.944 64.172C101.78 64.1067 101.626 64.053 101.482 64.011C101.342 63.969 101.202 63.948 101.062 63.948C100.88 63.948 100.728 63.9923 100.607 64.081C100.485 64.165 100.394 64.2933 100.334 64.466C100.278 64.634 100.25 64.8463 100.25 65.103C100.25 65.355 100.28 65.565 100.341 65.733C100.406 65.8963 100.499 66.02 100.621 66.104C100.742 66.1833 100.889 66.223 101.062 66.223C101.281 66.223 101.475 66.195 101.643 66.139C101.811 66.0783 101.974 65.9967 102.133 65.894V66.783C101.974 66.8857 101.806 66.958 101.629 67C101.456 67.0467 101.237 67.07 100.971 67.07ZM105.798 63.178H106.946L105.434 65.012L107.079 67H105.896L104.335 65.061V67H103.292V63.178H104.335V65.033L105.798 63.178ZM111.294 64.179C111.294 64.3843 111.229 64.5593 111.098 64.704C110.972 64.8487 110.783 64.942 110.531 64.984V65.012C110.797 65.0447 111.01 65.1357 111.168 65.285C111.332 65.4343 111.413 65.6257 111.413 65.859C111.413 66.0223 111.381 66.174 111.315 66.314C111.255 66.454 111.157 66.5753 111.021 66.678C110.886 66.7807 110.711 66.86 110.496 66.916C110.286 66.972 110.03 67 109.726 67H107.906V63.178H109.726C110.025 63.178 110.291 63.2107 110.524 63.276C110.762 63.3367 110.949 63.4393 111.084 63.584C111.224 63.7287 111.294 63.927 111.294 64.179ZM110.335 65.803C110.335 65.6537 110.277 65.5463 110.16 65.481C110.044 65.411 109.869 65.376 109.635 65.376H108.949V66.279H109.656C109.852 66.279 110.013 66.244 110.139 66.174C110.27 66.0993 110.335 65.9757 110.335 65.803ZM110.237 64.263C110.237 64.1417 110.191 64.053 110.097 63.997C110.004 63.941 109.866 63.913 109.684 63.913H108.949V64.669H109.565C109.785 64.669 109.95 64.6387 110.062 64.578C110.179 64.5127 110.237 64.4077 110.237 64.263ZM112.589 67V63.178H113.632V64.655H114.136C114.528 64.655 114.85 64.697 115.102 64.781C115.354 64.8603 115.54 64.984 115.662 65.152C115.788 65.32 115.851 65.53 115.851 65.782C115.851 66.0293 115.792 66.244 115.676 66.426C115.564 66.608 115.384 66.7503 115.137 66.853C114.894 66.951 114.572 67 114.171 67H112.589ZM114.115 66.279C114.32 66.279 114.486 66.2417 114.612 66.167C114.742 66.0923 114.808 65.9687 114.808 65.796C114.808 65.6467 114.747 65.5393 114.626 65.474C114.509 65.4087 114.334 65.376 114.101 65.376H113.632V66.279H114.115ZM116.404 67V63.178H117.447V67H116.404ZM59.431 76.16L58.815 74.935L59.431 73.71H60.362L59.718 74.935L60.362 76.16H59.431ZM60.887 76.16L60.264 74.935L60.887 73.71H61.811L61.167 74.935L61.811 76.16H60.887ZM65.1744 77L63.9704 73.08H63.9424C63.9471 73.1733 63.9541 73.3133 63.9634 73.5C63.9727 73.6867 63.9821 73.8873 63.9914 74.102C64.0007 74.312 64.0054 74.5033 64.0054 74.676V77H63.0604V72.002H64.5024L65.6854 75.824H65.7064L66.9594 72.002H68.4014V77H67.4144V74.634C67.4144 74.4753 67.4167 74.2933 67.4214 74.088C67.4307 73.8827 67.4377 73.689 67.4424 73.507C67.4517 73.3203 67.4587 73.1803 67.4634 73.087H67.4354L66.1474 77H65.1744ZM73.3319 75.082C73.3319 75.3993 73.2876 75.6817 73.1989 75.929C73.1149 76.1763 72.9912 76.3863 72.8279 76.559C72.6692 76.727 72.4756 76.8553 72.2469 76.944C72.0182 77.028 71.7592 77.07 71.4699 77.07C71.2039 77.07 70.9566 77.028 70.7279 76.944C70.5039 76.8553 70.3102 76.727 70.1469 76.559C69.9836 76.3863 69.8552 76.1763 69.7619 75.929C69.6732 75.6817 69.6289 75.3993 69.6289 75.082C69.6289 74.6573 69.7036 74.3003 69.8529 74.011C70.0022 73.717 70.2169 73.493 70.4969 73.339C70.7769 73.185 71.1082 73.108 71.4909 73.108C71.8502 73.108 72.1676 73.185 72.4429 73.339C72.7182 73.493 72.9352 73.717 73.0939 74.011C73.2526 74.3003 73.3319 74.6573 73.3319 75.082ZM70.6929 75.082C70.6929 75.334 70.7186 75.5463 70.7699 75.719C70.8259 75.887 70.9122 76.0153 71.0289 76.104C71.1456 76.188 71.2972 76.23 71.4839 76.23C71.6706 76.23 71.8199 76.188 71.9319 76.104C72.0486 76.0153 72.1326 75.887 72.1839 75.719C72.2399 75.5463 72.2679 75.334 72.2679 75.082C72.2679 74.83 72.2399 74.62 72.1839 74.452C72.1326 74.284 72.0486 74.158 71.9319 74.074C71.8152 73.99 71.6636 73.948 71.4769 73.948C71.2016 73.948 71.0009 74.0437 70.8749 74.235C70.7536 74.4217 70.6929 74.704 70.6929 75.082ZM76.0279 77.07C75.6499 77.07 75.3279 77.0023 75.0619 76.867C74.7959 76.727 74.5929 76.5123 74.4529 76.223C74.3129 75.9337 74.2429 75.5627 74.2429 75.11C74.2429 74.6433 74.3222 74.263 74.4809 73.969C74.6396 73.675 74.8589 73.458 75.1389 73.318C75.4236 73.178 75.7502 73.108 76.1189 73.108C76.3802 73.108 76.6066 73.1337 76.7979 73.185C76.9939 73.2363 77.1642 73.297 77.3089 73.367L77.0009 74.172C76.8376 74.1067 76.6836 74.053 76.5389 74.011C76.3989 73.969 76.2589 73.948 76.1189 73.948C75.9369 73.948 75.7852 73.9923 75.6639 74.081C75.5426 74.165 75.4516 74.2933 75.3909 74.466C75.3349 74.634 75.3069 74.8463 75.3069 75.103C75.3069 75.355 75.3372 75.565 75.3979 75.733C75.4632 75.8963 75.5566 76.02 75.6779 76.104C75.7992 76.1833 75.9462 76.223 76.1189 76.223C76.3382 76.223 76.5319 76.195 76.6999 76.139C76.8679 76.0783 77.0312 75.9967 77.1899 75.894V76.783C77.0312 76.8857 76.8632 76.958 76.6859 77C76.5132 77.0467 76.2939 77.07 76.0279 77.07ZM80.8556 73.178H82.0036L80.4916 75.012L82.1366 77H80.9536L79.3926 75.061V77H78.3496V73.178H79.3926V75.033L80.8556 73.178ZM86.3516 74.179C86.3516 74.3843 86.2862 74.5593 86.1556 74.704C86.0296 74.8487 85.8406 74.942 85.5886 74.984V75.012C85.8546 75.0447 86.0669 75.1357 86.2256 75.285C86.3889 75.4343 86.4706 75.6257 86.4706 75.859C86.4706 76.0223 86.4379 76.174 86.3726 76.314C86.3119 76.454 86.2139 76.5753 86.0786 76.678C85.9432 76.7807 85.7682 76.86 85.5536 76.916C85.3436 76.972 85.0869 77 84.7836 77H82.9636V73.178H84.7836C85.0822 73.178 85.3482 73.2107 85.5816 73.276C85.8196 73.3367 86.0062 73.4393 86.1416 73.584C86.2816 73.7287 86.3516 73.927 86.3516 74.179ZM85.3926 75.803C85.3926 75.6537 85.3342 75.5463 85.2176 75.481C85.1009 75.411 84.9259 75.376 84.6926 75.376H84.0066V76.279H84.7136C84.9096 76.279 85.0706 76.244 85.1966 76.174C85.3272 76.0993 85.3926 75.9757 85.3926 75.803ZM85.2946 74.263C85.2946 74.1417 85.2479 74.053 85.1546 73.997C85.0612 73.941 84.9236 73.913 84.7416 73.913H84.0066V74.669H84.6226C84.8419 74.669 85.0076 74.6387 85.1196 74.578C85.2362 74.5127 85.2946 74.4077 85.2946 74.263ZM91.1179 75.082C91.1179 75.3993 91.0736 75.6817 90.9849 75.929C90.9009 76.1763 90.7773 76.3863 90.6139 76.559C90.4553 76.727 90.2616 76.8553 90.0329 76.944C89.8043 77.028 89.5453 77.07 89.2559 77.07C88.9899 77.07 88.7426 77.028 88.5139 76.944C88.2899 76.8553 88.0963 76.727 87.9329 76.559C87.7696 76.3863 87.6413 76.1763 87.5479 75.929C87.4593 75.6817 87.4149 75.3993 87.4149 75.082C87.4149 74.6573 87.4896 74.3003 87.6389 74.011C87.7883 73.717 88.0029 73.493 88.2829 73.339C88.5629 73.185 88.8943 73.108 89.2769 73.108C89.6363 73.108 89.9536 73.185 90.2289 73.339C90.5043 73.493 90.7213 73.717 90.8799 74.011C91.0386 74.3003 91.1179 74.6573 91.1179 75.082ZM88.4789 75.082C88.4789 75.334 88.5046 75.5463 88.5559 75.719C88.6119 75.887 88.6983 76.0153 88.8149 76.104C88.9316 76.188 89.0833 76.23 89.2699 76.23C89.4566 76.23 89.6059 76.188 89.7179 76.104C89.8346 76.0153 89.9186 75.887 89.9699 75.719C90.0259 75.5463 90.0539 75.334 90.0539 75.082C90.0539 74.83 90.0259 74.62 89.9699 74.452C89.9186 74.284 89.8346 74.158 89.7179 74.074C89.6013 73.99 89.4496 73.948 89.2629 73.948C88.9876 73.948 88.7869 74.0437 88.6609 74.235C88.5396 74.4217 88.4789 74.704 88.4789 75.082ZM94.3879 73.108C94.8172 73.108 95.1649 73.276 95.4309 73.612C95.6969 73.9433 95.8299 74.4333 95.8299 75.082C95.8299 75.516 95.7669 75.8823 95.6409 76.181C95.5149 76.475 95.3422 76.6967 95.1229 76.846C94.9036 76.9953 94.6492 77.07 94.3599 77.07C94.1779 77.07 94.0192 77.0467 93.8839 77C93.7532 76.9533 93.6412 76.8927 93.5479 76.818C93.4546 76.7433 93.3729 76.664 93.3029 76.58H93.2469C93.2656 76.6687 93.2796 76.762 93.2889 76.86C93.2982 76.9533 93.3029 77.0467 93.3029 77.14V78.68H92.2599V73.178H93.1069L93.2539 73.675H93.3029C93.3729 73.5723 93.4569 73.479 93.5549 73.395C93.6529 73.3063 93.7696 73.2363 93.9049 73.185C94.0449 73.1337 94.2059 73.108 94.3879 73.108ZM94.0519 73.941C93.8699 73.941 93.7252 73.9783 93.6179 74.053C93.5106 74.1277 93.4312 74.242 93.3799 74.396C93.3332 74.5453 93.3076 74.7343 93.3029 74.963V75.075C93.3029 75.3223 93.3262 75.5323 93.3729 75.705C93.4196 75.873 93.4989 76.0013 93.6109 76.09C93.7229 76.1787 93.8746 76.223 94.0659 76.223C94.2246 76.223 94.3552 76.1787 94.4579 76.09C94.5606 76.0013 94.6376 75.8707 94.6889 75.698C94.7402 75.5253 94.7659 75.3153 94.7659 75.068C94.7659 74.6947 94.7076 74.4147 94.5909 74.228C94.4789 74.0367 94.2992 73.941 94.0519 73.941ZM98.5446 73.108C98.8993 73.108 99.2026 73.1757 99.4546 73.311C99.7113 73.4463 99.9096 73.6423 100.05 73.899C100.19 74.1557 100.26 74.4707 100.26 74.844V75.348H97.7956C97.8049 75.642 97.8913 75.873 98.0546 76.041C98.2226 76.209 98.4536 76.293 98.7476 76.293C98.9949 76.293 99.2189 76.2697 99.4196 76.223C99.6203 76.1717 99.8279 76.0947 100.043 75.992V76.797C99.8559 76.8903 99.6576 76.958 99.4476 77C99.2423 77.0467 98.9926 77.07 98.6986 77.07C98.3159 77.07 97.9776 77 97.6836 76.86C97.3896 76.7153 97.1586 76.4983 96.9906 76.209C96.8226 75.9197 96.7386 75.5557 96.7386 75.117C96.7386 74.669 96.8133 74.298 96.9626 74.004C97.1166 73.7053 97.3289 73.4813 97.5996 73.332C97.8703 73.1827 98.1853 73.108 98.5446 73.108ZM98.5516 73.85C98.3509 73.85 98.1829 73.9153 98.0476 74.046C97.9169 74.1767 97.8399 74.3797 97.8166 74.655H99.2796C99.2796 74.501 99.2516 74.3633 99.1956 74.242C99.1443 74.1207 99.0649 74.025 98.9576 73.955C98.8503 73.885 98.7149 73.85 98.5516 73.85ZM102.302 74.578C102.302 74.7413 102.342 74.865 102.421 74.949C102.505 75.033 102.62 75.075 102.764 75.075C102.965 75.075 103.152 75.054 103.324 75.012C103.497 74.9653 103.67 74.9047 103.842 74.83V73.178H104.885V77H103.842V75.481C103.679 75.5697 103.492 75.6513 103.282 75.726C103.072 75.796 102.834 75.831 102.568 75.831C102.172 75.831 101.854 75.7283 101.616 75.523C101.378 75.3177 101.259 75.0097 101.259 74.599V73.178H102.302V74.578ZM108.037 74.655C108.429 74.655 108.753 74.697 109.01 74.781C109.267 74.8603 109.456 74.984 109.577 75.152C109.703 75.32 109.766 75.53 109.766 75.782C109.766 76.0293 109.708 76.244 109.591 76.426C109.479 76.608 109.299 76.7503 109.052 76.853C108.805 76.951 108.48 77 108.079 77H106.259V73.178H107.302V74.655H108.037ZM108.723 75.796C108.723 75.6467 108.662 75.5393 108.541 75.474C108.424 75.4087 108.249 75.376 108.016 75.376H107.302V76.279H108.03C108.235 76.279 108.401 76.2417 108.527 76.167C108.658 76.0923 108.723 75.9687 108.723 75.796ZM112.414 73.108C112.769 73.108 113.072 73.1757 113.324 73.311C113.581 73.4463 113.779 73.6423 113.919 73.899C114.059 74.1557 114.129 74.4707 114.129 74.844V75.348H111.665C111.674 75.642 111.761 75.873 111.924 76.041C112.092 76.209 112.323 76.293 112.617 76.293C112.864 76.293 113.088 76.2697 113.289 76.223C113.49 76.1717 113.697 76.0947 113.912 75.992V76.797C113.725 76.8903 113.527 76.958 113.317 77C113.112 77.0467 112.862 77.07 112.568 77.07C112.185 77.07 111.847 77 111.553 76.86C111.259 76.7153 111.028 76.4983 110.86 76.209C110.692 75.9197 110.608 75.5557 110.608 75.117C110.608 74.669 110.683 74.298 110.832 74.004C110.986 73.7053 111.198 73.4813 111.469 73.332C111.74 73.1827 112.055 73.108 112.414 73.108ZM112.421 73.85C112.22 73.85 112.052 73.9153 111.917 74.046C111.786 74.1767 111.709 74.3797 111.686 74.655H113.149C113.149 74.501 113.121 74.3633 113.065 74.242C113.014 74.1207 112.934 74.025 112.827 73.955C112.72 73.885 112.584 73.85 112.421 73.85ZM115.696 74.935L115.059 73.71H115.983L116.606 74.935L115.983 76.16H115.059L115.696 74.935ZM117.152 74.935L116.508 73.71H117.432L118.055 74.935L117.432 76.16H116.508L117.152 74.935Z" fill="#1F1A17"/>
</g>
</g>
<defs>
<clipPath id="clip0_117_7812">
<rect x="0.5" width="145" height="118" rx="24" fill="white"/>
</clipPath>
<clipPath id="clip1_117_7812">
<rect width="145" height="42" fill="white" transform="translate(0.5 38)"/>
</clipPath>
</defs>
</svg>
