<svg width="158" height="120" viewBox="0 0 158 120" fill="none" xmlns="http://www.w3.org/2000/svg">
<rect width="158" height="120" rx="24" fill="white"/>
<g clip-path="url(#clip0_30_1425)">
<path d="M124.585 51.4507L130.391 47.1277H110.949V73.0265H130.391V68.6998H116.502V62.0896H128.373V57.7665H116.502V51.4507H124.585Z" fill="#1F1A17"/>
<path d="M96.2595 57.2136H89.5241V51.4507H100.299L106.109 47.1277H83.9707V73.0265H95.5423C102.025 73.0265 105.77 70.0571 105.77 64.8867C105.77 59.9281 102.404 57.2136 96.2595 57.2136ZM95.3333 68.6998H89.5241V61.5366H95.3333C98.8686 61.5366 100.508 62.7251 100.508 65.1416C100.508 67.558 98.7425 68.6998 95.3333 68.6998Z" fill="#1F1A17"/>
<path d="M146.132 47.1277H135.569V73.0265H141.123V65.6909H146.175C152.907 65.6909 157.116 62.1327 157.116 56.4093C157.116 50.6859 152.907 47.1277 146.132 47.1277ZM146.006 61.3679H141.083V51.4507H146.006C149.584 51.4507 151.52 53.2317 151.52 56.4093C151.52 59.587 149.584 61.3679 146.006 61.3679Z" fill="#1F1A17"/>
<path d="M74.4569 67.4287C72.9866 68.2366 71.3433 68.6603 69.6603 68.6603C64.6511 68.6603 61.033 65.0553 61.033 60.0967C61.033 55.1382 64.6511 51.5332 69.6603 51.5332C71.4694 51.4937 73.2389 52.0862 74.7092 53.1454L78.7093 50.1796L78.4571 49.9247C76.1435 47.8457 73.0262 46.7865 69.491 46.7865C65.6638 46.7865 62.1681 48.1006 59.6455 50.474C57.1193 52.9336 55.6886 56.3661 55.7715 59.928C55.7282 63.5293 57.1193 67.005 59.6455 69.5471C62.2943 72.0498 65.8295 73.4501 69.4513 73.3639C73.4479 73.3639 76.9399 71.9636 79.2968 69.4215L75.7218 66.7501L74.4569 67.4287Z" fill="#1F1A17"/>
<path d="M38.3906 46.9589C39.3997 48.273 40.2429 49.7128 40.9565 51.2388L21.5142 65.6909L13.3481 60.5204V54.3339L21.471 59.4612L38.3906 46.9589Z" fill="#1F1A17"/>
<path d="M5.05602 60.0967C5.05602 59.7987 5.05602 59.5473 5.09927 59.2493L0.176546 58.9944C0.176546 59.3355 0.133301 59.7161 0.133301 60.0536C0.133301 65.9888 2.5334 71.3711 6.40382 75.2704L9.89586 71.7517C6.90835 68.7859 5.05602 64.6747 5.05602 60.0967Z" fill="#1F1A17"/>
<path d="M21.4711 43.5658C21.7666 43.5658 22.0189 43.5658 22.3144 43.6088L22.5666 38.6503C22.2279 38.6503 21.8495 38.6072 21.5143 38.6072C15.6222 38.6072 10.2778 41.0236 6.40381 44.923L9.89584 48.4418C12.8437 45.4329 16.9664 43.5658 21.4711 43.5658Z" fill="#1F1A17"/>
<path d="M21.471 76.6277C21.1755 76.6277 20.9233 76.6277 20.6278 76.5846L20.3755 81.5432C20.7142 81.5432 21.0926 81.5863 21.4278 81.5863C27.3199 81.5863 32.6679 79.1698 36.5383 75.2705L33.0463 71.7517C30.0984 74.8037 26.0154 76.6277 21.471 76.6277Z" fill="#1F1A17"/>
<path d="M30.7292 46.449L34.8952 43.3539C31.2337 40.3881 26.5633 38.5641 21.4712 38.5641V43.5227C24.9236 43.5658 28.1201 44.625 30.7292 46.449Z" fill="#1F1A17"/>
<path d="M42.8521 60.0968C42.8521 58.7826 42.726 57.5115 42.5134 56.2405L37.9258 59.6731C37.9258 59.7987 37.9258 59.9711 37.9258 60.0968C37.9258 64.9727 35.8212 69.3389 32.4985 72.3478L35.8212 76.0353C40.1169 72.1359 42.8521 66.4126 42.8521 60.0968Z" fill="#1F1A17"/>
<path d="M21.471 76.6277C16.6312 76.6277 12.2959 74.5093 9.30838 71.1593L5.64697 74.5093C9.56064 78.8754 15.2005 81.5863 21.471 81.5863V76.6277Z" fill="#1F1A17"/>
<path d="M10.4869 47.8457L7.16061 44.1582C2.8253 48.1006 0.133301 53.7809 0.133301 60.0967H5.05602C5.05602 55.2638 7.16061 50.8582 10.4869 47.8457Z" fill="#1F1A17"/>
</g>
<defs>
<clipPath id="clip0_30_1425">
<rect width="158" height="44" fill="white" transform="translate(0 38)"/>
</clipPath>
</defs>
</svg>
