<svg width="158" height="44" viewBox="0 0 158 44" fill="none" xmlns="http://www.w3.org/2000/svg">
<g clip-path="url(#clip0_135_8469)">
<path d="M124.585 13.4507L130.391 9.12769H110.949V35.0265H130.391V30.6998H116.502V24.0896H128.373V19.7665H116.502V13.4507H124.585Z" fill="#1F1A17"/>
<path d="M96.2595 19.2136H89.5241V13.4507H100.299L106.109 9.12769H83.9707V35.0265H95.5423C102.025 35.0265 105.77 32.0571 105.77 26.8867C105.77 21.9281 102.404 19.2136 96.2595 19.2136ZM95.3333 30.6998H89.5241V23.5366H95.3333C98.8686 23.5366 100.508 24.7251 100.508 27.1416C100.508 29.558 98.7425 30.6998 95.3333 30.6998Z" fill="#1F1A17"/>
<path d="M146.132 9.12769H135.569V35.0265H141.123V27.6909H146.175C152.907 27.6909 157.116 24.1327 157.116 18.4093C157.116 12.6859 152.907 9.12769 146.132 9.12769ZM146.006 23.3679H141.083V13.4507H146.006C149.584 13.4507 151.52 15.2317 151.52 18.4093C151.52 21.587 149.584 23.3679 146.006 23.3679Z" fill="#1F1A17"/>
<path d="M74.4569 29.4287C72.9866 30.2366 71.3433 30.6603 69.6603 30.6603C64.6511 30.6603 61.033 27.0553 61.033 22.0967C61.033 17.1382 64.6511 13.5332 69.6603 13.5332C71.4694 13.4937 73.2389 14.0862 74.7092 15.1454L78.7093 12.1796L78.4571 11.9247C76.1435 9.84572 73.0262 8.7865 69.491 8.7865C65.6638 8.7865 62.1681 10.1006 59.6455 12.474C57.1193 14.9336 55.6886 18.3661 55.7715 21.928C55.7282 25.5293 57.1193 29.005 59.6455 31.5471C62.2943 34.0498 65.8295 35.4501 69.4513 35.3639C73.4479 35.3639 76.9399 33.9636 79.2968 31.4215L75.7218 28.7501L74.4569 29.4287Z" fill="#1F1A17"/>
<path d="M38.3906 8.95886C39.3997 10.273 40.2429 11.7128 40.9565 13.2388L21.5142 27.6909L13.3481 22.5204V16.3339L21.471 21.4612L38.3906 8.95886Z" fill="#1F1A17"/>
<path d="M5.05602 22.0967C5.05602 21.7987 5.05602 21.5473 5.09927 21.2493L0.176546 20.9944C0.176546 21.3355 0.133301 21.7161 0.133301 22.0536C0.133301 27.9888 2.5334 33.3711 6.40382 37.2704L9.89586 33.7517C6.90835 30.7859 5.05602 26.6747 5.05602 22.0967Z" fill="#1F1A17"/>
<path d="M21.4711 5.56576C21.7666 5.56576 22.0189 5.56576 22.3144 5.60884L22.5666 0.650264C22.2279 0.650264 21.8495 0.607178 21.5143 0.607178C15.6222 0.607178 10.2778 3.02363 6.40381 6.92299L9.89584 10.4418C12.8437 7.43285 16.9664 5.56576 21.4711 5.56576Z" fill="#1F1A17"/>
<path d="M21.471 38.6277C21.1755 38.6277 20.9233 38.6277 20.6278 38.5846L20.3755 43.5432C20.7142 43.5432 21.0926 43.5863 21.4278 43.5863C27.3199 43.5863 32.6679 41.1698 36.5383 37.2705L33.0463 33.7517C30.0984 36.8037 26.0154 38.6277 21.471 38.6277Z" fill="#1F1A17"/>
<path d="M30.7292 8.44898L34.8952 5.35391C31.2337 2.3881 26.5633 0.564087 21.4712 0.564087V5.52267C24.9236 5.56575 28.1201 6.62497 30.7292 8.44898Z" fill="#1F1A17"/>
<path d="M42.8521 22.0968C42.8521 20.7826 42.726 19.5115 42.5134 18.2405L37.9258 21.6731C37.9258 21.7987 37.9258 21.9711 37.9258 22.0968C37.9258 26.9727 35.8212 31.3389 32.4985 34.3478L35.8212 38.0353C40.1169 34.1359 42.8521 28.4126 42.8521 22.0968Z" fill="#1F1A17"/>
<path d="M21.471 38.6277C16.6312 38.6277 12.2959 36.5093 9.30838 33.1593L5.64697 36.5093C9.56064 40.8754 15.2005 43.5863 21.471 43.5863V38.6277Z" fill="#1F1A17"/>
<path d="M10.4869 9.84572L7.16061 6.1582C2.8253 10.1006 0.133301 15.7809 0.133301 22.0967H5.05602C5.05602 17.2638 7.16061 12.8582 10.4869 9.84572Z" fill="#1F1A17"/>
</g>
<defs>
<clipPath id="clip0_135_8469">
<rect width="158" height="44" fill="white"/>
</clipPath>
</defs>
</svg>
