<svg width="144" height="44" viewBox="0 0 144 44" fill="none" xmlns="http://www.w3.org/2000/svg">
<path d="M29.6081 0.00378418L15.0542 14.6691H29.6081V44L44.1657 29.3677V0.00378418H29.6081Z" fill="#1F1A17"/>
<path d="M15.0539 43.9999L29.6078 29.3344H15.0539V0L0.5 14.6322V43.9999H15.0539Z" fill="#1F1A17"/>
<path d="M58.7339 36.6666H66.373V13.9349H78.0183V36.6666H85.6575V7.33576H58.7339V36.6666ZM132.941 18.3256H126.418V13.9349H140.957V7.33576H118.776V36.6666H133.307C139.131 36.6666 143.5 33.7173 143.5 27.4943C143.5 21.2712 139.131 18.3256 132.941 18.3256ZM132.21 30.4325H126.418V24.5744H132.216C134.021 24.5744 135.847 25.2896 135.847 27.4943C135.847 29.6989 134.016 30.4435 132.216 30.4435M104.349 30.4435C99.2492 30.4435 96.3845 26.6759 96.3845 22.0196C96.3845 18.2814 98.4699 13.5883 104.207 13.5883C105.491 13.5997 106.757 13.8948 107.916 14.4527C109.074 15.0108 110.097 15.8181 110.913 16.8178L115.559 12.1358C114.128 10.406 112.339 9.01416 110.316 8.05859C108.293 7.10291 106.086 6.60702 103.852 6.60583C95.4113 6.60583 88.7526 12.8989 88.7526 22.0049C88.7526 30.5099 95.4113 37.4039 103.852 37.4039C106.249 37.4067 108.612 36.8407 110.752 35.7519C112.891 34.6631 114.746 33.082 116.166 31.1367L111.491 26.4251C110.75 27.6607 109.703 28.6807 108.453 29.3852C107.203 30.0898 105.793 30.4545 104.36 30.4435" fill="#1F1A17"/>
</svg>
