<svg width="144" height="120" viewBox="0 0 144 120" fill="none" xmlns="http://www.w3.org/2000/svg">
<g clip-path="url(#clip0_117_7818)">
<rect x="0.5" width="143" height="120" rx="24" fill="white"/>
<path d="M29.6081 38.0038L15.0542 52.6691H29.6081V82L44.1657 67.3677V38.0038H29.6081Z" fill="#1F1A17"/>
<path d="M15.0539 81.9999L29.6078 67.3344H15.0539V38L0.5 52.6322V81.9999H15.0539Z" fill="#1F1A17"/>
<path d="M58.7339 74.6666H66.373V51.9349H78.0183V74.6666H85.6575V45.3358H58.7339V74.6666ZM132.941 56.3256H126.418V51.9349H140.957V45.3358H118.776V74.6666H133.307C139.131 74.6666 143.5 71.7173 143.5 65.4943C143.5 59.2712 139.131 56.3256 132.941 56.3256ZM132.21 68.4325H126.418V62.5744H132.216C134.021 62.5744 135.847 63.2896 135.847 65.4943C135.847 67.6989 134.016 68.4435 132.216 68.4435M104.349 68.4435C99.2492 68.4435 96.3845 64.6759 96.3845 60.0196C96.3845 56.2814 98.4699 51.5883 104.207 51.5883C105.491 51.5997 106.757 51.8948 107.916 52.4527C109.074 53.0108 110.097 53.8181 110.913 54.8178L115.559 50.1358C114.128 48.406 112.339 47.0142 110.316 46.0586C108.293 45.1029 106.086 44.607 103.852 44.6058C95.4113 44.6058 88.7526 50.8989 88.7526 60.0049C88.7526 68.5099 95.4113 75.4039 103.852 75.4039C106.249 75.4067 108.612 74.8407 110.752 73.7519C112.891 72.6631 114.746 71.082 116.166 69.1367L111.491 64.4251C110.75 65.6607 109.703 66.6807 108.453 67.3852C107.203 68.0898 105.793 68.4545 104.36 68.4435" fill="#1F1A17"/>
</g>
<defs>
<clipPath id="clip0_117_7818">
<rect x="0.5" width="143" height="120" rx="24" fill="white"/>
</clipPath>
</defs>
</svg>
