<svg width="288" height="120" viewBox="0 0 288 120" fill="none" xmlns="http://www.w3.org/2000/svg">
<rect width="288" height="120" rx="24" fill="white"/>
<path d="M79.9517 45.9928C31.0572 55.5337 36.0664 54.5467 34.2506 55.001C31.5973 55.6668 28.6544 56.5676 27.903 56.9358C26.5568 57.6095 25.7036 58.8628 25.9854 59.7479C26.0402 59.9124 26.1811 60.1866 26.3063 60.3433C26.4863 60.5704 26.5333 60.7114 26.5333 61.0169C26.5333 61.3772 26.5568 61.4242 26.7916 61.5652C27.0499 61.7141 27.0577 61.7297 27.0264 62.1371C26.9872 62.7402 26.7681 67.6047 26.7681 67.871C26.7681 68.059 26.7446 68.0825 26.6116 68.0433C26.3767 67.9728 26.0637 68.2 26.0637 68.435V68.6308H28.0987C30.0162 68.6308 30.1336 68.623 30.1336 68.4898C30.1336 68.2705 29.7893 67.9807 29.5936 68.0433C29.4605 68.0825 29.4292 68.0512 29.3979 67.8318C29.351 67.5185 29.1162 62.1841 29.1475 62.1527C29.1553 62.1371 29.3744 62.1997 29.6327 62.2937C30.0006 62.4191 31.4955 62.7951 33.2487 63.1867C33.374 63.2181 33.4209 63.2886 33.4209 63.4296C33.4209 63.5392 33.4757 63.6411 33.5462 63.6724C33.6636 63.7194 33.6714 63.8682 33.6244 65.1372C33.5462 67.3462 33.507 67.6908 33.3348 67.6908C33.2566 67.6908 33.1548 67.7613 33.1079 67.8475C33.0296 68.0042 33.0452 68.0042 34.2819 68.0042C35.4403 68.0042 35.542 67.9963 35.5185 67.8632C35.5029 67.7927 35.4168 67.7222 35.3307 67.7065C35.1272 67.6752 35.0959 67.4088 35.0176 65.1764C34.9707 63.8525 34.9785 63.7194 35.0959 63.6724C35.1742 63.6411 36.0116 63.7742 36.9665 63.9622C37.9214 64.1502 39.1267 64.3852 39.6433 64.4714C40.1599 64.5654 40.6686 64.6594 40.7704 64.6829L40.9504 64.722L40.9034 65.7169C40.8721 66.2652 40.833 67.072 40.8095 67.5107L40.7625 68.3175H40.3868C39.8624 68.3175 39.4554 68.6308 39.4476 69.0381V69.3358H43.1654H46.8831V69.0303C46.8831 68.6151 46.5075 68.3175 45.9909 68.3175C45.5526 68.3175 45.5761 68.3958 45.5134 66.6882C45.4665 65.474 45.4743 65.4114 45.6074 65.4505C45.6856 65.4662 46.4761 65.5837 47.3684 65.7012C48.832 65.897 48.9886 65.9362 49.0434 66.0772C49.0747 66.1712 49.0903 66.5785 49.0747 66.9858C49.059 67.5577 49.0277 67.7457 48.926 67.824C48.8242 67.9023 48.9025 67.918 49.3877 67.918C49.8652 67.918 49.9513 67.9023 49.8495 67.824C49.6773 67.6908 49.5912 66.2495 49.7478 66.1163C49.8339 66.0459 50.3348 66.0772 51.7593 66.2338C54.757 66.555 58.6704 66.884 61.3081 67.0328L62.2238 67.0877V67.6595V68.2392H61.7855C61.402 68.2392 61.2924 68.2783 60.9637 68.5211C60.5958 68.7875 60.5802 68.8188 60.5802 69.187V69.5708H65.245H69.9176L69.8628 69.328C69.8394 69.1948 69.8159 69.0146 69.8159 68.9363C69.8159 68.858 69.6515 68.67 69.4558 68.5133C69.1428 68.2783 69.0254 68.2392 68.681 68.2392C68.2192 68.2392 68.1722 68.1843 68.1722 67.7143V67.4323L69.6437 67.4872C73.0171 67.6125 77.1105 67.6908 80.2726 67.6908H83.6381L83.8494 67.4715L84.0686 67.2443L79.7012 67.1973C77.2984 67.166 74.559 67.1112 73.6119 67.072C70.7394 66.9467 68.2114 66.8135 68.1801 66.7822C68.1174 66.7273 67.5461 53.7869 67.6087 53.7634C67.64 53.7555 67.8748 53.6302 68.1331 53.4814L68.6027 53.2229L68.6262 52.3925C68.634 51.9304 68.681 51.5544 68.7123 51.5544C68.814 51.5544 113.654 44.434 113.865 44.387C113.959 44.3635 115.54 42.9848 117.388 41.3164C121.418 37.6739 121.066 38.0029 120.925 38.0107C120.863 38.0107 102.423 41.6062 79.9517 45.9928ZM61.7542 52.9174C61.7542 53.168 61.7855 53.2072 62.3021 53.4814C62.7012 53.7007 62.85 53.826 62.85 53.9435C62.8578 54.3038 62.2864 66.32 62.2629 66.3435C62.1142 66.5002 45.6465 64.534 45.4587 64.3382C45.4195 64.2912 45.083 57.6643 45.083 56.9201C45.083 56.7086 45.1299 56.6538 45.5134 56.4658L45.9439 56.2543V55.7138V55.1812L47.298 54.9697C48.2372 54.8208 60.408 52.8704 61.6994 52.6589C61.7307 52.6589 61.7542 52.7685 61.7542 52.9174ZM40.4651 56.1682C40.4651 56.2073 40.6608 56.3562 40.9034 56.4893L41.3339 56.74L41.2869 57.4606C41.2243 58.385 41.013 62.9987 41.013 63.3591V63.6411L40.606 63.5862C38.8919 63.3591 34.2428 62.2702 32.6617 61.7297C30.7285 61.0639 29.664 60.3668 29.664 59.7636C29.664 58.62 32.4817 57.5468 38.5475 56.3797C40.019 56.0977 40.4651 56.0507 40.4651 56.1682Z" fill="#1F1A17"/>
<path d="M15.4188 68.5919C13.9004 69.054 12.0376 69.7825 11.2628 70.2133C9.25126 71.3413 8.81295 72.438 9.9635 73.4485C14.1665 77.1379 38.375 79.0335 65.5108 77.7959C84.9293 76.9107 102.274 74.5138 109.725 71.6938C111.259 71.1142 111.243 71.0985 109.466 71.5293C100.348 73.7305 84.9606 75.4616 68.7589 76.1118C59.7111 76.4721 49.4031 76.4877 41.7171 76.1509C23.9345 75.3676 13.5169 73.0333 14.6361 70.088C14.8083 69.618 15.591 68.9365 16.5537 68.4195C16.812 68.2785 16.9686 68.1689 16.9059 68.1689C16.8433 68.1689 16.1702 68.3569 15.4188 68.5919Z" fill="#1F1A17"/>
<path d="M6.14409 72.3909C3.19336 73.2838 1.35405 74.1533 0.5244 75.0463C0.101749 75.4928 0 75.72 0 76.1586C0 76.5738 0.148711 76.8401 0.618323 77.2631C4.57872 80.8272 27.8637 82.7699 53.9271 81.7124C74.6605 80.8742 92.1457 78.5243 100.481 75.4693C101.014 75.2735 101.428 75.1012 101.413 75.0855C101.397 75.0698 100.63 75.2265 99.7065 75.438C86.346 78.5086 63.922 80.3729 42.539 80.2006C36.0271 80.1458 32.5128 80.0283 27.5897 79.7071C12.9143 78.7671 4.46132 76.613 5.23618 74.0202C5.37706 73.558 6.13627 72.8374 6.96591 72.3752C7.33378 72.1637 7.57641 71.9992 7.51379 71.9992C7.45118 72.007 6.83286 72.1794 6.14409 72.3909Z" fill="#1F1A17"/>
<path d="M146.17 37.6364V39.5138H140.459V50H138.219V37.6364H146.17ZM155.472 50L151.403 44.5969H150.304V50H148.064V37.6364H150.304V42.7195H150.865L155.26 37.6364H158.019L153.135 43.2749L158.23 50H155.472ZM160.856 50.169V48.2855H161.563C161.881 48.2855 162.142 48.2392 162.348 48.1467C162.553 48.0541 162.718 47.9213 162.843 47.7482C162.971 47.5752 163.078 47.3739 163.163 47.1445L163.326 46.728L158.907 37.6364H161.249L164.328 44.2528L166.99 37.6364H169.296L165.034 47.718C164.837 48.1527 164.609 48.5572 164.352 48.9315C164.094 49.3017 163.758 49.6016 163.344 49.831C162.933 50.0563 162.398 50.169 161.738 50.169H160.856ZM179.334 48.6719H177.366L174.927 45.0497V44.929H177.016L179.334 48.6719ZM179.334 41.2585L177.016 45.0014H174.927V44.8807L177.366 41.2585H179.334ZM183.017 48.6719H181.048L178.61 45.0497V44.929H180.698L183.017 48.6719ZM183.017 41.2585L180.698 45.0014H178.61V44.8807L181.048 41.2585H183.017ZM185.311 50.169V48.2855H186.017C186.335 48.2855 186.596 48.2392 186.802 48.1467C187.007 48.0541 187.172 47.9213 187.297 47.7482C187.425 47.5752 187.532 47.3739 187.617 47.1445L187.78 46.728L183.361 37.6364H185.703L188.782 44.2528L191.444 37.6364H193.75L189.488 47.718C189.291 48.1527 189.064 48.5572 188.806 48.9315C188.548 49.3017 188.212 49.6016 187.798 49.831C187.387 50.0563 186.852 50.169 186.192 50.169H185.311ZM194.543 52.9822V48.1708H195.37C195.647 47.9495 195.907 47.6375 196.148 47.2351C196.39 46.8326 196.595 46.2812 196.764 45.581C196.933 44.8807 197.05 43.9751 197.114 42.8643L197.44 37.6364H205.343V48.1708H206.719V52.9702H204.57V50H196.692V52.9822H194.543ZM197.978 48.1708H203.193V39.5138H199.457L199.263 42.8643C199.211 43.7055 199.127 44.4581 199.01 45.1222C198.893 45.7862 198.746 46.3718 198.569 46.8789C198.392 47.382 198.195 47.8126 197.978 48.1708ZM208.544 37.6364H211.284L214.955 46.5952H215.1L218.77 37.6364H221.511V50H219.362V41.506H219.247L215.83 49.9638H214.224L210.808 41.4879H210.693V50H208.544V37.6364ZM234.533 41.8079H232.275C232.21 41.4376 232.092 41.1096 231.919 40.8239C231.746 40.5341 231.53 40.2886 231.273 40.0874C231.015 39.8861 230.721 39.7352 230.391 39.6346C230.065 39.5299 229.713 39.4776 229.335 39.4776C228.663 39.4776 228.067 39.6467 227.548 39.9847C227.029 40.3188 226.622 40.8098 226.328 41.4577C226.035 42.1017 225.888 42.8885 225.888 43.8182C225.888 44.764 226.035 45.5608 226.328 46.2088C226.626 46.8527 227.033 47.3397 227.548 47.6697C228.067 47.9957 228.661 48.1587 229.329 48.1587C229.699 48.1587 230.045 48.1104 230.367 48.0138C230.693 47.9132 230.985 47.7663 231.243 47.5732C231.504 47.38 231.723 47.1425 231.901 46.8608C232.082 46.5791 232.206 46.2571 232.275 45.8949L234.533 45.907C234.448 46.4946 234.265 47.0459 233.983 47.5611C233.706 48.0762 233.341 48.531 232.891 48.9254C232.44 49.3158 231.913 49.6217 231.309 49.843C230.705 50.0604 230.035 50.169 229.299 50.169C228.212 50.169 227.242 49.9175 226.389 49.4144C225.536 48.9113 224.864 48.1849 224.373 47.2351C223.882 46.2853 223.636 45.1463 223.636 43.8182C223.636 42.486 223.884 41.3471 224.379 40.4013C224.874 39.4515 225.548 38.725 226.401 38.2219C227.254 37.7189 228.22 37.4673 229.299 37.4673C229.987 37.4673 230.627 37.5639 231.218 37.7571C231.81 37.9503 232.337 38.234 232.8 38.6083C233.263 38.9786 233.643 39.4334 233.941 39.9727C234.243 40.5079 234.44 41.1197 234.533 41.8079ZM236.318 48.6719L238.636 44.929H240.725V45.0497L238.286 48.6719H236.318ZM236.318 41.2585H238.286L240.725 44.8807V45.0014H238.636L236.318 41.2585ZM240.037 48.6719L242.355 44.929H244.444V45.0497L242.005 48.6719H240.037ZM240.037 41.2585H242.005L244.444 44.8807V45.0014H242.355L240.037 41.2585Z" fill="#1F1A17"/>
<path d="M145.862 59.6364V60.6506H139.771V72H138.642V59.6364H145.862ZM158.025 65.8182C158.025 67.1061 157.796 68.2269 157.337 69.1808C156.878 70.1306 156.246 70.8671 155.441 71.3903C154.64 71.9094 153.719 72.169 152.676 72.169C151.634 72.169 150.71 71.9094 149.905 71.3903C149.105 70.8671 148.475 70.1306 148.016 69.1808C147.561 68.2269 147.334 67.1061 147.334 65.8182C147.334 64.5303 147.561 63.4115 148.016 62.4616C148.475 61.5078 149.107 60.7713 149.911 60.2521C150.716 59.7289 151.638 59.4673 152.676 59.4673C153.719 59.4673 154.64 59.7289 155.441 60.2521C156.246 60.7713 156.878 61.5078 157.337 62.4616C157.796 63.4115 158.025 64.5303 158.025 65.8182ZM156.926 65.8182C156.926 64.7114 156.741 63.7636 156.371 62.9748C156.001 62.1819 155.496 61.5762 154.856 61.1577C154.216 60.7391 153.489 60.5298 152.676 60.5298C151.867 60.5298 151.143 60.7391 150.503 61.1577C149.863 61.5762 149.356 62.1799 148.982 62.9688C148.612 63.7576 148.426 64.7074 148.426 65.8182C148.426 66.925 148.612 67.8728 148.982 68.6616C149.352 69.4504 149.857 70.0561 150.497 70.4787C151.137 70.8973 151.863 71.1065 152.676 71.1065C153.489 71.1065 154.216 70.8973 154.856 70.4787C155.5 70.0601 156.007 69.4564 156.377 68.6676C156.747 67.8748 156.93 66.925 156.926 65.8182ZM160.755 72V59.6364H164.746C165.623 59.6364 166.356 59.8054 166.943 60.1435C167.535 60.4775 167.98 60.9323 168.277 61.5078C168.579 62.0833 168.73 62.7313 168.73 63.4517C168.73 64.1721 168.581 64.8221 168.283 65.4016C167.986 65.9772 167.543 66.4339 166.955 66.772C166.368 67.1061 165.637 67.2731 164.764 67.2731H161.625V66.2589H164.734C165.382 66.2589 165.919 66.1381 166.346 65.8967C166.772 65.6512 167.09 65.3171 167.299 64.8945C167.513 64.4719 167.619 63.991 167.619 63.4517C167.619 62.9124 167.513 62.4315 167.299 62.0089C167.09 61.5863 166.77 61.2543 166.339 61.0128C165.913 60.7713 165.372 60.6506 164.716 60.6506H161.884V72H160.755ZM181.516 65.8182C181.516 67.1061 181.287 68.2269 180.828 69.1808C180.369 70.1306 179.737 70.8671 178.933 71.3903C178.132 71.9094 177.21 72.169 176.168 72.169C175.125 72.169 174.202 71.9094 173.397 71.3903C172.596 70.8671 171.966 70.1306 171.507 69.1808C171.052 68.2269 170.825 67.1061 170.825 65.8182C170.825 64.5303 171.052 63.4115 171.507 62.4616C171.966 61.5078 172.598 60.7713 173.403 60.2521C174.208 59.7289 175.129 59.4673 176.168 59.4673C177.21 59.4673 178.132 59.7289 178.933 60.2521C179.737 60.7713 180.369 61.5078 180.828 62.4616C181.287 63.4115 181.516 64.5303 181.516 65.8182ZM180.418 65.8182C180.418 64.7114 180.232 63.7636 179.862 62.9748C179.492 62.1819 178.987 61.5762 178.347 61.1577C177.707 60.7391 176.981 60.5298 176.168 60.5298C175.359 60.5298 174.634 60.7391 173.994 61.1577C173.354 61.5762 172.847 62.1799 172.473 62.9688C172.103 63.7576 171.918 64.7074 171.918 65.8182C171.918 66.925 172.103 67.8728 172.473 68.6616C172.843 69.4504 173.348 70.0561 173.988 70.4787C174.628 70.8973 175.355 71.1065 176.168 71.1065C176.981 71.1065 177.707 70.8973 178.347 70.4787C178.991 70.0601 179.498 69.4564 179.868 68.6676C180.239 67.8748 180.422 66.925 180.418 65.8182ZM183.081 75.0004V70.9858H183.866C184.152 70.688 184.416 70.2956 184.657 69.8086C184.899 69.3176 185.1 68.6857 185.261 67.913C185.426 67.1362 185.532 66.1663 185.581 65.0032L185.828 59.6364H192.897V70.9858H194.346V74.9702H193.272V72H184.156V75.0004H183.081ZM185.218 70.9858H191.823V60.6506H186.854L186.661 65.0032C186.617 65.949 186.535 66.7921 186.414 67.5327C186.293 68.2692 186.132 68.9232 185.931 69.4947C185.734 70.0621 185.496 70.5592 185.218 70.9858ZM196.799 72H195.616L200.113 59.6364H201.32L205.818 72H204.635L200.759 61.1033H200.675L196.799 72ZM197.65 67.261H203.784V68.2752H197.65V67.261ZM212.718 59.6364H214.022L218.508 70.4062H218.616L223.102 59.6364H224.406V72H223.343V62.021H223.247L219.075 72H218.049L213.877 62.021H213.781V72H212.718V59.6364ZM237.829 65.8182C237.829 67.1061 237.599 68.2269 237.141 69.1808C236.682 70.1306 236.05 70.8671 235.245 71.3903C234.444 71.9094 233.522 72.169 232.48 72.169C231.438 72.169 230.514 71.9094 229.709 71.3903C228.908 70.8671 228.278 70.1306 227.82 69.1808C227.365 68.2269 227.137 67.1061 227.137 65.8182C227.137 64.5303 227.365 63.4115 227.82 62.4616C228.278 61.5078 228.91 60.7713 229.715 60.2521C230.52 59.7289 231.442 59.4673 232.48 59.4673C233.522 59.4673 234.444 59.7289 235.245 60.2521C236.05 60.7713 236.682 61.5078 237.141 62.4616C237.599 63.4115 237.829 64.5303 237.829 65.8182ZM236.73 65.8182C236.73 64.7114 236.545 63.7636 236.175 62.9748C235.804 62.1819 235.299 61.5762 234.659 61.1577C234.02 60.7391 233.293 60.5298 232.48 60.5298C231.671 60.5298 230.947 60.7391 230.307 61.1577C229.667 61.5762 229.16 62.1799 228.786 62.9688C228.415 63.7576 228.23 64.7074 228.23 65.8182C228.23 66.925 228.415 67.8728 228.786 68.6616C229.156 69.4504 229.661 70.0561 230.301 70.4787C230.941 70.8973 231.667 71.1065 232.48 71.1065C233.293 71.1065 234.02 70.8973 234.659 70.4787C235.303 70.0601 235.81 69.4564 236.181 68.6676C236.551 67.8748 236.734 66.925 236.73 65.8182ZM250.242 63.5H249.107C249.023 63.0774 248.87 62.687 248.649 62.3288C248.431 61.9666 248.158 61.6507 247.828 61.381C247.497 61.1114 247.123 60.9021 246.705 60.7532C246.286 60.6043 245.833 60.5298 245.346 60.5298C244.566 60.5298 243.853 60.7331 243.209 61.1396C242.569 61.546 242.056 62.1437 241.67 62.9325C241.287 63.7173 241.096 64.6792 241.096 65.8182C241.096 66.9652 241.287 67.9311 241.67 68.7159C242.056 69.5007 242.569 70.0964 243.209 70.5028C243.853 70.9053 244.566 71.1065 245.346 71.1065C245.833 71.1065 246.286 71.0321 246.705 70.8832C247.123 70.7343 247.497 70.527 247.828 70.2614C248.158 69.9917 248.431 69.6758 248.649 69.3136C248.87 68.9513 249.023 68.5589 249.107 68.1364H250.242C250.142 68.7038 249.953 69.2331 249.675 69.7241C249.401 70.2111 249.051 70.6377 248.624 71.0039C248.202 71.3701 247.715 71.6559 247.163 71.8612C246.612 72.0664 246.006 72.169 245.346 72.169C244.308 72.169 243.386 71.9094 242.581 71.3903C241.776 70.8671 241.145 70.1306 240.686 69.1808C240.231 68.2309 240.004 67.1101 240.004 65.8182C240.004 64.5263 240.231 63.4054 240.686 62.4556C241.145 61.5058 241.776 60.7713 242.581 60.2521C243.386 59.7289 244.308 59.4673 245.346 59.4673C246.006 59.4673 246.612 59.57 247.163 59.7752C247.715 59.9764 248.202 60.2622 248.624 60.6325C249.051 60.9987 249.401 61.4253 249.675 61.9123C249.953 62.3993 250.142 62.9285 250.242 63.5ZM260.06 72L255.804 66.1683H254.023V72H252.894V59.6364H254.023V65.1602H255.14L259.698 59.6364H261.038L256.456 65.2085L261.412 72H260.06ZM263.536 72V59.6364H267.707C268.512 59.6364 269.182 59.7772 269.717 60.0589C270.257 60.3407 270.661 60.725 270.931 61.212C271.2 61.699 271.335 62.2524 271.335 62.8722C271.335 63.3873 271.249 63.828 271.076 64.1942C270.903 64.5605 270.667 64.8563 270.369 65.0817C270.072 65.3071 269.74 65.4701 269.373 65.5707V65.6673C269.772 65.6954 270.158 65.8363 270.532 66.0898C270.907 66.3394 271.215 66.6895 271.456 67.1403C271.698 67.591 271.818 68.1303 271.818 68.7582C271.818 69.382 271.679 69.9394 271.402 70.4304C271.124 70.9174 270.697 71.3017 270.122 71.5835C269.55 71.8612 268.822 72 267.937 72H263.536ZM264.665 70.9858H267.937C268.89 70.9858 269.595 70.7745 270.049 70.3519C270.508 69.9293 270.738 69.3981 270.738 68.7582C270.738 68.2873 270.623 67.8607 270.394 67.4783C270.168 67.092 269.848 66.7861 269.434 66.5607C269.023 66.3353 268.54 66.2227 267.985 66.2227H264.665V70.9858ZM264.665 65.2205H267.81C268.297 65.2205 268.723 65.1199 269.09 64.9187C269.456 64.7174 269.742 64.4397 269.947 64.0856C270.152 63.7314 270.255 63.3269 270.255 62.8722C270.255 62.2161 270.041 61.6829 269.615 61.2724C269.188 60.8578 268.552 60.6506 267.707 60.6506H264.665V65.2205ZM275.357 65.0696H279.179C280.004 65.0696 280.704 65.2085 281.28 65.4862C281.859 65.7638 282.302 66.1562 282.608 66.6634C282.914 67.1664 283.067 67.7621 283.067 68.4503C283.067 69.1586 282.914 69.7784 282.608 70.3097C282.306 70.8409 281.865 71.2554 281.286 71.5533C280.71 71.8511 280.008 72 279.179 72H274.542V59.6364H275.671V71.0039H279.179C279.77 71.0039 280.271 70.8892 280.682 70.6598C281.097 70.4264 281.412 70.1165 281.63 69.7301C281.847 69.3397 281.956 68.9051 281.956 68.4261C281.956 67.7621 281.71 67.2067 281.219 66.7599C280.732 66.3092 280.052 66.0838 279.179 66.0838H275.357V65.0696ZM285.65 59.6364V72H284.521V59.6364H285.65Z" fill="#1F1A17"/>
</svg>
