<svg width="288" height="45" viewBox="0 0 288 45" fill="none" xmlns="http://www.w3.org/2000/svg">
<path d="M79.9517 8.9928C31.0572 18.5337 36.0664 17.5467 34.2506 18.001C31.5973 18.6668 28.6544 19.5676 27.903 19.9358C26.5568 20.6095 25.7036 21.8628 25.9854 22.7479C26.0402 22.9124 26.1811 23.1866 26.3063 23.3433C26.4863 23.5704 26.5333 23.7114 26.5333 24.0169C26.5333 24.3772 26.5568 24.4242 26.7916 24.5652C27.0499 24.7141 27.0577 24.7297 27.0264 25.1371C26.9872 25.7402 26.7681 30.6047 26.7681 30.871C26.7681 31.059 26.7446 31.0825 26.6116 31.0433C26.3767 30.9728 26.0637 31.2 26.0637 31.435V31.6308H28.0987C30.0162 31.6308 30.1336 31.623 30.1336 31.4898C30.1336 31.2705 29.7893 30.9807 29.5936 31.0433C29.4605 31.0825 29.4292 31.0512 29.3979 30.8318C29.351 30.5185 29.1162 25.1841 29.1475 25.1527C29.1553 25.1371 29.3744 25.1997 29.6327 25.2937C30.0006 25.4191 31.4955 25.7951 33.2487 26.1867C33.374 26.2181 33.4209 26.2886 33.4209 26.4296C33.4209 26.5392 33.4757 26.6411 33.5462 26.6724C33.6636 26.7194 33.6714 26.8682 33.6244 28.1372C33.5462 30.3462 33.507 30.6908 33.3348 30.6908C33.2566 30.6908 33.1548 30.7613 33.1079 30.8475C33.0296 31.0042 33.0452 31.0042 34.2819 31.0042C35.4403 31.0042 35.542 30.9963 35.5185 30.8632C35.5029 30.7927 35.4168 30.7222 35.3307 30.7065C35.1272 30.6752 35.0959 30.4088 35.0176 28.1764C34.9707 26.8525 34.9785 26.7194 35.0959 26.6724C35.1742 26.6411 36.0116 26.7742 36.9665 26.9622C37.9214 27.1502 39.1267 27.3852 39.6433 27.4714C40.1599 27.5654 40.6686 27.6594 40.7704 27.6829L40.9504 27.722L40.9034 28.7169C40.8721 29.2652 40.833 30.072 40.8095 30.5107L40.7625 31.3175H40.3868C39.8624 31.3175 39.4554 31.6308 39.4476 32.0381V32.3358H43.1654H46.8831V32.0303C46.8831 31.6151 46.5075 31.3175 45.9909 31.3175C45.5526 31.3175 45.5761 31.3958 45.5134 29.6882C45.4665 28.474 45.4743 28.4114 45.6074 28.4505C45.6856 28.4662 46.4761 28.5837 47.3684 28.7012C48.832 28.897 48.9886 28.9362 49.0434 29.0772C49.0747 29.1712 49.0903 29.5785 49.0747 29.9858C49.059 30.5577 49.0277 30.7457 48.926 30.824C48.8242 30.9023 48.9025 30.918 49.3877 30.918C49.8652 30.918 49.9513 30.9023 49.8495 30.824C49.6773 30.6908 49.5912 29.2495 49.7478 29.1163C49.8339 29.0459 50.3348 29.0772 51.7593 29.2338C54.757 29.555 58.6704 29.884 61.3081 30.0328L62.2238 30.0877V30.6595V31.2392H61.7855C61.402 31.2392 61.2924 31.2783 60.9637 31.5211C60.5958 31.7875 60.5802 31.8188 60.5802 32.187V32.5708H65.245H69.9176L69.8628 32.328C69.8394 32.1948 69.8159 32.0146 69.8159 31.9363C69.8159 31.858 69.6515 31.67 69.4558 31.5133C69.1428 31.2783 69.0254 31.2392 68.681 31.2392C68.2192 31.2392 68.1722 31.1843 68.1722 30.7143V30.4323L69.6437 30.4872C73.0171 30.6125 77.1105 30.6908 80.2726 30.6908H83.6381L83.8494 30.4715L84.0686 30.2443L79.7012 30.1973C77.2984 30.166 74.559 30.1112 73.6119 30.072C70.7394 29.9467 68.2114 29.8135 68.1801 29.7822C68.1174 29.7273 67.5461 16.7869 67.6087 16.7634C67.64 16.7555 67.8748 16.6302 68.1331 16.4814L68.6027 16.2229L68.6262 15.3925C68.634 14.9304 68.681 14.5544 68.7123 14.5544C68.814 14.5544 113.654 7.43398 113.865 7.38699C113.959 7.36349 115.54 5.98484 117.388 4.31636C121.418 0.673914 121.066 1.00291 120.925 1.01074C120.863 1.01074 102.423 4.60619 79.9517 8.9928ZM61.7542 15.9174C61.7542 16.168 61.7855 16.2072 62.3021 16.4814C62.7012 16.7007 62.85 16.826 62.85 16.9435C62.8578 17.3038 62.2864 29.32 62.2629 29.3435C62.1142 29.5002 45.6465 27.534 45.4587 27.3382C45.4195 27.2912 45.083 20.6643 45.083 19.9201C45.083 19.7086 45.1299 19.6538 45.5134 19.4658L45.9439 19.2543V18.7138V18.1812L47.298 17.9697C48.2372 17.8208 60.408 15.8704 61.6994 15.6589C61.7307 15.6589 61.7542 15.7685 61.7542 15.9174ZM40.4651 19.1682C40.4651 19.2073 40.6608 19.3562 40.9034 19.4893L41.3339 19.74L41.2869 20.4606C41.2243 21.385 41.013 25.9987 41.013 26.3591V26.6411L40.606 26.5862C38.8919 26.3591 34.2428 25.2702 32.6617 24.7297C30.7285 24.0639 29.664 23.3668 29.664 22.7636C29.664 21.62 32.4817 20.5468 38.5475 19.3797C40.019 19.0977 40.4651 19.0507 40.4651 19.1682Z" fill="#1F1A17"/>
<path d="M15.4188 31.5919C13.9004 32.054 12.0376 32.7825 11.2628 33.2133C9.25126 34.3413 8.81295 35.438 9.9635 36.4485C14.1665 40.1379 38.375 42.0335 65.5108 40.7959C84.9293 39.9107 102.274 37.5138 109.725 34.6938C111.259 34.1142 111.243 34.0985 109.466 34.5293C100.348 36.7305 84.9606 38.4616 68.7589 39.1118C59.7111 39.4721 49.4031 39.4877 41.7171 39.1509C23.9345 38.3676 13.5169 36.0333 14.6361 33.088C14.8083 32.618 15.591 31.9365 16.5537 31.4195C16.812 31.2785 16.9686 31.1689 16.9059 31.1689C16.8433 31.1689 16.1702 31.3569 15.4188 31.5919Z" fill="#1F1A17"/>
<path d="M6.14409 35.3909C3.19336 36.2838 1.35405 37.1533 0.5244 38.0463C0.101749 38.4928 0 38.72 0 39.1586C0 39.5738 0.148711 39.8401 0.618323 40.2631C4.57872 43.8272 27.8637 45.7699 53.9271 44.7124C74.6605 43.8742 92.1457 41.5243 100.481 38.4693C101.014 38.2735 101.428 38.1012 101.413 38.0855C101.397 38.0698 100.63 38.2265 99.7065 38.438C86.346 41.5086 63.922 43.3729 42.539 43.2006C36.0271 43.1458 32.5128 43.0283 27.5897 42.7071C12.9143 41.7671 4.46132 39.613 5.23618 37.0202C5.37706 36.558 6.13627 35.8374 6.96591 35.3752C7.33378 35.1637 7.57641 34.9992 7.51379 34.9992C7.45118 35.007 6.83286 35.1794 6.14409 35.3909Z" fill="#1F1A17"/>
<path d="M146.17 0.636363V2.51385H140.459V13H138.219V0.636363H146.17ZM155.472 13L151.403 7.59695H150.304V13H148.064V0.636363H150.304V5.71946H150.865L155.26 0.636363H158.019L153.135 6.27486L158.23 13H155.472ZM160.856 13.169V11.2855H161.563C161.881 11.2855 162.142 11.2392 162.348 11.1467C162.553 11.0541 162.718 10.9213 162.843 10.7482C162.971 10.5752 163.078 10.3739 163.163 10.1445L163.326 9.72798L158.907 0.636363H161.249L164.328 7.25284L166.99 0.636363H169.296L165.034 10.718C164.837 11.1527 164.609 11.5572 164.352 11.9315C164.094 12.3017 163.758 12.6016 163.344 12.831C162.933 13.0563 162.398 13.169 161.738 13.169H160.856ZM179.334 11.6719H177.366L174.927 8.04972V7.92898H177.016L179.334 11.6719ZM179.334 4.25852L177.016 8.00142H174.927V7.88068L177.366 4.25852H179.334ZM183.017 11.6719H181.048L178.61 8.04972V7.92898H180.698L183.017 11.6719ZM183.017 4.25852L180.698 8.00142H178.61V7.88068L181.048 4.25852H183.017ZM185.311 13.169V11.2855H186.017C186.335 11.2855 186.596 11.2392 186.802 11.1467C187.007 11.0541 187.172 10.9213 187.297 10.7482C187.425 10.5752 187.532 10.3739 187.617 10.1445L187.78 9.72798L183.361 0.636363H185.703L188.782 7.25284L191.444 0.636363H193.75L189.488 10.718C189.291 11.1527 189.064 11.5572 188.806 11.9315C188.548 12.3017 188.212 12.6016 187.798 12.831C187.387 13.0563 186.852 13.169 186.192 13.169H185.311ZM194.543 15.9822V11.1708H195.37C195.647 10.9495 195.907 10.6375 196.148 10.2351C196.39 9.83262 196.595 9.28125 196.764 8.58097C196.933 7.88068 197.05 6.97514 197.114 5.86435L197.44 0.636363H205.343V11.1708H206.719V15.9702H204.57V13H196.692V15.9822H194.543ZM197.978 11.1708H203.193V2.51385H199.457L199.263 5.86435C199.211 6.70549 199.127 7.4581 199.01 8.12216C198.893 8.78622 198.746 9.3718 198.569 9.87891C198.392 10.382 198.195 10.8126 197.978 11.1708ZM208.544 0.636363H211.284L214.955 9.59517H215.1L218.77 0.636363H221.511V13H219.362V4.50604H219.247L215.83 12.9638H214.224L210.808 4.48793H210.693V13H208.544V0.636363ZM234.533 4.80788H232.275C232.21 4.43762 232.092 4.10961 231.919 3.82386C231.746 3.53409 231.53 3.28859 231.273 3.08736C231.015 2.88613 230.721 2.7352 230.391 2.63459C230.065 2.52995 229.713 2.47763 229.335 2.47763C228.663 2.47763 228.067 2.64666 227.548 2.98473C227.029 3.31877 226.622 3.80978 226.328 4.45774C226.035 5.10168 225.888 5.88849 225.888 6.81818C225.888 7.76397 226.035 8.56084 226.328 9.20881C226.626 9.85275 227.033 10.3397 227.548 10.6697C228.067 10.9957 228.661 11.1587 229.329 11.1587C229.699 11.1587 230.045 11.1104 230.367 11.0138C230.693 10.9132 230.985 10.7663 231.243 10.5732C231.504 10.38 231.723 10.1425 231.901 9.8608C232.082 9.57907 232.206 9.2571 232.275 8.89489L234.533 8.90696C234.448 9.49455 234.265 10.0459 233.983 10.5611C233.706 11.0762 233.341 11.531 232.891 11.9254C232.44 12.3158 231.913 12.6217 231.309 12.843C230.705 13.0604 230.035 13.169 229.299 13.169C228.212 13.169 227.242 12.9175 226.389 12.4144C225.536 11.9113 224.864 11.1849 224.373 10.2351C223.882 9.28527 223.636 8.14631 223.636 6.81818C223.636 5.48603 223.884 4.34706 224.379 3.40128C224.874 2.45147 225.548 1.72502 226.401 1.22195C227.254 0.718868 228.22 0.467329 229.299 0.467329C229.987 0.467329 230.627 0.56392 231.218 0.757102C231.81 0.950284 232.337 1.23402 232.8 1.60831C233.263 1.97857 233.643 2.43336 233.941 2.97266C234.243 3.50793 234.44 4.11967 234.533 4.80788ZM236.318 11.6719L238.636 7.92898H240.725V8.04972L238.286 11.6719H236.318ZM236.318 4.25852H238.286L240.725 7.88068V8.00142H238.636L236.318 4.25852ZM240.037 11.6719L242.355 7.92898H244.444V8.04972L242.005 11.6719H240.037ZM240.037 4.25852H242.005L244.444 7.88068V8.00142H242.355L240.037 4.25852Z" fill="#1F1A17"/>
<path d="M145.862 22.6364V23.6506H139.771V35H138.642V22.6364H145.862ZM158.025 28.8182C158.025 30.1061 157.796 31.2269 157.337 32.1808C156.878 33.1306 156.246 33.8671 155.441 34.3903C154.64 34.9094 153.719 35.169 152.676 35.169C151.634 35.169 150.71 34.9094 149.905 34.3903C149.105 33.8671 148.475 33.1306 148.016 32.1808C147.561 31.2269 147.334 30.1061 147.334 28.8182C147.334 27.5303 147.561 26.4115 148.016 25.4616C148.475 24.5078 149.107 23.7713 149.911 23.2521C150.716 22.7289 151.638 22.4673 152.676 22.4673C153.719 22.4673 154.64 22.7289 155.441 23.2521C156.246 23.7713 156.878 24.5078 157.337 25.4616C157.796 26.4115 158.025 27.5303 158.025 28.8182ZM156.926 28.8182C156.926 27.7114 156.741 26.7636 156.371 25.9748C156.001 25.1819 155.496 24.5762 154.856 24.1577C154.216 23.7391 153.489 23.5298 152.676 23.5298C151.867 23.5298 151.143 23.7391 150.503 24.1577C149.863 24.5762 149.356 25.1799 148.982 25.9688C148.612 26.7576 148.426 27.7074 148.426 28.8182C148.426 29.925 148.612 30.8728 148.982 31.6616C149.352 32.4504 149.857 33.0561 150.497 33.4787C151.137 33.8973 151.863 34.1065 152.676 34.1065C153.489 34.1065 154.216 33.8973 154.856 33.4787C155.5 33.0601 156.007 32.4564 156.377 31.6676C156.747 30.8748 156.93 29.925 156.926 28.8182ZM160.755 35V22.6364H164.746C165.623 22.6364 166.356 22.8054 166.943 23.1435C167.535 23.4775 167.98 23.9323 168.277 24.5078C168.579 25.0833 168.73 25.7313 168.73 26.4517C168.73 27.1721 168.581 27.8221 168.283 28.4016C167.986 28.9772 167.543 29.4339 166.955 29.772C166.368 30.1061 165.637 30.2731 164.764 30.2731H161.625V29.2589H164.734C165.382 29.2589 165.919 29.1381 166.346 28.8967C166.772 28.6512 167.09 28.3171 167.299 27.8945C167.513 27.4719 167.619 26.991 167.619 26.4517C167.619 25.9124 167.513 25.4315 167.299 25.0089C167.09 24.5863 166.77 24.2543 166.339 24.0128C165.913 23.7713 165.372 23.6506 164.716 23.6506H161.884V35H160.755ZM181.516 28.8182C181.516 30.1061 181.287 31.2269 180.828 32.1808C180.369 33.1306 179.737 33.8671 178.933 34.3903C178.132 34.9094 177.21 35.169 176.168 35.169C175.125 35.169 174.202 34.9094 173.397 34.3903C172.596 33.8671 171.966 33.1306 171.507 32.1808C171.052 31.2269 170.825 30.1061 170.825 28.8182C170.825 27.5303 171.052 26.4115 171.507 25.4616C171.966 24.5078 172.598 23.7713 173.403 23.2521C174.208 22.7289 175.129 22.4673 176.168 22.4673C177.21 22.4673 178.132 22.7289 178.933 23.2521C179.737 23.7713 180.369 24.5078 180.828 25.4616C181.287 26.4115 181.516 27.5303 181.516 28.8182ZM180.418 28.8182C180.418 27.7114 180.232 26.7636 179.862 25.9748C179.492 25.1819 178.987 24.5762 178.347 24.1577C177.707 23.7391 176.981 23.5298 176.168 23.5298C175.359 23.5298 174.634 23.7391 173.994 24.1577C173.354 24.5762 172.847 25.1799 172.473 25.9688C172.103 26.7576 171.918 27.7074 171.918 28.8182C171.918 29.925 172.103 30.8728 172.473 31.6616C172.843 32.4504 173.348 33.0561 173.988 33.4787C174.628 33.8973 175.355 34.1065 176.168 34.1065C176.981 34.1065 177.707 33.8973 178.347 33.4787C178.991 33.0601 179.498 32.4564 179.868 31.6676C180.239 30.8748 180.422 29.925 180.418 28.8182ZM183.081 38.0004V33.9858H183.866C184.152 33.688 184.416 33.2956 184.657 32.8086C184.899 32.3176 185.1 31.6857 185.261 30.913C185.426 30.1362 185.532 29.1663 185.581 28.0032L185.828 22.6364H192.897V33.9858H194.346V37.9702H193.272V35H184.156V38.0004H183.081ZM185.218 33.9858H191.823V23.6506H186.854L186.661 28.0032C186.617 28.949 186.535 29.7921 186.414 30.5327C186.293 31.2692 186.132 31.9232 185.931 32.4947C185.734 33.0621 185.496 33.5592 185.218 33.9858ZM196.799 35H195.616L200.113 22.6364H201.32L205.818 35H204.635L200.759 24.1033H200.675L196.799 35ZM197.65 30.261H203.784V31.2752H197.65V30.261ZM212.718 22.6364H214.022L218.508 33.4062H218.616L223.102 22.6364H224.406V35H223.343V25.021H223.247L219.075 35H218.049L213.877 25.021H213.781V35H212.718V22.6364ZM237.829 28.8182C237.829 30.1061 237.599 31.2269 237.141 32.1808C236.682 33.1306 236.05 33.8671 235.245 34.3903C234.444 34.9094 233.522 35.169 232.48 35.169C231.438 35.169 230.514 34.9094 229.709 34.3903C228.908 33.8671 228.278 33.1306 227.82 32.1808C227.365 31.2269 227.137 30.1061 227.137 28.8182C227.137 27.5303 227.365 26.4115 227.82 25.4616C228.278 24.5078 228.91 23.7713 229.715 23.2521C230.52 22.7289 231.442 22.4673 232.48 22.4673C233.522 22.4673 234.444 22.7289 235.245 23.2521C236.05 23.7713 236.682 24.5078 237.141 25.4616C237.599 26.4115 237.829 27.5303 237.829 28.8182ZM236.73 28.8182C236.73 27.7114 236.545 26.7636 236.175 25.9748C235.804 25.1819 235.299 24.5762 234.659 24.1577C234.02 23.7391 233.293 23.5298 232.48 23.5298C231.671 23.5298 230.947 23.7391 230.307 24.1577C229.667 24.5762 229.16 25.1799 228.786 25.9688C228.415 26.7576 228.23 27.7074 228.23 28.8182C228.23 29.925 228.415 30.8728 228.786 31.6616C229.156 32.4504 229.661 33.0561 230.301 33.4787C230.941 33.8973 231.667 34.1065 232.48 34.1065C233.293 34.1065 234.02 33.8973 234.659 33.4787C235.303 33.0601 235.81 32.4564 236.181 31.6676C236.551 30.8748 236.734 29.925 236.73 28.8182ZM250.242 26.5H249.107C249.023 26.0774 248.87 25.687 248.649 25.3288C248.431 24.9666 248.158 24.6507 247.828 24.381C247.497 24.1114 247.123 23.9021 246.705 23.7532C246.286 23.6043 245.833 23.5298 245.346 23.5298C244.566 23.5298 243.853 23.7331 243.209 24.1396C242.569 24.546 242.056 25.1437 241.67 25.9325C241.287 26.7173 241.096 27.6792 241.096 28.8182C241.096 29.9652 241.287 30.9311 241.67 31.7159C242.056 32.5007 242.569 33.0964 243.209 33.5028C243.853 33.9053 244.566 34.1065 245.346 34.1065C245.833 34.1065 246.286 34.0321 246.705 33.8832C247.123 33.7343 247.497 33.527 247.828 33.2614C248.158 32.9917 248.431 32.6758 248.649 32.3136C248.87 31.9513 249.023 31.5589 249.107 31.1364H250.242C250.142 31.7038 249.953 32.2331 249.675 32.7241C249.401 33.2111 249.051 33.6377 248.624 34.0039C248.202 34.3701 247.715 34.6559 247.163 34.8612C246.612 35.0664 246.006 35.169 245.346 35.169C244.308 35.169 243.386 34.9094 242.581 34.3903C241.776 33.8671 241.145 33.1306 240.686 32.1808C240.231 31.2309 240.004 30.1101 240.004 28.8182C240.004 27.5263 240.231 26.4054 240.686 25.4556C241.145 24.5058 241.776 23.7713 242.581 23.2521C243.386 22.7289 244.308 22.4673 245.346 22.4673C246.006 22.4673 246.612 22.57 247.163 22.7752C247.715 22.9764 248.202 23.2622 248.624 23.6325C249.051 23.9987 249.401 24.4253 249.675 24.9123C249.953 25.3993 250.142 25.9285 250.242 26.5ZM260.06 35L255.804 29.1683H254.023V35H252.894V22.6364H254.023V28.1602H255.14L259.698 22.6364H261.038L256.456 28.2085L261.412 35H260.06ZM263.536 35V22.6364H267.707C268.512 22.6364 269.182 22.7772 269.717 23.0589C270.257 23.3407 270.661 23.725 270.931 24.212C271.2 24.699 271.335 25.2524 271.335 25.8722C271.335 26.3873 271.249 26.828 271.076 27.1942C270.903 27.5605 270.667 27.8563 270.369 28.0817C270.072 28.3071 269.74 28.4701 269.373 28.5707V28.6673C269.772 28.6954 270.158 28.8363 270.532 29.0898C270.907 29.3394 271.215 29.6895 271.456 30.1403C271.698 30.591 271.818 31.1303 271.818 31.7582C271.818 32.382 271.679 32.9394 271.402 33.4304C271.124 33.9174 270.697 34.3017 270.122 34.5835C269.55 34.8612 268.822 35 267.937 35H263.536ZM264.665 33.9858H267.937C268.89 33.9858 269.595 33.7745 270.049 33.3519C270.508 32.9293 270.738 32.3981 270.738 31.7582C270.738 31.2873 270.623 30.8607 270.394 30.4783C270.168 30.092 269.848 29.7861 269.434 29.5607C269.023 29.3353 268.54 29.2227 267.985 29.2227H264.665V33.9858ZM264.665 28.2205H267.81C268.297 28.2205 268.723 28.1199 269.09 27.9187C269.456 27.7174 269.742 27.4397 269.947 27.0856C270.152 26.7314 270.255 26.3269 270.255 25.8722C270.255 25.2161 270.041 24.6829 269.615 24.2724C269.188 23.8578 268.552 23.6506 267.707 23.6506H264.665V28.2205ZM275.357 28.0696H279.179C280.004 28.0696 280.704 28.2085 281.28 28.4862C281.859 28.7638 282.302 29.1562 282.608 29.6634C282.914 30.1664 283.067 30.7621 283.067 31.4503C283.067 32.1586 282.914 32.7784 282.608 33.3097C282.306 33.8409 281.865 34.2554 281.286 34.5533C280.71 34.8511 280.008 35 279.179 35H274.542V22.6364H275.671V34.0039H279.179C279.77 34.0039 280.271 33.8892 280.682 33.6598C281.097 33.4264 281.412 33.1165 281.63 32.7301C281.847 32.3397 281.956 31.9051 281.956 31.4261C281.956 30.7621 281.71 30.2067 281.219 29.7599C280.732 29.3092 280.052 29.0838 279.179 29.0838H275.357V28.0696ZM285.65 22.6364V35H284.521V22.6364H285.65Z" fill="#1F1A17"/>
</svg>
